<svg width="75" height="63" viewBox="0 0 75 63" fill="none" xmlns="http://www.w3.org/2000/svg">
<path d="M71.3845 26.4522C73.2407 22.5523 73.4501 18.0681 71.9689 14.012C67.3597 2.69991 48.0166 0.0593728 28.7736 8.12472C10.2461 15.8995 -1.43473 30.7552 1.83703 41.9548L0.840187 42.0298C-3.39716 30.7458 8.78678 14.6776 28.5173 5.78105C36.2702 2.15305 44.6917 0.184369 53.2508 0C63.213 0 71.0627 3.36238 73.9032 9.82466C76.0531 14.7245 74.9532 20.6212 71.3845 26.4522ZM15.2834 33.2582C18.3958 30.9771 21.6394 28.8803 24.9987 26.9834C28.5392 24.8616 30.536 22.8273 30.9891 20.8743C31.236 20.0899 31.0172 19.2306 30.4235 18.6619C29.7892 18.0838 28.9486 17.7838 28.0923 17.8213C26.5955 17.7931 25.1737 18.4619 24.2393 19.6274C23.33 20.7993 22.7082 22.1711 22.4269 23.6273H14.5022C15.5928 16.0088 22.3957 10.5371 30.0704 11.109C32.8515 10.9152 35.6108 11.7058 37.867 13.3433C39.9325 15.0682 40.5794 17.5931 39.8044 20.918C39.0138 23.8992 37.1014 26.4585 34.4671 28.0615C33.6921 28.6084 32.0609 29.5552 29.5673 30.9021C28.6611 31.4145 27.4299 32.0645 25.8737 32.8551C24.3175 33.652 23.2644 34.2113 22.7082 34.5519H36.5608L34.8796 41.8736H9.73362C10.0992 40.2299 10.7555 38.6643 11.6711 37.2518C12.6835 35.755 13.8991 34.4113 15.2834 33.2582ZM39.8232 28.3615L57.6538 11.5371H65.8785L61.8755 28.8803H65.6222L64.0817 35.5457H60.3412L58.885 41.8704H50.4884L51.9446 35.5488H38.1639L39.8232 28.3615ZM53.4852 28.8771L55.6257 19.6274L46.3636 28.8771H53.4852ZM20.1645 61.8697C20.202 62.0041 20.2707 62.126 20.3676 62.226C20.5051 62.3072 20.6676 62.3416 20.8238 62.326H22.5332C22.7925 62.326 22.8831 62.1979 22.8019 61.9447L21.8863 58.9886C21.7551 58.5761 21.5894 58.1761 21.3926 57.7918C21.2238 57.473 20.9457 57.2262 20.6114 57.098C20.9238 56.9574 21.1801 56.7199 21.3457 56.4199C21.5707 56.0324 21.7519 55.62 21.8863 55.1918L22.6832 52.6138C22.7644 52.3607 22.6738 52.2326 22.4144 52.2326H20.8238C20.6645 52.2138 20.5051 52.2482 20.3645 52.3326C20.2676 52.4326 20.1989 52.5576 20.1614 52.6888L19.427 55.0231C19.3708 55.2169 19.2864 55.3981 19.1708 55.5668C19.0833 55.6918 18.9739 55.7981 18.8489 55.8793C18.7395 55.9481 18.6208 55.9981 18.4958 56.0262C18.3771 56.0512 18.2583 56.0637 18.1364 56.0637H17.3115V52.5419C17.3115 52.4607 17.2927 52.3794 17.2584 52.3045C17.2021 52.2138 17.099 52.167 16.9959 52.1857H15.2115C15.1116 52.1732 15.0116 52.2107 14.9428 52.2857C14.8897 52.3576 14.8647 52.4482 14.8678 52.5388V61.9947C14.8459 62.1604 14.9647 62.3104 15.1303 62.3322C15.1584 62.3354 15.1866 62.3354 15.2147 62.3322H16.999C17.1021 62.351 17.2052 62.3041 17.2615 62.2197C17.2959 62.151 17.3146 62.076 17.3146 61.9979V58.1292H18.0958C18.3583 58.1261 18.6177 58.1917 18.8458 58.3199C19.1302 58.5292 19.3302 58.8355 19.402 59.1823L20.1645 61.8697ZM26.7268 60.0417H29.711L30.2048 61.8572C30.2391 61.9854 30.2954 62.1072 30.3704 62.2135C30.461 62.301 30.5891 62.3447 30.7172 62.326H32.5766C32.6547 62.3416 32.7359 62.3041 32.7734 62.2354C32.7922 62.1447 32.7859 62.0479 32.7578 61.9604L29.7392 52.6513C29.7017 52.5294 29.6423 52.4169 29.5673 52.3169C29.4548 52.2201 29.3048 52.1732 29.1548 52.1951H27.2642C27.1205 52.1763 26.9736 52.2201 26.858 52.3076C26.7768 52.4044 26.7143 52.5169 26.6799 52.6357L23.7862 61.9322C23.7362 62.0354 23.73 62.1541 23.7706 62.2604C23.8331 62.3135 23.9144 62.3385 23.9956 62.3291H25.6612C25.7768 62.3353 25.8955 62.3041 25.9893 62.2385C26.0862 62.1479 26.1549 62.0322 26.1862 61.9041L26.7268 60.0417ZM29.1861 58.1949H27.233L27.683 56.4949L28.1798 54.6419H28.2548L28.7329 56.5168L29.1861 58.1949ZM39.2294 56.0606H36.3014V52.5388C36.3014 52.4576 36.2827 52.3763 36.2483 52.3013C36.1921 52.2138 36.0889 52.1701 35.9858 52.1888H34.2484C34.1515 52.1794 34.0578 52.217 33.9921 52.2888C33.939 52.3607 33.914 52.4513 33.9171 52.5419V61.9979C33.8921 62.1572 34.0015 62.3072 34.164 62.3322C34.1921 62.3354 34.2202 62.3354 34.2484 62.3322H35.9889C36.0889 62.351 36.192 62.3104 36.2514 62.226C36.2858 62.1541 36.3045 62.076 36.3045 61.9979V58.0917H39.2294V61.9979C39.2044 62.1572 39.3138 62.3072 39.4763 62.3322C39.5044 62.3354 39.5326 62.3354 39.5607 62.3322H41.3012C41.4012 62.351 41.5044 62.3072 41.5637 62.226C41.5981 62.1541 41.6169 62.076 41.6137 61.9979V52.5419C41.6137 52.4607 41.595 52.3794 41.5637 52.3045C41.5075 52.217 41.4044 52.1732 41.3012 52.192H39.5607C39.4638 52.1826 39.3701 52.2201 39.3044 52.2919C39.2513 52.3669 39.2263 52.4544 39.2294 52.5451V56.0606ZM45.7355 60.0417H48.7229L49.2197 61.8572C49.2541 61.9854 49.3103 62.1072 49.3853 62.2135C49.476 62.301 49.6041 62.3447 49.7291 62.326H51.5884C51.6665 62.3416 51.7477 62.3041 51.7852 62.2354C51.804 62.1447 51.8009 62.0479 51.7696 61.9604L48.751 52.6513C48.7135 52.5294 48.6541 52.4169 48.5791 52.3169C48.4666 52.2201 48.3166 52.1732 48.1666 52.1951H46.2761C46.1323 52.1763 45.9855 52.2201 45.8698 52.3076C45.7886 52.4044 45.7261 52.5138 45.6886 52.6357L42.7949 61.9385C42.7449 62.0416 42.7387 62.1604 42.7793 62.2666C42.8418 62.3197 42.9231 62.3447 43.0043 62.3354H44.6699C44.7855 62.3416 44.9042 62.3103 44.998 62.2447C45.0949 62.1541 45.1636 62.0385 45.1949 61.9104L45.7355 60.0417ZM48.1947 58.1949H46.2479L46.6979 56.4949L47.1917 54.6419H47.2667L47.7448 56.5168L48.1947 58.1949ZM56.7882 54.2606H58.4225V61.9916C58.4006 62.1572 58.5194 62.3072 58.685 62.3291C58.7131 62.3322 58.7412 62.3322 58.7694 62.3291H60.5537C60.6537 62.3478 60.7568 62.3072 60.8162 62.2229C60.8505 62.151 60.8693 62.0729 60.8693 61.9947V52.5544C60.9005 52.3951 60.7974 52.2388 60.6381 52.2076C60.6131 52.2013 60.5849 52.2013 60.5568 52.2013H54.9758C54.8101 52.1826 54.6601 52.3044 54.6445 52.4701C54.6414 52.4982 54.6414 52.5263 54.6476 52.5544C54.5976 53.5107 54.5414 54.4606 54.482 55.4075C54.4226 56.3512 54.3601 57.3105 54.2945 58.2792C54.2758 58.6542 54.232 59.0261 54.1664 59.3917C54.1258 59.6354 54.0414 59.8698 53.9195 60.0854C53.8195 60.2542 53.6727 60.3948 53.5008 60.4917C53.3039 60.5948 53.0914 60.6698 52.8758 60.7198C52.779 60.7417 52.6883 60.7792 52.6071 60.8323C52.5571 60.9104 52.5352 61.0073 52.5477 61.101C52.5477 61.276 52.5477 61.4416 52.5696 61.6041C52.5915 61.7666 52.5915 61.9354 52.5915 62.1072C52.579 62.2197 52.6133 62.3354 52.6883 62.4197C52.8383 62.501 53.0071 62.5322 53.1758 62.5103C53.7008 62.5166 54.2227 62.4322 54.7195 62.2666C55.1039 62.1322 55.4445 61.8979 55.7101 61.5885C55.9757 61.2604 56.1632 60.8792 56.2663 60.4667C56.3976 59.9479 56.4882 59.4198 56.5351 58.8886C56.5976 58.2824 56.6382 57.598 56.6632 56.8293C56.6882 56.0606 56.7288 55.2106 56.7913 54.2731L56.7882 54.2606Z" fill="#D11831"/>
</svg>
