<svg width="125" height="125" viewBox="0 0 125 125" fill="none" xmlns="http://www.w3.org/2000/svg">
<path d="M71.7825 66.0655H68.5525C65.0706 66.0655 64.2328 66.5204 64.2328 69.9172V71.5862C64.2328 74.4104 64.8218 75.0485 68.3758 75.0485H71.7334C75.5851 75.0485 76.3247 74.6886 76.3247 73.2061V72.0182H70.1069V68.9388H80.5462V72.1098C80.5462 77.264 78.9427 78.4748 72.2537 78.4748H67.9831C61.8831 78.4748 60.1323 77.1266 60.1323 72.1327V69.6653C60.1323 64.1216 61.6115 62.5705 68.0813 62.5705H71.8316C78.7955 62.5705 80.5462 63.778 80.5462 67.5218H76.3051C76.2789 66.288 75.6637 66.059 71.789 66.059M90.475 78.4978C84.1787 78.4978 82.477 77.1037 82.477 71.8578V69.8518C82.477 63.6667 84.254 62.6425 90.6223 62.6425H94.2777C100.993 62.6425 102.668 63.5784 102.668 68.0257H98.4272C98.4043 66.7953 97.9822 66.1539 94.0813 66.1539H90.9201C87.2189 66.1539 86.6266 66.4484 86.6266 69.8027V71.5371C86.6266 74.6166 87.2156 75.0485 90.7728 75.0485H94.1337C97.7597 75.0485 98.4763 74.754 98.4534 72.977H102.695C102.721 77.1986 101.562 78.4978 94.2319 78.4978H90.475ZM116.311 78.4748H112.679C106.114 78.4748 104.563 77.2411 104.563 71.7662V69.8518C104.563 63.9613 106.016 62.5737 112.754 62.5737H116.387C123.446 62.5737 125 64.0333 125 69.7831V71.7008C125 77.5389 123.419 78.4748 116.311 78.4748ZM116.164 66.1539H113.127C109.249 66.1539 108.706 66.7724 108.706 69.9172V71.56C108.706 74.3908 109.249 74.9831 112.98 74.9831H116.233C120.258 74.9831 120.88 74.5249 120.88 71.4946V69.8518C120.88 66.6578 120.284 66.1539 116.164 66.1539ZM44.8235 71.4946L48.2073 65.6073H48.4037L51.6631 71.4946H44.8235ZM51.4896 62.6425H44.997L38.4422 74.3842L40.9358 78.4748H40.9489L43.0466 74.6656H53.4401L55.5148 78.4748H60.3254L51.4896 62.6425Z" fill="#2C3333"/>
<path d="M29.1155 62.3839L19.4682 46.5024L0 78.4814L29.1155 62.3839ZM7.09153 78.4814L29.5082 63.0319L29.2562 62.6163L3.69793 78.4814H7.09153ZM14.1929 78.4814L30.1758 64.1282L29.806 63.5195L10.6422 78.4814H14.1929ZM21.1371 78.4814L31.1019 65.6597L30.6274 64.8743L17.5865 78.4814H21.1371ZM38.8545 78.4814C38.8545 78.4814 34.0374 70.6797 31.8088 66.8182L24.5275 78.4814H38.8545Z" fill="#2C3333"/>
</svg>
