<svg width="115" height="33" viewBox="0 0 115 33" fill="none" xmlns="http://www.w3.org/2000/svg">
<path d="M62.309 21.1831C62.309 24.7448 57.8767 24.5334 57.8767 24.5334H53.4446V18.0977H57.8767C62.438 18.0671 62.309 21.1831 62.309 21.1831ZM53.4446 8.28265H56.822C60.329 8.46791 60.1966 11.079 60.1966 11.079C60.1966 14.3238 56.3187 14.3767 56.3187 14.3767H53.4446V8.28265ZM61.4891 15.6423C61.4891 15.6423 64.5228 14.3496 64.4958 10.9207C64.4958 10.9207 64.9572 5.30139 57.512 4.61599H49.2506V28.1736H58.7201C58.7201 28.1736 66.6324 28.1972 66.6324 21.5267C66.6323 21.5267 66.8194 16.9873 61.4891 15.6423ZM40.1089 0H74.891V32.7765H40.1089V0ZM22.1997 21.1831C22.1997 24.7448 17.7675 24.5334 17.7675 24.5334H13.3351V18.0977H17.7675C22.3291 18.0671 22.1997 21.1831 22.1997 21.1831ZM13.3351 8.28265H16.7131C20.2202 8.46791 20.0875 11.079 20.0875 11.079C20.0875 14.3238 16.2098 14.3767 16.2098 14.3767H13.3351V8.28265ZM21.3802 15.6423C21.3802 15.6423 24.4144 14.3496 24.3871 10.9207C24.3871 10.9207 24.8482 5.30139 17.403 4.61599H9.14124V28.1736H18.6114C18.6114 28.1736 26.5235 28.1972 26.5235 21.5267C26.5235 21.5267 26.7099 16.9873 21.3802 15.6423ZM0 0H34.7821V32.7765H0V0ZM107.905 6.30488V10.6572C107.905 10.6572 103.656 8.04644 98.9618 7.99388C98.9618 7.99388 90.2032 7.82196 89.8084 16.3895C89.8084 16.3895 89.4921 24.2685 98.8562 24.7174C98.8562 24.7174 102.785 25.1906 108.115 21.7917V26.2991C108.115 26.2991 100.965 30.5471 92.6826 27.2752C92.6826 27.2752 85.72 24.7327 85.4548 16.3895C85.4548 16.3895 85.1652 7.80827 94.4512 4.95972C94.4512 4.95972 96.931 4.0104 101.387 4.43233C101.387 4.43222 104.051 4.69568 107.905 6.30488ZM80.2179 32.7765H115V0H80.2179V32.7765Z" fill="#A71111"/>
</svg>
