<svg width="125" height="125" viewBox="0 0 125 125" fill="none" xmlns="http://www.w3.org/2000/svg">
<path d="M103.726 51.7827L102.576 56.2497H108.443L109.574 51.7827H103.726Z" fill="#2C3333"/>
<path d="M98.3199 72.8142L102.365 57.0358H108.232L104.167 72.8142H98.3199Z" fill="#2C3333"/>
<path fill-rule="evenodd" clip-rule="evenodd" d="M71.211 57.0358H87.7562L86.7018 61.1769H76.234L75.678 63.2474H85.7049L84.8421 66.6025H74.8153L74.2593 68.6731H84.7846L83.7302 72.8142H67.1658L71.211 57.0358ZM48.224 67.2735H54.4549C54.4549 67.3119 54.3974 69.5741 57.7141 69.5741C59.9955 69.5741 60.3214 68.8648 60.3981 68.5197C60.5323 67.9254 60.1105 67.6378 59.2478 67.4269C56.5446 66.775 52.8253 65.5864 51.8475 64.9921C51.1573 64.5703 50.1412 63.6692 50.1412 61.8479C50.122 59.4323 52.9978 56.4415 59.152 56.4798C62.2386 56.499 64.1174 57.1125 65.2677 57.6301C67.7409 58.7421 67.9135 61.081 67.8559 62.078L61.7785 62.0588C61.7785 62.0588 61.7593 60.295 59.2286 60.18C57.9441 60.1224 56.5446 60.3525 56.5446 61.3494C56.5446 62.2122 57.4073 62.4039 59.4587 62.864C59.938 62.979 63.2355 63.65 64.29 64.0335C66.188 64.7428 67.1082 65.7206 66.8207 67.8103C66.1688 72.4307 60.1681 73.1976 57.1006 73.2168C53.2662 73.2359 49.221 72.5266 48.3582 68.7114C48.2816 68.2321 48.224 67.2735 48.224 67.2735ZM40.8046 67.7145L40.3061 61.7137L36.3759 67.7145H40.8046ZM45.0032 57.0166L47.7831 72.8142H41.1113L40.9579 70.9353H34.4779L33.2317 72.795H26.1957L37.8138 56.9974H45.0032V57.0166ZM27.9211 67.9637C27.6527 68.5389 27.1926 69.3057 26.4641 70.0918C25.0262 71.6255 22.5339 73.1976 18.2777 73.1976C13.1013 73.1976 11.0691 71.3571 10.053 69.5358C9.32451 68.2321 9.15196 66.8709 9.26699 65.6631C9.47788 63.4775 11.5868 56.5181 20.7701 56.5181C25.9273 56.5181 27.9595 58.2053 28.7263 60.0649C29.3398 61.5603 29.1098 63.8609 29.0714 64.0527H23.0323C23.224 62.9024 22.879 60.9468 20.8084 60.9468C18.5078 60.9277 16.3414 62.6339 15.7279 64.8579C15.0569 67.331 16.4372 68.8456 18.6228 68.8839C20.9809 68.9415 22.1121 67.0243 22.1504 66.9668H28.3237C28.2854 67.1393 28.0553 67.6953 27.9211 67.9637Z" fill="#2C3333"/>
<path d="M98.8567 67.4844L100.199 62.2505H99.3935L100.736 57.0166H94.8882L90.8046 72.8142H96.6711L98.0323 67.4844H98.8567Z" fill="#2C3333"/>
<path d="M108.558 62.2505H107.714L106.353 67.4844H107.216L105.854 72.8142H111.702L115.766 57.0166H109.919L108.558 62.2505Z" fill="#2C3333"/>
</svg>
