<svg width="125" height="125" viewBox="0 0 125 125" fill="none" xmlns="http://www.w3.org/2000/svg">
<path fill-rule="evenodd" clip-rule="evenodd" d="M13.9399 52.8938L13.5206 52.9644L12.9601 53.141L12.6467 53.344L12.4349 53.494L12.0509 53.878L11.5566 54.5445L11.3492 55.0344L11.2035 55.5552L7.91099 68.4295L7.70355 69.2328L7.62852 69.4755L7.59321 69.683L7.52701 69.9655V70.217L7.4917 70.4245L7.5579 71.0203L7.70355 71.3381L7.87568 71.5808L8.05663 71.7883L8.33028 71.9339L8.64805 72.0398L8.99672 72.0707L9.3145 72.106H23.6895L23.8307 72.0707L23.8616 72.0398L23.9322 71.7529L24.3603 70.217L24.4618 69.7227L24.7443 68.6679L25.1283 67.1628L25.1989 66.9554L25.2298 66.7744L25.1989 66.7391L25.1283 66.7127H18.3976L18.3623 66.6729V66.6023L18.4329 66.3243L18.6006 65.6931L18.711 65.2738L19.2009 63.2348L19.4833 62.2152L19.9379 60.4631L20.3219 58.9978L20.7059 57.5545L20.7765 57.453L20.8515 57.4177H25.5476L25.6182 57.3868L25.6491 57.3118L25.9669 56.0539L26.2846 54.8976L26.4965 54.0502L26.7701 52.9291L26.7392 52.8938H13.9399ZM31.0469 52.8938L30.8747 52.9291L30.8438 52.9644L30.7732 53.2425L30.6629 53.7324L26.5671 69.683L26.4568 70.217L26.4215 70.6672L26.5318 71.0865L26.7039 71.4396L27.0526 71.7883L27.3351 71.9339L27.7897 72.0398L28.1074 72.0707L28.3193 72.106H40.6949L40.7655 72.0707V72.0045L40.973 71.1571L41.0789 70.8438L41.3216 69.8639L42.1337 66.7744L42.0984 66.7391L42.0587 66.7127H37.5745L37.4289 66.6729L37.3936 66.6376L37.7113 65.4416L40.7655 53.419L40.867 53.0659L40.9023 52.9644L40.867 52.8938H31.0469ZM49.6368 52.8938L49.3852 52.9291L49.1425 52.9644L48.8953 53.0306L48.5819 53.141L48.0479 53.4587L47.8096 53.6309L47.5315 53.878L47.2799 54.1605L47.1431 54.4385L46.9666 54.7872L46.5826 56.0804L42.6545 71.0556L42.4074 72.0707L42.4427 72.106H51.7421L51.9142 72.0707L51.9407 72.0398L52.4085 70.3892L52.5453 69.758L52.8234 68.7429L53.2427 67.0569L53.3133 66.8495L53.3486 66.8098L53.4148 66.7744H57.4885L57.5238 66.8098L57.5591 66.876V72.0398L57.5856 72.106H67.0615L67.1277 72.0707L67.163 72.0045V52.9997L67.1277 52.9291L67.0615 52.8938H57.5856L57.5591 52.9644V62.2152L57.5238 62.2859H54.5402L54.5005 62.2505L54.5402 62.1137L54.6153 61.9019L54.964 60.6793L55.2817 59.342L55.4539 58.7109L55.6613 57.9782L55.8334 57.2103L56.2218 55.7361L56.4028 55.2109L56.7912 53.7324L56.9898 52.9644L56.9545 52.9291L56.8883 52.8938H49.6368ZM76.1314 52.8938L75.6812 52.9644L75.1251 53.1056L74.6308 53.3793L74.4233 53.5249L74.0703 53.8471L73.854 54.1208L73.6907 54.5798L73.4391 55.383L69.3036 71.2366L69.0918 71.8898V72.0398L69.1271 72.0707L69.1933 72.106H78.2367L78.3867 72.0707L78.4176 72.0398L79.0841 69.5859L79.1194 69.4049L79.4371 68.2839L79.7505 67.026L79.8211 66.8495L79.852 66.8098L79.9579 66.7744H83.9963L84.0317 66.8495V72.0045L84.0626 72.0707L84.0979 72.106H93.6003L93.6356 72.0707L93.6709 72.0045V52.9997L93.6356 52.9291L93.6003 52.8938H84.0979L84.0626 52.9291L84.0317 52.9997V62.2859L83.9963 62.33H81.0084L80.9422 62.2859V62.2505L81.154 61.412L83.1489 53.9486L83.3917 53.0306V52.9291L83.3299 52.8938H76.1314ZM101.871 52.8938L101.558 52.9291L101.275 52.9997L100.891 53.1719L100.402 53.5249L100.084 53.9133L99.8322 54.2973L99.6954 54.6813L99.5939 54.9329L99.2011 56.5394L99.1349 56.7513L98.261 60.26L98.0447 60.9265L98.0182 61.2398V61.8357L98.1197 62.0784L98.3978 62.5683L98.7156 62.8199L98.9274 62.9214L99.2805 63.0185H105.234L105.279 63.0626V63.1686L105.133 63.8659L104.674 65.7946L104.466 66.5317L104.431 66.6729L104.361 66.7127H96.8222L96.6809 66.7391L96.6103 66.7744V66.9113L96.4735 67.4806L95.6614 70.6319L95.3083 72.0398V72.0707L95.3877 72.106H110.879L111.127 72.0707H111.55L112.318 71.9339L112.812 71.722L113.227 71.4396L113.545 71.1571L113.832 70.804L114.07 70.4554L114.282 69.9655L114.459 69.2681L114.838 67.7234L115.266 66.0418L115.333 65.8299L115.858 63.7247L115.937 63.3054L115.999 63.098L116.074 62.7096V62.1137L115.999 61.7253L115.858 61.3458L115.65 61.1295L115.439 60.9574L115.09 60.7808L114.666 60.7146H108.531L108.39 60.6793L108.359 60.644L108.465 60.185L108.849 58.6447L109.198 57.3515L109.233 57.2721H116.317L116.418 57.2103L116.489 57.0734L116.59 56.685L116.842 55.6302L117.23 54.0855L117.509 52.9291L117.473 52.8938H101.871Z" fill="#2C3333"/>
</svg>
