<svg width="125" height="125" viewBox="0 0 125 125" fill="none" xmlns="http://www.w3.org/2000/svg">
<path fill-rule="evenodd" clip-rule="evenodd" d="M33.8467 77.4319V86.2513H42.041C44.1598 86.2513 45.842 84.7406 45.842 82.8787V80.8046C45.842 78.9412 44.1583 77.4319 42.041 77.4319H33.8467ZM37.5318 79.7047V83.9815H40.1539C41.1814 83.9815 41.9965 83.2493 41.9965 82.3467V81.341C41.9965 80.4384 41.1799 79.7062 40.1539 79.7062H37.5318V79.7047Z" fill="#2C3333"/>
<path d="M61.7066 77.4319L61.7007 82.2914C61.7007 83.8634 62.3807 84.228 63.0058 84.228H64.2233C64.7608 84.228 65.5165 83.853 65.5165 82.2525L65.4734 77.4319H69.1037L69.2417 83.1267C69.2417 85.4354 67.2878 86.5816 65.4051 86.5816H61.7972C59.9412 86.5816 57.922 85.4579 57.922 83.197L57.9428 77.4319H61.7066Z" fill="#2C3333"/>
<path d="M80.3566 79.7047H76.958V86.2528H73.1749V79.7047H69.7763V77.4334H80.3566" fill="#2C3333"/>
<path d="M86.0952 79.7047H80.8867V77.4334H91.1538V79.364L85.6735 83.9695H90.937V86.2528H80.5081V84.3999L86.0952 79.7047Z" fill="#2C3333"/>
<path d="M46.7744 77.4319V86.2513H56.7817V84.0726H50.5101V82.9818H56.3467V80.7074H50.5101V79.6166H56.7817V77.4319H46.7744Z" fill="#2C3333"/>
<path d="M38.9305 88.5645V97.384H42.5889V94.1996H48.1033V92.0672H42.5889V90.7477H48.4656V88.566H38.9305V88.5645Z" fill="#2C3333"/>
<path d="M65.2314 91.7683V88.5645H61.4542V97.384H65.2314V93.9246H69.2432V97.384H73.0204V88.5645H69.2432V91.7683H65.2314Z" fill="#2C3333"/>
<path fill-rule="evenodd" clip-rule="evenodd" d="M74.2528 93.3762V88.5645H82.367C84.0863 88.5645 85.4523 89.6359 85.4523 90.6521V91.5352C85.4523 92.5499 84.0908 93.3732 82.3744 93.3747H82.4575L85.7285 97.3182V97.384H81.687L79.5207 94.2982H77.9186V97.384H74.2617V93.3762H74.2528ZM77.8993 90.534V91.8834H80.6847C81.1673 91.8834 81.5504 91.6518 81.5504 91.3679V91.1198C81.5504 90.8344 81.1673 90.534 80.6847 90.534H77.8993Z" fill="#2C3333"/>
<path fill-rule="evenodd" clip-rule="evenodd" d="M56.6005 88.5645L60.547 97.384H56.651L56.3392 96.5307H52.3259L51.9948 97.384H48.1033V97.3242L52.023 88.5645H56.6005ZM53.193 94.2937L54.3942 91.193L55.5241 94.2937H53.193Z" fill="#2C3333"/>
<path d="M63.5804 49.4718V27.616L59.3874 42.5785L63.5804 49.4718Z" fill="#2C3333"/>
<path d="M63.5804 49.4718V27.616L67.7733 42.5785L63.5804 49.4718Z" fill="#2C3333"/>
<path d="M58.4565 46.0274L54.2635 60.99L54.0364 61.5907C53.7691 62.296 53.3177 62.9161 52.7313 63.3868L50.1968 65.4176L48.8308 72.8085L56.7134 66.0407C57.4617 65.3982 57.9621 64.5106 58.1254 63.5348L60.3451 50.3011L58.4565 46.0274Z" fill="#2C3333"/>
<path d="M58.4565 46.0274L54.2635 60.99L54.0364 61.5907C53.7691 62.296 53.3177 62.9161 52.7313 63.3868L50.1968 65.4176L48.8308 72.8085L56.7134 66.0407C57.4617 65.3982 57.9621 64.5106 58.1254 63.5348L60.3451 50.3011L58.4565 46.0274Z" fill="#2C3333"/>
<path d="M68.7057 46.0274L72.8987 60.99L73.1259 61.5907C73.3931 62.296 73.8445 62.9161 74.431 63.3868L76.9654 65.4176L78.3314 72.8085L70.4488 66.0407C69.7005 65.3982 69.2002 64.5106 69.0368 63.5348L66.8171 50.3011L68.7057 46.0274Z" fill="#2C3333"/>
<path d="M68.7057 46.0274L72.8987 60.99L73.1259 61.5907C73.3931 62.296 73.8445 62.9161 74.431 63.3868L76.9654 65.4176L78.3314 72.8085L70.4488 66.0407C69.7005 65.3982 69.2002 64.5106 69.0368 63.5348L66.8171 50.3011L68.7057 46.0274Z" fill="#2C3333"/>
<path d="M58.2338 45.1936L54.2635 59.802L54.0482 60.3713C53.7736 61.0961 53.3044 61.7311 52.6942 62.2063L50.2666 64.0922L49.7722 70.9032L55.876 65.5581C56.5946 64.929 57.0786 64.0712 57.2479 63.1283L59.5686 50.2264L58.2338 45.1936Z" fill="#2C3333"/>
<path d="M68.9285 45.1936L72.8987 59.802L73.114 60.3713C73.3887 61.0961 73.8578 61.7311 74.4681 62.2063L76.8957 64.0922L77.3901 70.9032L71.2862 65.5581C70.5676 64.929 70.0836 64.0712 69.9143 63.1283L67.5937 50.2264L68.9285 45.1936Z" fill="#2C3333"/>
</svg>
