<svg width="150" height="29" viewBox="0 0 150 29" fill="none" xmlns="http://www.w3.org/2000/svg">
<path fill-rule="evenodd" clip-rule="evenodd" d="M123.28 6.10203H124.732V7.55699H123.28V6.10203ZM125.83 6.10203H127.285V7.55699H125.83V6.10203ZM76.9412 14.0709H80.8383V15.3477H76.9412V14.0709ZM82.5753 9.36454H83.9523L87.3262 15.7114L90.2806 9.36454H91.639L87.7567 17.4187L87.5823 17.7825L87.4115 18.1128L87.2519 18.4023L87.1035 18.6658L86.9513 18.8997L86.8103 19.0964L86.6878 19.2634L86.569 19.397L86.5133 19.4527L86.4465 19.5084L86.3797 19.5566L86.3055 19.6012L86.1644 19.6791L86.0049 19.7422L85.8267 19.7979L85.6411 19.835L85.4444 19.8536L85.2365 19.8647L85.0955 19.8536L84.9545 19.8461L84.806 19.8276L84.6464 19.7979L84.4757 19.7608L84.2975 19.7236L84.1231 19.6791L83.9338 19.6123V18.4394L84.0748 18.5137L84.2159 18.5805L84.3569 18.6361L84.4979 18.6844L84.6464 18.7215L84.7949 18.7401L84.947 18.7586H85.218L85.3405 18.7401L85.4518 18.7104L85.5632 18.6844L85.6671 18.6361L85.771 18.5805L85.8638 18.5137L85.9566 18.4394L86.0531 18.3466L86.1459 18.2242L86.2498 18.0831L86.3426 17.9161L86.4465 17.7194L86.5505 17.493L86.6618 17.248L86.7657 16.9771L82.5753 9.36454ZM94.0293 9.36454H95.3989V13.9038H95.6253L95.8294 13.8853L96.0261 13.8556L96.1969 13.8073L96.3565 13.7628L96.4975 13.696L96.5606 13.67L96.6163 13.6218L96.6757 13.5846L96.7202 13.5364L96.8167 13.4325L96.928 13.2914L97.032 13.1244L97.1507 12.9166L97.2844 12.6827L97.4143 12.4229L97.5442 12.1223L97.6963 11.7919L97.8003 11.5507L97.9005 11.3243L97.997 11.1164L98.0898 10.9197L98.1751 10.7527L98.2568 10.6042L98.3347 10.4706L98.409 10.3593L98.4721 10.2553L98.5574 10.1514L98.6428 10.0586L98.7467 9.96582L98.8506 9.88046L98.9509 9.80622L99.0733 9.72086L99.1958 9.64662L99.3257 9.57981L99.4668 9.52414L99.6004 9.4796L99.7414 9.43135L99.8788 9.40166L100.031 9.3831L100.179 9.36454H100.94L101.1 9.37568H101.174V10.5634H101.063L100.892 10.556L100.714 10.5448H100.621L100.461 10.556L100.313 10.5634L100.172 10.5931L100.049 10.6302L99.927 10.6785L99.8231 10.723L99.7303 10.7898L99.6449 10.864L99.5633 10.9568L99.4779 11.0719L99.3814 11.2018L99.2998 11.3614L99.207 11.5507L99.103 11.7474L99.0065 11.9701L98.9063 12.2262L98.7727 12.5343L98.6539 12.8163L98.5314 13.0687L98.4164 13.2914L98.3162 13.4881L98.2122 13.6477L98.1083 13.7814L98.023 13.8742L97.9302 13.9595L97.8262 14.0449L97.7335 14.1191L97.6221 14.1822L97.5182 14.249L97.3957 14.3158L97.2844 14.3715L97.1619 14.4272L97.2844 14.4643L97.4068 14.5125L97.5368 14.5756L97.6592 14.6425L97.7817 14.7278L97.9005 14.8132L98.0341 14.9134L98.1566 15.0285L98.2791 15.1472L98.3978 15.2809L98.5203 15.4219L98.6428 15.5704L98.7653 15.73L98.8878 15.9007L99.0065 16.0863L99.129 16.2756L101.267 19.7236H99.5707L97.8374 16.9102L97.6592 16.6319L97.4996 16.3758L97.3289 16.1419L97.1804 15.9267L97.0394 15.7411L96.8984 15.5704L96.7684 15.4293L96.646 15.3068L96.5161 15.2066L96.3824 15.1213L96.2414 15.047L96.0929 14.9913L95.9333 14.932L95.7663 14.906L95.5882 14.8874L95.3989 14.8763V19.7236H94.0293V9.36454ZM103.639 19.7236V9.36454H108.449L108.638 9.3831L108.816 9.40166L108.976 9.42021L109.117 9.43877L109.306 9.47589L109.484 9.513L109.662 9.56868L109.822 9.62435L109.982 9.69116L110.123 9.75797L110.264 9.84334L110.405 9.92871L110.527 10.0215L110.65 10.1254L110.761 10.2368L110.865 10.3481L110.969 10.478L111.062 10.6191L111.147 10.7675L111.232 10.916L111.307 11.083L111.374 11.2426L111.422 11.4208L111.47 11.5878L111.507 11.766L111.526 11.9552L111.544 12.1334V12.6642L111.526 12.8238L111.507 12.9834L111.477 13.1318L111.44 13.2729L111.392 13.4213L111.344 13.5624L111.288 13.7034L111.232 13.8333L111.158 13.9632L111.084 14.0931L110.999 14.2156L110.913 14.3381L110.821 14.4606L110.717 14.5719L110.605 14.6833L110.483 14.7872L110.353 14.88L110.212 14.9728L110.063 15.0582L109.896 15.1324L109.729 15.1992L109.54 15.2549L109.343 15.3105L109.135 15.3588L108.92 15.3959L108.694 15.433L108.46 15.4516L108.208 15.4701H105.03V19.6791H103.661L103.639 19.7236ZM105.008 14.2861H108.007L108.297 14.2564L108.438 14.2379L108.568 14.2193L108.697 14.1896L108.809 14.1599L108.931 14.1303L109.035 14.0931L109.139 14.056L109.243 14.0078L109.328 13.9595L109.414 13.9038L109.499 13.8482L109.573 13.7925L109.64 13.7257L109.696 13.6589L109.763 13.5846L109.811 13.5178L109.867 13.4436L109.915 13.3582L109.952 13.2729L109.989 13.1875L110.019 13.1021L110.049 13.0093L110.078 12.9166L110.097 12.8238L110.126 12.6159V12.0814L110.097 11.933L110.06 11.7919L110.011 11.662L109.956 11.5321L109.889 11.4022L109.815 11.2909L109.729 11.1795L109.637 11.0756L109.544 10.9828L109.432 10.9086L109.321 10.8343L109.21 10.7787L109.087 10.723L108.957 10.6859L108.853 10.6562L108.742 10.6376H108.612L108.464 10.6191H105.019V14.3307L105.008 14.2861ZM112.387 19.7236L116.362 9.36454H117.847L122.085 19.7236H120.515L119.305 16.5836H114.974L113.838 19.7236H112.387ZM115.356 15.4664H118.871L117.783 12.6085L117.672 12.2893L117.561 11.9812L117.457 11.6917L117.364 11.4208L117.271 11.1572L117.197 10.9049L117.123 10.6785L117.056 10.452L117.008 10.7044L116.952 10.9568L116.885 11.2018L116.818 11.4468L116.744 11.6991L116.67 11.9441L116.585 12.1891L116.499 12.434L115.356 15.4701V15.4664ZM124.602 9.36454H125.979V19.7236H124.602V9.36454ZM129.635 19.7236V9.36454H131.004V13.6218H136.386V9.36454H137.755V19.7236H136.386V14.8392H131.004V19.7236H129.635ZM140.109 19.7236L144.084 9.36454H145.568L149.796 19.7236H148.241L147.031 16.5836H142.696L141.56 19.7236H140.105H140.109ZM143.078 15.4664H146.608L145.531 12.6085L145.409 12.2893L145.297 11.9812L145.193 11.6917L145.101 11.4208L145.008 11.1572L144.934 10.9049L144.859 10.6785L144.793 10.452L144.744 10.7044L144.689 10.9568L144.622 11.2018L144.555 11.4468L144.481 11.6991L144.407 11.9441L144.321 12.1891L144.236 12.434L143.093 15.4701L143.078 15.4664ZM52.5746 24.4968H53.3169V28.2084H52.5746V24.4968ZM55.1727 28.2084V24.4968H55.915V25.948H57.3774V24.4968H58.1197V28.2084H57.3774V26.5753H55.915V28.1861H55.1727V28.2084ZM62.2247 27.7778V28.2084H61.4824V27.7778H61.2671L61.0704 27.7482L60.8923 27.711L60.7327 27.6628L60.5842 27.596L60.4543 27.5217L60.3875 27.4846L60.3392 27.4475L60.2836 27.3993L60.2353 27.3436L60.1499 27.2397L60.0757 27.1283L60.0089 27.017L59.9607 26.8945L59.9235 26.7646L59.8864 26.6235V26.1856L59.905 26.0371L59.9347 25.8961L59.9718 25.7662L60.0275 25.6437L60.0943 25.5212L60.1685 25.4173L60.2613 25.3133L60.3652 25.2205L60.4766 25.1463L60.6065 25.0721L60.7549 25.0164L60.9145 24.9682L61.0927 24.931L61.282 24.9125L61.4898 24.8939V24.5228H62.2321V24.8939L62.4474 24.9125L62.6441 24.931L62.8223 24.9682L62.9819 25.0164L63.1303 25.0832L63.2603 25.15L63.3271 25.1983L63.3753 25.2354L63.431 25.2836L63.4792 25.3319L63.5646 25.4358L63.6388 25.5472L63.7056 25.6697L63.7539 25.7921L63.8021 25.922L63.8318 26.052L63.8504 26.2004V26.5011L63.8318 26.6421L63.8021 26.772L63.7539 26.9019L63.7056 27.0244L63.6388 27.1469L63.5646 27.2582L63.4792 27.3622L63.431 27.4104L63.3827 27.4587L63.3271 27.4958L63.2603 27.544L63.1303 27.6108L62.9819 27.6776L62.8223 27.7259L62.6441 27.763L62.4474 27.7927H62.2321L62.2247 27.7778ZM62.2247 27.158H62.3658L62.4957 27.1395L62.6182 27.1098L62.7295 27.0615L62.8223 27.0058L62.9077 26.9502L62.9745 26.8759L63.0301 26.8017L63.0673 26.7089L63.0969 26.5976L63.1155 26.4676V26.1299L63.0969 26.0445L63.0673 25.9703L63.0376 25.8961L63.0004 25.8293L62.9522 25.7736L62.8965 25.7179L62.8408 25.6697L62.774 25.6325L62.6998 25.5954L62.6256 25.5657L62.5328 25.5472L62.44 25.5286H62.2359V27.1877L62.2247 27.158ZM61.4824 27.158V25.4989H61.2671L61.1632 25.5175L61.0778 25.536L60.9925 25.5657L60.9182 25.6028L60.8626 25.6511L60.8069 25.6993L60.7512 25.755L60.7141 25.8218L60.677 25.8886L60.6473 25.9629L60.6176 26.0482V26.5233L60.6362 26.6087L60.6547 26.6829L60.6918 26.7572L60.729 26.824L60.7661 26.8796L60.8217 26.9353L60.8774 26.9836L60.9442 27.0318L61.0185 27.0615L61.1038 27.0912L61.1892 27.1209H61.4898L61.4824 27.158ZM65.4093 26.3786V26.1076L65.4278 25.9851L65.4464 25.8627L65.4649 25.7513L65.4946 25.64L65.5317 25.536L65.5689 25.4321L65.6357 25.3022L65.721 25.1723L65.8138 25.0498L65.9178 24.9273L66.0291 24.8234L66.1404 24.7306L66.2629 24.6564L66.3928 24.6007L66.4782 24.5636L66.571 24.5339L66.6638 24.5042L66.7566 24.4857L66.8605 24.4671H67.3838L67.5731 24.4857L67.7513 24.5339L67.9183 24.5896L68.0779 24.6564L68.2264 24.7492L68.3674 24.8531L68.4899 24.9644L68.5455 25.0313L68.6012 25.0981L68.6569 25.1723L68.7052 25.2465L68.7534 25.3208L68.7905 25.4061L68.8276 25.4915L68.8573 25.5769L68.913 25.755L68.9501 25.9517L68.9798 26.1596V26.6013L68.9501 26.8091L68.913 26.9984L68.8573 27.1766L68.8276 27.2694L68.7905 27.3547L68.7534 27.429L68.7052 27.5032L68.6569 27.5774L68.6087 27.6517L68.553 27.7185L68.4862 27.7853L68.3637 27.8966L68.2226 28.0005L68.0816 28.0933L67.922 28.1601L67.755 28.2158L67.5768 28.2529L67.3875 28.2826H66.983L66.8085 28.2084L66.6304 28.1713L66.4634 28.1156L66.378 28.0859L66.3038 28.0488L66.2295 28.0005L66.1553 27.9634L66.0885 27.9078L66.0143 27.8595L65.9586 27.8038L65.8918 27.737L65.8361 27.6702L65.7804 27.6034L65.7247 27.5366L65.6951 27.4661L65.6579 27.3918L65.6097 27.3065L65.5726 27.2211L65.5429 27.1357L65.4872 26.9576L65.4501 26.7683L65.4315 26.5604V26.3452L65.4093 26.3786ZM66.1776 26.36V26.5085L66.1961 26.6495L66.2147 26.7794L66.2518 26.9093L66.2889 27.0207L66.3372 27.1246L66.404 27.2174L66.4708 27.3028L66.545 27.377L66.6192 27.4438L66.7046 27.4995L66.7974 27.5477L66.8902 27.5848L66.9941 27.6145H67.4172L67.5212 27.5848L67.6139 27.5477L67.6993 27.4995L67.7847 27.4438L67.87 27.377L67.9443 27.3028L68.0111 27.2174L68.0668 27.1246L68.115 27.0207L68.1521 26.9093L68.1892 26.7794L68.2078 26.6495L68.2264 26.5011V26.193L68.2078 26.052L68.1892 25.922L68.1595 25.7921L68.1113 25.6808L68.063 25.5769L68.0074 25.4841L67.9406 25.3987L67.8738 25.3319L67.7884 25.2651L67.703 25.2094L67.6177 25.1612L67.5249 25.1315L67.4209 25.1018H66.983L66.8791 25.1315L66.7863 25.1686L66.6935 25.2057L66.6081 25.2614L66.5339 25.3282L66.4596 25.4024L66.3928 25.4878L66.3372 25.5806L66.2889 25.6845L66.2518 25.7958L66.2147 25.9183L66.1961 26.0594L66.1776 26.2004V26.3526V26.36ZM70.7057 28.2158V24.4968H72.4687L72.6654 24.5153L72.7953 24.545L72.8696 24.5636L72.9438 24.5933L73.018 24.6304L73.0848 24.6787L73.1516 24.7269L73.2073 24.7826L73.2741 24.8383L73.3298 24.9051L73.378 24.9793L73.4263 25.0535L73.456 25.1389L73.4894 25.2391L73.5079 25.3319L73.5265 25.4358V25.8107L73.4968 25.9592L73.4782 26.026L73.4597 26.0928L73.43 26.1596L73.4003 26.2153L73.3335 26.3266L73.2593 26.4194L73.1739 26.5048L73.0885 26.579L72.9957 26.6347L72.8918 26.6903L72.799 26.7275L72.7062 26.7572L72.5578 26.7757L72.3796 26.7943H71.4443V28.1898H70.702L70.7057 28.2158ZM71.448 25.15V26.1893H72.2237L72.3536 26.1707L72.439 26.141L72.5132 26.1113L72.58 26.0631L72.6283 26.0148L72.6765 25.9592L72.7137 25.8924L72.7434 25.8255L72.7619 25.7513V25.5732L72.7471 25.4618L72.71 25.3764L72.6617 25.3096L72.5986 25.2391L72.5244 25.1909L72.4501 25.1612L72.3648 25.1315H71.4629L71.448 25.15ZM75.1967 28.2158V24.4968H76.3102L76.9857 27.017L77.6501 24.4968H78.7635V28.2084H78.0918V25.3022L77.3494 28.2084H76.6294L75.8871 25.3022V28.2084H75.193L75.1967 28.2158ZM83.982 28.2158H83.1655L82.8463 27.3733H81.3617L81.0536 28.2158H80.2667L81.6994 24.5042H82.4974L83.982 28.2158ZM82.6199 26.7238L82.1151 25.3542L81.6103 26.7238H82.6236H82.6199ZM85.5372 24.4968H86.2795V27.57H87.7233V24.4968H88.4656V27.57H88.7737V28.9953H88.1539V28.1898H85.5298V24.4968H85.5372ZM90.4031 24.4968H91.1454V28.2084H90.4031V24.4968ZM93.0012 24.4968H93.6953V26.9539L95.1799 24.4968H95.9222V28.2084H95.2281V25.7996L93.7435 28.2084H93.0012V24.4968ZM94.9127 23.5763H95.2578V23.6617L95.2393 23.7359L95.2207 23.8101L95.191 23.8769L95.1539 23.9438L95.1168 24.0106L95.0797 24.0662L95.0166 24.1256L94.9609 24.1739L94.9052 24.211L94.8496 24.2481L94.7753 24.2778L94.7085 24.2964L94.6343 24.3149H94.3188L94.2446 24.2964L94.1778 24.2778L94.111 24.2481L94.0441 24.211L93.9885 24.1739L93.9328 24.1256L93.8845 24.0774L93.8363 24.0217L93.7992 23.9549L93.7621 23.8881L93.7324 23.8213L93.7138 23.747L93.6953 23.6728V23.5874H94.0404L94.059 23.6728L94.0775 23.7396L94.1147 23.8064L94.1629 23.8621L94.2297 23.8992L94.304 23.9289L94.3893 23.9475H94.5786L94.664 23.9289L94.7382 23.8992L94.805 23.8621L94.8533 23.8064L94.8904 23.7396L94.9201 23.6728V23.5874L94.9127 23.5763ZM97.8374 28.1898V24.4968H98.5797V25.948H100.042V24.4968H100.784V28.2084H100.042V26.5753H98.5797V28.1861H97.8374V28.1898ZM102.692 28.1898V24.4968H105.431V25.124H103.446V25.9406H105.301V26.5604H103.446V27.5737H105.509V28.1936H102.696L102.692 28.1898ZM113.482 28.1898H112.676L112.35 27.3473H110.865L110.557 28.1898H109.789L111.221 24.4782H112.019L113.504 28.1898H113.482ZM112.123 26.7238L111.607 25.3542L111.11 26.7238H112.123ZM115.059 24.4968H117.572V25.1166H115.801V28.1898H115.059V24.4968ZM119.082 28.2084V24.4968H121.829V25.124H119.832V25.9406H121.688V26.5604H119.832V27.5737H121.896V28.1936H119.082V28.2084ZM123.666 28.2084V24.4968H124.409V25.948H125.871V24.4968H126.613V28.2084H125.871V26.5753H124.409V28.1861H123.666V28.2084ZM129.356 28.2084V25.1426H128.243V24.4968H131.179V25.124H130.091V28.1898H129.349L129.356 28.2084ZM135.18 26.8499L135.9 27.0838L135.851 27.2248L135.803 27.3659L135.736 27.4883L135.67 27.6108L135.603 27.7148L135.517 27.8187L135.432 27.904L135.339 27.9783L135.235 28.0525L135.131 28.1082L135.02 28.1564L134.898 28.2047L134.775 28.2344L134.634 28.2641H134.178L134.01 28.2344L133.843 28.1973L133.695 28.1416L133.547 28.0748L133.406 27.9894L133.276 27.8855L133.153 27.763L133.097 27.6962L133.042 27.6294L132.994 27.5626L132.945 27.4883L132.875 27.3176L132.808 27.158L132.76 26.9799L132.723 26.7831L132.693 26.5864V26.1559L132.723 25.9406L132.76 25.7439L132.808 25.5546L132.845 25.4692L132.875 25.3839L132.923 25.2985L132.96 25.2243L133.008 25.15L133.064 25.0758L133.112 25.009L133.179 24.9422L133.302 24.8197L133.431 24.7158L133.573 24.623L133.721 24.5562L133.881 24.5005L134.059 24.4634L134.237 24.4337H134.593L134.731 24.4597L134.879 24.4894L135.02 24.5376L135.15 24.5933L135.272 24.6601L135.395 24.7455L135.506 24.8383L135.562 24.9051L135.618 24.9719L135.673 25.0461L135.722 25.1315L135.77 25.2168L135.807 25.3096L135.844 25.4136L135.881 25.5175L135.139 25.6956L135.12 25.6288L135.102 25.562L135.072 25.4952L135.035 25.4395L134.998 25.3839L134.961 25.3356L134.912 25.2874L134.864 25.2391L134.808 25.202L134.753 25.1649L134.697 25.1352L134.63 25.1166L134.564 25.0981L134.497 25.0795H134.163L134.07 25.1092L133.985 25.1389L133.91 25.176L133.836 25.2317L133.762 25.2874L133.695 25.3616L133.639 25.4358L133.584 25.5286L133.535 25.6325L133.498 25.7439L133.469 25.8664L133.45 26.0074V26.6347L133.469 26.7757L133.498 26.9056L133.535 27.0281L133.584 27.132L133.632 27.2248L133.699 27.3102L133.766 27.377L133.832 27.4438L133.907 27.4921L133.981 27.5403L134.066 27.57L134.159 27.5997H134.56L134.627 27.5811L134.693 27.5514L134.749 27.5143L134.805 27.4772L134.86 27.4401L134.916 27.3844L134.964 27.3287L135.001 27.2619L135.05 27.1951L135.102 27.0949L135.131 27.0095L135.161 26.9168L135.191 26.824L135.18 26.8499ZM138.375 28.2084V25.1426H137.262V24.4968H140.205V25.124H139.092V28.1898H138.349L138.375 28.2084ZM141.835 24.4968H143.839L143.969 24.5153L144.073 24.5339L144.165 24.571L144.258 24.6081L144.351 24.6638L144.425 24.7306L144.499 24.7974L144.566 24.8828L144.633 24.9756L144.681 25.0795L144.718 25.1834L144.737 25.2948V25.536L144.707 25.6585L144.67 25.7699L144.603 25.8812L144.529 25.9851L144.436 26.0705L144.344 26.1447L144.232 26.2115L144.306 26.2301L144.392 26.2672L144.459 26.3043L144.525 26.3415L144.592 26.3786L144.648 26.4342L144.704 26.4825L144.752 26.5382L144.789 26.605L144.826 26.6607L144.863 26.7275L144.882 26.8017L144.911 26.8685V27.2248L144.893 27.3473L144.856 27.4698L144.807 27.5923L144.741 27.7036L144.666 27.8075L144.581 27.8929L144.488 27.9783L144.377 28.034L144.254 28.0896L144.125 28.1267L143.984 28.1453H141.827V24.4968H141.835ZM142.577 25.1055V25.9814H143.605L143.69 25.9629L143.776 25.9332L143.842 25.8961L143.909 25.8478L143.958 25.7921L143.995 25.7253L144.01 25.6103V25.4507L143.991 25.3764L143.961 25.3096L143.913 25.254L143.865 25.1983L143.798 25.1612L143.724 25.1426L143.631 25.124H142.569L142.577 25.1055ZM142.577 26.5901V27.5848H143.783L143.857 27.5663L143.932 27.5366L144.01 27.4661L144.065 27.4178L144.113 27.351L144.143 27.2768L144.162 27.1914V27.0133L144.143 26.9464L144.113 26.8722L144.084 26.8165L144.035 26.7609L143.98 26.7126L143.913 26.6755L143.839 26.6458L143.746 26.6161H142.581L142.577 26.5901ZM146.411 26.3749V25.9814L146.429 25.8589L146.459 25.7476L146.489 25.6362L146.519 25.5323L146.567 25.4284L146.634 25.2985L146.719 25.1686L146.804 25.0461L146.908 24.9236L147.02 24.8197L147.142 24.7269L147.265 24.6527L147.387 24.597L147.48 24.5599L147.565 24.5302L147.658 24.5005L147.762 24.4819L147.866 24.4634H148.393L148.582 24.4819L148.76 24.5302L148.927 24.5859L149.087 24.6527L149.228 24.7455L149.369 24.8494L149.499 24.9607L149.555 25.0275L149.61 25.0944L149.659 25.1686L149.714 25.2428L149.751 25.3171L149.8 25.4024L149.829 25.4878L149.866 25.5732L149.922 25.7513L149.959 25.948L149.978 26.1559V26.5976L149.959 26.8054L149.922 26.9947L149.866 27.1729L149.8 27.351L149.714 27.4995L149.666 27.5737L149.61 27.6479L149.555 27.7148L149.499 27.7816L149.432 27.8372L149.365 27.8929L149.299 27.9486L149.232 27.9968L149.083 28.0896L148.924 28.1564L148.764 28.2121L148.586 28.2492L148.397 28.2789H147.992L147.803 28.2492L147.613 28.2121L147.446 28.1564L147.372 28.1267L147.298 28.0896L147.213 28.0414L147.146 28.0043L147.072 27.9486L147.005 27.9003L146.938 27.8447L146.882 27.7778L146.815 27.711L146.76 27.6442L146.712 27.5774L146.663 27.5032L146.615 27.429L146.578 27.3436L146.541 27.2582L146.511 27.1729L146.455 26.9947L146.418 26.8054L146.4 26.5976V26.3823L146.411 26.3749ZM147.179 26.3563V26.5048L147.198 26.6458L147.216 26.7757L147.246 26.9056L147.294 27.017L147.35 27.0949L147.406 27.1877L147.48 27.2731L147.554 27.3473L147.628 27.4141L147.714 27.4698L147.806 27.518L147.899 27.5552L147.992 27.5848H148.423L148.515 27.5552L148.608 27.518L148.701 27.4698L148.786 27.4141L148.861 27.3473L148.935 27.2731L149.002 27.1877L149.068 27.0949L149.117 26.991L149.154 26.8796L149.183 26.7497L149.213 26.6198V26.0223L149.183 25.8924L149.154 25.7624L149.117 25.6511L149.068 25.5472L149.013 25.4544L148.946 25.369L148.872 25.3022L148.797 25.2354L148.712 25.1797L148.619 25.1315L148.527 25.1018L148.423 25.0721H147.992L147.888 25.1018L147.795 25.1389L147.703 25.176L147.617 25.2317L147.532 25.2985L147.465 25.3727L147.398 25.4581L147.331 25.5509L147.283 25.6548L147.246 25.7662L147.216 25.8886L147.187 26.0297V26.3526L147.179 26.3563ZM74.6029 9.36454L71.4703 14.6907L75.1819 19.7162H72.2126L70.3568 16.81L68.7052 19.7162H65.6951L65.7878 19.5566L66.0588 19.1446L66.4634 18.5248L66.9607 17.7825L67.4952 16.9474L68.0371 16.1048L68.5418 15.3068L68.965 14.6128L65.6245 9.37196H68.2226L70.3048 12.6827L72.0567 9.37196H74.6029V9.36454ZM61.6754 18.9813L61.5455 19.1112L61.4045 19.2337L61.256 19.3376L61.1075 19.4416L60.9591 19.5269L60.792 19.6012L60.625 19.6568L60.4469 19.7125L60.2576 19.7608L60.0683 19.7979L59.8716 19.8276L59.6637 19.8461H58.142L57.8599 19.8276L57.589 19.7905L57.3254 19.7422L57.073 19.694L56.8207 19.6271L56.5868 19.5529L56.353 19.4787L56.1266 19.3859L55.9187 19.2931L55.7109 19.1892L55.5142 19.0778L55.336 18.9553L55.1579 18.8254L54.9908 18.6955L54.8312 18.5656L54.6902 18.4172L54.5603 18.2613L54.4304 18.1017L54.3079 17.9532L54.204 17.7936L54.1001 17.6266L54.0147 17.4596L53.9293 17.2925L53.8625 17.1255L53.7957 16.9474L53.7475 16.7692L53.7104 16.6022L53.6807 16.424L53.6621 16.2459V16.0677L53.6807 15.8339L53.7104 15.6075L53.7475 15.3922L53.7957 15.1843L53.844 14.9765L53.9108 14.7798L53.985 14.6016L54.0592 14.4123L54.152 14.2453L54.2448 14.0857L54.3562 13.9261L54.4675 13.7776L54.59 13.6366L54.7199 13.4956L54.8609 13.3657L55.0094 13.2432L55.169 13.1318L55.3286 13.0205L55.4956 12.9166L55.6738 12.8238L55.8631 12.731L56.0449 12.6196L56.2416 12.5454L56.4495 12.4712L56.6648 12.4044L56.88 12.3375L57.1139 12.2819L57.3477 12.2336L57.5815 12.1854L57.8339 12.1371L58.0863 12.1074L58.3498 12.0703L58.5837 12.0517L58.8175 12.0332H59.6823L59.8901 12.0517L60.0868 12.0703L60.2947 12.1L60.4914 12.1297L60.6807 12.1668L60.8774 12.2039L61.2708 12.3078L61.6754 12.4192V12.1297L61.6568 11.9887L61.6123 11.8773L61.5752 11.7548L61.5195 11.6323L61.4453 11.521L61.3599 11.4171L61.3042 11.3688L61.256 11.3206L61.1892 11.2834L61.1224 11.2352L61.0556 11.1981L60.9813 11.1684L60.896 11.1313L60.8106 11.1016L60.6139 11.0533L60.3986 11.0162L60.1537 10.9976H54.9834L54.8424 11.0162L54.7125 11.0533L54.5826 11.1016L54.4712 11.1572L54.3599 11.2315L54.2559 11.3057L54.152 11.3911L54.0592 11.495L53.9739 11.5989L53.8885 11.7029L53.8143 11.8142L53.74 11.9367L53.6732 12.0592L53.6064 12.1891L53.5396 12.319L53.1685 13.039L52.8567 13.7331L52.5375 14.4272L52.248 15.1027L51.9622 15.7856L51.6727 16.45L51.3832 17.107L51.0937 17.7639L50.7856 18.4209L50.4664 19.0778L50.2994 19.4045L50.1212 19.7311L49.932 20.0688L49.7352 20.414L49.5385 20.7518L49.3307 21.0895L49.1043 21.4347L48.8779 21.7725L48.644 22.1436L48.3916 22.4888L48.1281 22.86L47.8572 23.2311L47.5491 23.5689L47.2411 23.8881L46.9219 24.1887L46.6027 24.4782L46.276 24.7492L45.9494 25.0016L45.6117 25.2465L45.2739 25.4804L44.9287 25.6956L44.5836 25.8924L44.2124 26.0816L43.8412 26.2598L43.4701 26.4268L43.0989 26.5753L42.7278 26.7163L42.3566 26.8462L41.9855 26.9687L41.6143 27.0726L41.2431 27.1766L40.872 27.2694L40.5008 27.3436L40.1297 27.4178L39.7585 27.4846L39.3873 27.5403L38.9939 27.5886L38.6005 27.6257L38.2071 27.6628L37.8136 27.6925L37.4202 27.711L37.0268 27.7296H36.0692L36.0395 27.711L36.0098 27.6925L35.9801 27.6739L35.9615 27.6442V27.403L35.9801 27.3473L36.0098 27.2805L36.1211 27.0467L36.2696 26.72L36.4181 26.3749L36.5591 26.0742L36.6074 25.9703L36.6742 25.8589L36.7224 25.7921L36.7707 25.7365L36.8189 25.6808L36.8857 25.6251L36.9525 25.5769L37.0379 25.5397L37.1233 25.5101L37.2161 25.4915H37.4388L37.5687 25.5101L37.7097 25.5472L37.9918 25.6325L38.2627 25.7179L38.5337 25.7847L38.7972 25.8515L39.0496 25.9072L39.302 25.9554L39.5358 25.9926L39.7808 26.0223L39.9738 25.9814L40.2002 26H40.6419L40.8497 25.9814L41.0576 25.9629L41.2543 25.9332L41.451 25.8961L41.6477 25.8478L41.8259 25.781L42.0151 25.7142L42.1933 25.64L42.3715 25.5546L42.5385 25.4618L42.7055 25.3505L42.8651 25.2391L43.0247 25.1092L43.1843 24.9793L43.3328 24.8308L43.4812 24.6712L43.6297 24.5116L43.7781 24.3335L43.9192 24.1368L44.0602 23.94L44.5019 23.0975L44.9065 22.3181L45.2776 21.6054L45.6154 20.9411L45.9346 20.3138L46.2352 19.7125L46.5173 19.1224L46.7994 18.5211L47.0703 17.9198L47.3524 17.2814L47.653 16.617L47.9537 15.897L48.2803 15.1175L48.6515 14.2564L49.0226 13.3174L49.4457 12.267L49.5014 12.126L49.5497 11.9961L49.5794 11.8736L49.5979 11.7622V11.4802L49.5794 11.4059L49.5497 11.3317L49.5014 11.2649L49.4532 11.2092L49.3975 11.161L49.3307 11.1127L49.2564 11.0645L49.1822 11.0348L49.0894 11.0051L48.9966 10.9754L48.8927 10.9568L48.7888 10.9383L48.6774 10.9197L48.4251 10.9011H46.5396L46.1684 10.9308L45.8232 10.968L45.4855 11.0236L45.1774 11.0904L44.8768 11.1647L44.6058 11.2575L44.3534 11.3503L44.1085 11.4616L43.8821 11.5729L43.6854 11.6954L43.4886 11.8253L43.3216 11.9664L43.162 12.1148L43.0136 12.2559L42.8837 12.4155L42.7612 12.5639L42.6572 12.7235L42.5645 12.8831L42.4791 13.0502L42.4049 13.2098L42.3121 13.3619L42.2564 13.5215L42.2081 13.6811L42.1785 13.8407L42.1488 13.9892L42.1302 14.1377V14.7946L42.2156 15.0841L42.3195 15.3477L42.3752 15.4776L42.4308 15.6L42.4865 15.7114L42.5533 15.8227L42.6276 15.9267L42.7018 16.0306L42.776 16.1345L42.8614 16.2273L42.9468 16.3127L43.0507 16.398L43.1435 16.4834L43.2474 16.5576L43.3587 16.6319L43.4812 16.6987L43.6037 16.7655L43.7336 16.8323L43.8635 16.888L44.012 16.9437L44.1604 16.9993L44.3089 17.0476L44.6467 17.1404L45.0178 17.2146L45.4224 17.2888L45.8529 17.3445H45.9197L45.994 17.3742L46.0608 17.4039L46.1164 17.441L46.135 17.4707V17.6266L46.1053 17.6637L46.0682 17.7008L45.8789 17.8493L45.6339 18.0571L45.3444 18.3095L45.0252 18.5805L44.706 18.8626L44.4165 19.1261L44.153 19.3599L43.9563 19.5381L43.9377 19.5566L43.9006 19.5863L43.845 19.6346L43.7967 19.6717L43.7485 19.6902L43.7002 19.7088H43.407L43.3513 19.6717L43.0878 19.5492L42.8354 19.4193L42.5904 19.2708L42.364 19.1224L42.1376 18.9628L41.9298 18.8032L41.7331 18.6361L41.5549 18.4691L41.3879 18.291L41.2283 18.1239L41.0798 17.9458L40.9499 17.7676L40.8274 17.6006L40.7235 17.4336L40.6196 17.274L40.5454 17.1144L40.4526 16.9065L40.3783 16.7098L40.3227 16.5205L40.2744 16.3238L40.2373 16.1345L40.2076 15.9452L40.189 15.7559V15.2066L40.2076 15.0285L40.2262 14.8392L40.2744 14.468L40.3412 14.0968L40.3709 13.9298L40.408 13.7628L40.4563 13.5846L40.5231 13.4065L40.5899 13.2172L40.6641 13.0205L40.7569 12.8312L40.8608 12.6345L40.9722 12.4378L41.0947 12.2299L41.2246 12.0332L41.3656 11.8365L41.5252 11.6398L41.6848 11.4505L41.863 11.2538L42.0523 11.0756L42.249 10.8863L42.4568 10.7193L42.6721 10.5523L42.9059 10.3927L43.1398 10.2331L43.3921 10.092L43.6557 9.96211L43.9266 9.83963L44.2087 9.72828L44.5093 9.62435L44.81 9.53899L45.1292 9.46475L45.4558 9.40908L45.7935 9.37196L46.1387 9.34227H50.266L50.3773 9.32371L50.4701 9.30515L50.5555 9.27546L50.6409 9.24577L50.7151 9.19752L50.7893 9.14927L50.8561 9.09359L50.9229 9.02678L50.9786 8.94142L51.0454 8.84863L51.309 8.33271L51.5613 7.82793L51.8063 7.33058L52.0401 6.85178L52.4818 5.94243L52.9049 5.08134L53.1128 4.67677L53.3281 4.28334L53.5433 3.91218L53.7697 3.54102L54.0036 3.20326L54.2485 2.87664L54.5009 2.55744L54.7644 2.26794L55.0539 1.98585L55.3546 1.72233L55.6812 1.47736L56.0264 1.25096L56.3975 1.0431L56.791 0.853813L57.2215 0.68679L57.6817 0.527191L58.1791 0.397284L58.7024 0.285936L59.274 0.193146L59.8753 0.118913L60.5211 0.0632392L61.2152 0.026123H62.7443L62.8557 0.0446811L62.9596 0.074374L63.0264 0.11149L63.0747 0.148606L63.1118 0.196857V0.300782L63.0932 0.367591L63.0376 0.490075L62.9522 0.631116L62.8594 0.761022L62.774 0.890929L62.6887 1.03197L62.6033 1.18043L62.5105 1.34003L62.4066 1.50706L62.2952 1.68521L62.1839 1.88193L62.0614 2.07864L61.9315 2.29392L61.7422 2.58342L61.5826 2.78014L61.5158 2.85437L61.449 2.92118L61.3933 2.9583L61.3451 2.98799H61.204L61.1558 2.9583L61.063 2.87293L60.9591 2.76158L60.8923 2.67621L60.818 2.60941L60.7438 2.55373L60.6584 2.49806L60.5731 2.44981L60.4877 2.41269L60.3949 2.37557L60.3021 2.34588L60.0943 2.29763L59.8679 2.26051L59.6155 2.2234L59.3334 2.18628H59.0068L58.8398 2.20484L58.6913 2.2234L58.5428 2.25309L58.3944 2.30134L58.2459 2.35702L58.1049 2.42382L57.9638 2.50919L57.8339 2.59456L57.6929 2.70591L57.563 2.81726L57.4331 2.94716L57.3106 3.09563L57.1807 3.25523L57.0582 3.43338L56.9357 3.62268L56.8132 3.83053L56.6908 4.05693L56.5683 4.29077L56.4458 4.55429L56.3233 4.81781L56.212 5.10732L56.0895 5.41538L55.9781 5.74201L55.8556 6.07976L55.7332 6.45092L55.6107 6.82209L55.3769 7.64606L55.1245 8.53685L55.1059 8.61108V9.02307L55.1356 9.08988L55.1653 9.14555L55.2024 9.19381L55.2581 9.23092L55.3249 9.26062L55.3991 9.27917H61.4861L61.694 9.30887L61.9018 9.34598L62.1097 9.39423L62.3249 9.46104L62.5402 9.52785L62.7481 9.61322L62.9559 9.71714L63.1638 9.82107L63.3605 9.95097L63.5498 10.0809L63.7279 10.2293L63.8393 10.3927L63.9246 10.4854L63.9989 10.5708L64.0657 10.6747L64.1399 10.7675L64.2624 10.9754L64.3663 11.1832L64.4517 11.3911L64.5259 11.5989L64.5816 11.8031L64.6298 12.0183L64.6669 12.2448L64.6966 12.4712L64.7152 12.7161L64.7338 12.9611V19.7199H61.668V18.9776L61.6754 18.9813ZM61.6754 17.7899V14.0783L61.4676 13.9744L61.2597 13.889L61.0444 13.8148L60.8292 13.748L60.6028 13.6997L60.3764 13.6626L60.1499 13.6329L59.9235 13.6143H59.2555L59.0402 13.644L58.8249 13.6811L58.6171 13.7183L58.4092 13.7739L58.2014 13.8407L58.0121 13.9076L57.8228 13.9929L57.6446 14.0857L57.4776 14.1785L57.318 14.2824L57.1695 14.4049L57.0285 14.5274L56.906 14.6499L56.7947 14.7909L56.6908 14.932L56.6054 15.0916L56.5386 15.24L56.4829 15.407L56.4458 15.5741L56.4161 15.7522V15.9601L56.4347 16.1382L56.4718 16.3053L56.52 16.4723L56.5757 16.6319L56.6499 16.7915L56.7427 16.9325L56.8355 17.0736L56.9468 17.2035L57.0693 17.3259L57.1992 17.4484L57.3403 17.5524L57.4887 17.6563L57.6558 17.7491L57.8228 17.8344L57.9898 17.9087L58.1791 17.9829L58.3684 18.0386L58.5651 18.0868L58.773 18.1351L58.9808 18.1648L59.1886 18.1945H60.072L60.2984 18.1648L60.5248 18.1277L60.7586 18.0794L60.9851 18.0312L61.2115 17.9569L61.4379 17.8827L61.6643 17.7973L61.6754 17.7899ZM37.2272 11.7066V9.35341H34.2839V19.7125H37.2272V14.0041L37.3571 13.7962L37.5167 13.5884L37.6837 13.3916L37.8619 13.1949L38.0586 13.0168L38.2664 12.8386L38.4743 12.6716L38.7007 12.5046L38.9271 12.3561L39.1535 12.2076L39.3873 12.0777L39.6212 11.9478L39.8661 11.8253L40.1 11.7214L40.3338 11.6175L40.5602 11.5321L40.5899 11.3057L40.6196 11.0719L40.6493 10.8084L40.679 10.5374L40.7161 10.2553L40.7532 9.95469L40.7903 9.66518L40.82 9.36454L40.6716 9.40166L40.5231 9.44991L40.3746 9.50558L40.2262 9.56126L39.9552 9.68374L39.6843 9.81365L39.4319 9.95469L39.1869 10.1032L38.9531 10.2628L38.7267 10.4298L38.5114 10.5968L38.3147 10.7638L38.118 10.9234L37.9287 11.0904L37.5575 11.4096L37.2309 11.6991L37.2272 11.7066ZM33.1964 16.0751L33.1667 16.1605L33.0739 16.3943L33.0071 16.5539L32.9143 16.7507L32.8104 16.9585L32.6879 17.1849L32.5395 17.4299L32.3799 17.6823L32.2017 17.9347L31.9939 18.1982L31.8825 18.3281L31.7712 18.4506L31.6487 18.5805L31.5262 18.703L31.3963 18.8254L31.2664 18.9479L31.1254 19.0593L30.9769 19.1706L30.8062 19.3005L30.6391 19.4119L30.461 19.5047L30.2828 19.5975L30.1047 19.6902L29.9154 19.7645L29.7261 19.8387L29.5294 19.9055L29.3327 19.9612L29.1359 20.0094L28.9281 20.0577L28.7202 20.0874L28.505 20.1171L28.2897 20.1356H27.54L27.2319 20.1171L26.9313 20.08L26.6418 20.0317L26.3523 19.9686L26.0702 19.8832L25.8067 19.7979L25.5431 19.6865L25.2907 19.5641L25.0458 19.4341L24.8119 19.2857L24.5781 19.1261L24.3628 18.9479L24.1476 18.7586L23.9509 18.5508L23.7541 18.3244L23.5871 18.1165L23.4275 17.9087L23.2791 17.6934L23.1492 17.467L23.0267 17.2332L22.9042 17.0068L22.8003 16.7618L22.7149 16.5168L22.6295 16.2644L22.5553 16.012L22.4996 15.7596L22.4514 15.4887L22.4143 15.2252L22.3846 14.9431L22.366 14.661V14.0894L22.3846 13.7999L22.4143 13.5178L22.4514 13.2469L22.4996 12.9759L22.5553 12.7124L22.6295 12.4489L22.7149 12.1965L22.8003 11.9515L22.9116 11.7066L23.023 11.4727L23.1454 11.2463L23.2865 11.0199L23.4275 10.8046L23.5871 10.5968L23.7541 10.3927L23.9434 10.1774L24.1513 9.98067L24.3591 9.79138L24.5855 9.62435L24.8119 9.46475L25.0458 9.31629L25.2907 9.18638L25.5431 9.07504L25.8067 8.97111L26.0702 8.87832L26.3523 8.80409L26.6343 8.73728L26.935 8.68903L27.2356 8.65191L27.5437 8.63335H28.1598L28.4604 8.66305L28.7499 8.70016L29.032 8.74841L29.303 8.82265L29.5739 8.89688L29.8263 9.0008L30.0713 9.11215L30.3162 9.23463L30.5426 9.37568L30.769 9.52414L30.9843 9.69116L31.1922 9.86932L31.3889 10.066L31.5782 10.2739L31.7675 10.5003L31.8899 10.6673L32.0124 10.8455L32.1163 11.0236L32.2203 11.2129L32.3131 11.4022L32.3873 11.5915L32.4615 11.7882L32.5283 11.9849L32.5951 12.1742L32.6434 12.3709L32.6916 12.5602L32.7288 12.757L32.7956 13.1281L32.8438 13.4993L32.8735 13.837V14.661L32.8549 14.9988V15.1287H25.0606L25.0977 15.3625L25.146 15.5963L25.2128 15.8116L25.2982 16.0269L25.391 16.2422L25.4949 16.45L25.6174 16.6467L25.7473 16.836L25.8512 16.9659L25.9551 17.0773L26.0665 17.1886L26.1778 17.2925L26.2892 17.3853L26.4116 17.4707L26.5415 17.5449L26.6715 17.6192L26.8014 17.6748L26.9424 17.7305L27.0909 17.7788L27.2393 17.8085L27.3878 17.8456L27.5474 17.8641H28.2563L28.4345 17.8344L28.5792 17.8159L28.7388 17.7788L28.8873 17.7416L29.0283 17.686L29.1693 17.6192L29.3364 17.5264L29.496 17.4225L29.6444 17.3111L29.7855 17.1886L29.9154 17.0587L30.0267 16.9362L30.1381 16.8063L30.2309 16.6838L30.3793 16.45L30.4907 16.2607L30.5649 16.1382L30.5835 16.09H33.1816L33.1964 16.0751ZM25.2388 12.8423H30.2086L30.1715 12.6939L30.1232 12.5454L30.0676 12.3969L30.0119 12.2559L29.9451 12.1148L29.8597 11.9738L29.7669 11.8439L29.663 11.714L29.5776 11.6212L29.4848 11.5284L29.392 11.443L29.2993 11.3688L29.1953 11.2946L29.0914 11.2278L28.9801 11.1721L28.8761 11.1164L28.7537 11.0682L28.6423 11.0311L28.5198 10.9939L28.3973 10.9642L28.2674 10.9457L28.145 10.9271H27.6031L27.4732 10.9457L27.3432 10.9642L27.2208 10.9828L27.0983 11.0125L26.9758 11.0496L26.8533 11.0979L26.742 11.135L26.6306 11.1907L26.5267 11.2463L26.4153 11.3131L26.3114 11.3799L26.2186 11.4542L26.1147 11.5395L26.0219 11.6249L25.892 11.7548L25.7695 11.8847L25.6582 12.0258L25.5543 12.1742L25.4689 12.3338L25.3835 12.5009L25.3093 12.6679L25.2425 12.846L25.2388 12.8423ZM20.1947 9.75055V6.24307L17.2514 7.07819V9.75055H15.2917V12.0183H17.2514V19.7051H20.1947V12.0183H22.0988V9.75055H20.1947ZM7.39719 10.9865V9.42021H4.82506V19.7125H7.59019V13.9261L7.61988 13.618L7.64958 13.336L7.68669 13.091L7.72381 12.8831L7.77948 12.705L7.83516 12.5454L7.90197 12.3969L7.98733 12.267L8.08012 12.126L8.18404 12.0035L8.29539 11.8921L8.4253 11.7808L8.5552 11.6769L8.70367 11.5915L8.9078 11.5061L9.05627 11.4393L9.21587 11.3837L9.38289 11.3465L9.54991 11.3168L9.71693 11.2983H10.166L10.2959 11.3168L10.4184 11.3465L10.5298 11.3837L10.6411 11.4319L10.7525 11.4876L10.8564 11.5544L10.9492 11.6286L11.0345 11.7029L11.1199 11.7882L11.1941 11.881L11.2609 11.9738L11.3278 12.0852L11.3834 12.1891L11.4317 12.3116L11.4688 12.4526L11.5059 12.6196L11.543 12.8349L11.5616 13.0873L11.5801 13.3694L11.5987 13.696V19.7199H14.3638V12.5157L14.3453 12.2819L14.3267 12.0555L14.297 11.8587L14.2673 11.6695L14.2302 11.5024L14.1931 11.3428L14.1374 11.1944L14.0818 11.0459L14.0149 10.9049L13.9481 10.7638L13.8628 10.6228L13.7774 10.4929L13.6846 10.363L13.5807 10.2405L13.4693 10.1291L13.3394 10.0178L13.2095 9.91386L13.0611 9.80993L12.9015 9.71714L12.7233 9.62435L12.5452 9.53899L12.3484 9.46475L12.1517 9.39794L11.9439 9.34227L11.7286 9.27917H11.5059L11.2906 9.24948L11.0642 9.23092H10.5743L10.3219 9.24948L10.077 9.27917L9.83199 9.33485L9.59816 9.39052L9.37175 9.46475L9.14535 9.55754L8.93007 9.66147L8.7148 9.78395L8.50695 9.91386L8.2991 10.0549L8.10239 10.2145L7.9131 10.3815L7.72381 10.5708L7.54565 10.7787L7.3675 10.9939L7.39719 10.9865ZM0 6.33586H2.64265V8.79295H0V6.33586ZM2.64265 9.34598V19.7051H0V9.34598H2.63523H2.64265Z" fill="#00A0A6"/>
</svg>
