<svg width="125" height="125" viewBox="0 0 125 125" fill="none" xmlns="http://www.w3.org/2000/svg">
<path d="M111.093 58.2488C106.271 58.2488 102.357 62.1567 102.357 66.979C102.357 67.5277 102.411 68.0581 102.515 68.5763H106.917C106.728 68.0825 106.618 67.546 106.618 66.979C106.618 64.5099 108.624 62.5103 111.093 62.5103C113.568 62.5103 115.568 64.5099 115.568 66.979C115.568 69.4542 113.568 71.4539 111.093 71.4539C110.538 71.4539 110.002 71.3442 109.508 71.1613V75.563C110.02 75.6605 110.55 75.7154 111.093 75.7154C112.953 75.7154 114.416 75.0448 115.739 73.6425V75.6544H119.829V66.979C119.829 62.1567 115.915 58.2488 111.093 58.2488ZM79.5859 58.072C74.7148 58.072 70.7703 62.0225 70.7703 66.8937C70.7703 67.4424 70.8189 67.985 70.9163 68.5032H75.3668C75.1779 68.0033 75.0743 67.4607 75.0743 66.8937C75.0743 64.3941 77.0984 62.3761 79.5858 62.3761C82.0793 62.3761 84.1095 64.3941 84.1095 66.8937C84.1095 69.3872 82.0793 71.4112 79.5858 71.4112C79.0249 71.4112 78.4823 71.3015 77.9885 71.1125V75.563C78.5067 75.6605 79.0432 75.7154 79.5858 75.7154C84.457 75.7154 88.4136 71.7648 88.4136 66.8937C88.4136 62.0226 84.4571 58.072 79.5859 58.072ZM32.8677 66.8937V58.072H28.5635V66.8937C28.5635 67.4424 28.6122 67.985 28.7157 68.5032H33.1662C32.9711 68.0033 32.8677 67.4607 32.8677 66.8937ZM41.3052 58.072V66.8937C41.3052 69.3872 39.2812 71.4112 36.7876 71.4112C36.2206 71.4112 35.6842 71.3015 35.1842 71.1125V75.563C35.7024 75.6605 36.2389 75.7154 36.7876 75.7154C41.6588 75.7154 45.6094 71.7648 45.6094 66.8937V58.072L41.3052 58.072ZM59.0706 58.072C57.4368 58.072 55.9126 58.517 54.6019 59.2913V51H50.2001V68.5032H54.8518C54.6629 68.0033 54.5532 67.4607 54.5532 66.8937C54.5532 64.3941 56.5712 62.3762 59.0708 62.3762C61.5643 62.3762 63.5883 64.3941 63.5883 66.8937C63.5883 69.3872 61.5643 71.4112 59.0708 71.4112C58.5038 71.4112 57.9673 71.3015 57.4674 71.1125V75.563C57.9856 75.6606 58.516 75.7154 59.0708 75.7154C63.9419 75.7154 67.8864 71.7649 67.8864 66.8937C67.8864 62.0226 63.9418 58.072 59.0706 58.072ZM28.5818 51H22.9851L11.7796 63.3577L22.9851 75.7093H28.5818L17.4128 63.3577L28.5818 51ZM100.68 58.072H96.3514V51H91.9557V75.6544H96.3514V62.4737H100.68V58.072ZM10.3896 68.5276H6V51H10.3896V68.5276Z" fill="#2C3333"/>
</svg>
