<svg width="128" height="35" viewBox="0 0 128 35" fill="none" xmlns="http://www.w3.org/2000/svg">
<path d="M79.4 33.9H76.3L77 30.7H80.1L79.4 33.9ZM82.4 33.9L84.8 22.4H87.7L87.4 24.1H87.5C88 23.6 88.5 23.1 89.1 22.7C89.9 22.3 90.7 22.1 91.6 22.1C92.2 22.1 93.3 22.2 94.1 23C94.6 23.6 94.9 24.4 94.8 25.2C94.8 25.6 94.7 25.9 94.7 26.2L93.1 33.9H90.1L91.5 26.9C91.6 26.6999 91.6 26.4 91.6 26.2C91.6 25.8 91.5 25.2999 91.1 25C90.8 24.7 90.4 24.6 89.9 24.6C89.2 24.6 88.5 24.7999 87.9 25.2999C87 26 86.7 26.9 86.5 27.7L85.2 33.9H82.3H82.4ZM99 29.2999C98.9 29.5 98.9 29.5999 98.9 29.7999C98.9 30.4 99.2 31 99.7 31.4C100.3 31.7999 101.1 32 101.9 32C102.6 32 103.2 31.9 103.9 31.7C104.5 31.6 105.1 31.4 105.7 31.2L105.2 33.5C103.9 34 102.6 34.2 101.2 34.2C99.8 34.2 98.2 33.9 97.2 33C96.5 32.4 95.8 31.2999 95.8 29.4C95.8 27.6 96.5 25.7999 97.8 24.5C99.2 23.1 101 22.2999 103 22.2999C104.8 22.2999 105.8 23 106.4 23.7C106.9 24.3 107.4 25.3 107.4 26.7C107.4 27.3 107.3 27.9 107.2 28.5L107.1 29.4H99.1V29.2999H99ZM104.1 27C104.2 26.7999 104.2 26.5 104.2 26.2999C104.2 25.7999 104.1 25.2999 103.8 24.9C103.5 24.6 103.1 24.2999 102.3 24.2999C101.6 24.2999 100.9 24.6 100.4 25.2C99.9 25.7 99.6 26.2999 99.4 27H104.1ZM108.2 24.4L108.6 22.5H110.4L110.9 19.9L113.9 19.6L113.2 22.6H115.9L115.5 24.5H113L111.9 30C111.8 30.2999 111.8 30.7 111.8 31C111.8 31.2999 111.9 31.5999 112.1 31.7999C112.4 32 112.7 32.0999 113 32.0999C113.4 32.0999 113.9 32 114.3 31.9L113.8 34.0999C113.1 34.2999 112.3 34.3 111.6 34.4C110.7 34.4 109.9 34.2 109.4 33.7C108.9 33.2 108.6 32.6 108.7 31.9C108.7 31.5 108.7 31.1999 108.8 30.7999L110 24.6H108.4L108.2 24.4Z" fill="#EA4949"/>
<path d="M39.9 17.7999L36.8 34H30.8L33.1 22.2999H30.2L29.7 25C28.9 28.9 28.3 33.9 22.4 33.9C21.4 33.9 20.4 33.7999 19.4 33.5L20.2 29.5C20.6 29.6 21.1 29.6 21.5 29.6C22.2 29.6 22.8 29.2 23.1 28.6C23.4 28.1 23.9 27 24.7 22.9L25.8 17.5999H39.9V17.7999ZM48.1 17.7999H42.2L41.3 22.5H47.3L48.1 17.7999ZM39.3 32.0999L39 34H45L47.2 23C42 23.6 40.2 27.4999 39.3 32.0999ZM74.4 34H68.1L67.7 30.6H63L61.3 34H55.3L64 17.7999H72.1L74.4 34ZM67.8 26.7L67.2 21.7999H67.1L64.5 26.7H67.8ZM59.4 22.5L61.8 17.7999H50.4L47.2 34H53.2L55.5 22.5H59.4Z" fill="#EA4949"/>
<path d="M9.00003 23.7C7.80003 23.5 6.60003 23.1 5.50003 22.4C8.20003 22.2999 12.1 21.2 12.7 18.1C12.8 17.8 12.8 17.4 12.7 17.1C15.3 17 19.5 15.9 20.1 12.8C20.6 9.99995 17.1 8.99995 16.2 6.79995C15.9 5.99995 15.9 4.49995 16.6 3.89995C20.4 6.19995 22.4 10.6 21.7 15C20.4 20.7999 14.9 24.7 9.00003 23.7ZM5.20003 22.2999C0.100031 19.1999 -1.49997 12.5 1.60003 7.29995C3.90003 3.49995 8.30003 1.49995 12.7 2.29995C13.9 2.49995 15.1 2.99995 16.2 3.59995C13.6 3.69995 9.70003 4.79995 9.20003 7.89995C9.00003 8.19995 9.00003 8.59995 9.10003 8.89995C6.40003 8.99995 2.30003 9.99995 1.70003 13.2C1.20003 16.1 4.70003 17 5.60003 19.2C5.90003 20.1 5.90003 21.5999 5.20003 22.2999ZM9.20003 9.09995C9.70003 11.1 12.4 12.1 13.1 14C13.4 14.8 13.4 16.4 12.6 17C12.1 15 9.40003 14 8.70003 12.1C8.40003 11.2 8.40003 9.79995 9.20003 9.09995Z" fill="#EA4949"/>
</svg>
