<svg width="125" height="125" viewBox="0 0 125 125" fill="none" xmlns="http://www.w3.org/2000/svg">
<path d="M92.4619 50.2627C92.2557 49.8548 91.8391 49.6004 91.383 49.6004H75.9361L74.2125 51.9731V52.0126H88.9795L72.5678 74.0952L64.2216 62.8719L82.6069 37.921C82.8789 37.557 82.9183 37.0658 82.7122 36.6623C82.5061 36.2588 82.0894 36 81.6377 36H43.639C43.1829 36 42.7663 36.2588 42.5601 36.6666C42.354 37.0745 42.3978 37.5614 42.6698 37.9298L51.301 49.539H33.9595C33.5034 49.539 33.0868 49.7978 32.8806 50.2057C32.6745 50.6135 32.7184 51.1004 32.9903 51.4688L51.9545 76.9065C52.1826 77.2135 52.5422 77.3933 52.9194 77.3933C52.9194 77.3933 52.9194 77.3933 52.9238 77.3933C53.3054 77.3933 53.665 77.2091 53.8931 76.9021L62.7305 64.9113L71.603 76.8451C71.831 77.1521 72.1907 77.3319 72.5722 77.3319C72.9538 77.3319 73.3134 77.1521 73.5415 76.8451L92.3522 51.5346C92.6241 51.1574 92.6636 50.6706 92.4619 50.2627ZM52.915 74.1522L36.363 51.9468H53.0948L61.2217 62.8763L52.915 74.1522ZM62.7217 60.8457L56.086 52.0302H67.4847L69.2522 49.5302H54.3097L46.0424 38.4078H79.2562L62.7217 60.8457Z" fill="#2C3333"/>
<path d="M13.3462 90.6385V86.2878L11.0481 90.6385H9.7718L7.49556 86.2878V90.6385H6V84.9282H8.52623L10.4428 88.7131L12.3375 84.9282H14.8506V90.6385H13.3462Z" fill="#2C3333"/>
<path d="M17.5654 90.6385H15.7979L18.7101 84.9282H20.8547L23.7011 90.6385H21.9468L21.4556 89.6035H18.0829L17.5654 90.6385ZM18.6355 88.4237H20.8723L19.7539 86.165L18.6355 88.4237Z" fill="#2C3333"/>
<path d="M26.1309 88.9193C26.1309 89.1473 26.201 89.2964 26.3414 89.3666C26.4993 89.4236 26.701 89.4543 26.9466 89.4543H27.701L28.7667 89.4192C29.0606 89.4192 29.2492 89.3798 29.3413 89.3008C29.429 89.2219 29.4729 89.0991 29.4729 88.928C29.4729 88.7745 29.4202 88.6517 29.3194 88.564C29.2185 88.4719 29.0211 88.4281 28.736 88.4281H28.4773L25.8633 88.3579C25.3765 88.3579 25.03 88.2219 24.8239 87.9544C24.6265 87.6737 24.5257 87.257 24.5257 86.7044C24.5257 86.2351 24.5871 85.8711 24.7143 85.6124C24.8414 85.3536 25.0695 85.1694 25.4116 85.0685C25.5958 85.0159 25.7976 84.9764 26.0168 84.9457C26.2405 84.915 26.4774 84.8975 26.7317 84.8975L27.837 84.8712H28.9466C29.1746 84.8712 29.3764 84.8799 29.5474 84.8975C29.7185 84.915 29.8764 84.9457 30.0211 84.994C30.2886 85.0641 30.4772 85.2001 30.5869 85.4106C30.7009 85.6167 30.7711 85.8053 30.8061 85.9764C30.8412 86.1474 30.8588 86.3799 30.8588 86.6737H29.3018C29.3018 86.4808 29.2492 86.3404 29.1395 86.2571C29.0343 86.1737 28.8808 86.1343 28.6878 86.1343L27.9203 86.1255L26.7098 86.1694C26.5563 86.1694 26.4247 86.2044 26.3063 86.2702C26.1879 86.336 26.1309 86.4501 26.1309 86.6079C26.1309 86.8185 26.1967 86.9632 26.3282 87.0378C26.3896 87.0685 26.4686 87.0904 26.5607 87.1079C26.6528 87.1255 26.758 87.1342 26.8765 87.1342H29.1527C29.8325 87.1342 30.3193 87.2527 30.6176 87.4851C30.9246 87.7088 31.0781 88.1693 31.0781 88.871C31.0781 89.5464 30.9421 90.0069 30.6658 90.2569C30.3939 90.5069 29.9378 90.6341 29.3062 90.6341L27.2712 90.6955L26.2054 90.6692C25.6353 90.6692 25.2186 90.5683 24.9555 90.371C24.6923 90.1736 24.5608 89.7745 24.5608 89.1693V88.8272H26.1177L26.1309 88.9193Z" fill="#2C3333"/>
<path d="M33.8236 88.9193C33.8236 89.1473 33.8938 89.2964 34.0341 89.3666C34.192 89.4236 34.3937 89.4543 34.6393 89.4543H35.3937L36.4595 89.4192C36.7533 89.4192 36.9419 89.3798 37.034 89.3008C37.1217 89.2219 37.1656 89.0991 37.1656 88.928C37.1656 88.7745 37.1129 88.6517 37.0121 88.564C36.9112 88.4719 36.7138 88.4281 36.4288 88.4281H36.17L33.556 88.3579C33.0692 88.3579 32.7227 88.2219 32.5166 87.9544C32.3193 87.6737 32.2184 87.257 32.2184 86.7044C32.2184 86.2351 32.2798 85.8711 32.407 85.6124C32.5342 85.3536 32.7622 85.1694 33.1043 85.0685C33.2885 85.0159 33.4903 84.9764 33.7096 84.9457C33.9332 84.915 34.1701 84.8975 34.4244 84.8975L35.5297 84.8712H36.6393C36.8673 84.8712 37.0691 84.8799 37.2401 84.8975C37.4112 84.915 37.5691 84.9457 37.7138 84.994C37.9813 85.0641 38.1699 85.2001 38.2796 85.4106C38.3892 85.6211 38.4638 85.8053 38.4989 85.9764C38.5339 86.1474 38.5515 86.3799 38.5515 86.6737H36.9945C36.9945 86.4808 36.9419 86.3404 36.8322 86.2571C36.727 86.1737 36.5735 86.1343 36.3805 86.1343L35.613 86.1255L34.4025 86.1694C34.249 86.1694 34.1174 86.2044 33.999 86.2702C33.8806 86.336 33.8236 86.4501 33.8236 86.6079C33.8236 86.8185 33.8894 86.9632 34.0209 87.0378C34.0823 87.0685 34.1613 87.0904 34.2534 87.1079C34.3455 87.1255 34.4508 87.1342 34.5692 87.1342H36.8454C37.5252 87.1342 38.012 87.2527 38.3103 87.4851C38.6173 87.7088 38.7708 88.1693 38.7708 88.871C38.7708 89.5464 38.6348 90.0069 38.3585 90.2569C38.0866 90.5069 37.6305 90.6341 36.9989 90.6341L34.9639 90.6955L33.8981 90.6692C33.328 90.6692 32.9113 90.5683 32.6482 90.371C32.385 90.1736 32.2535 89.7745 32.2535 89.1693V88.8272H33.8104L33.8236 88.9193Z" fill="#2C3333"/>
<path d="M45.8407 84.9282V86.2308H41.6084V87.2088H45.56V88.3403H41.6084V89.3491H45.8407V90.6429H40.0207V84.9282H45.8407Z" fill="#2C3333"/>
<path d="M53.9983 84.9282L51.0642 88.6517V90.6385H49.4678V88.6517L46.4854 84.9282H48.4897L50.2572 87.2834L52.0115 84.9282H53.9983Z" fill="#2C3333"/>
<path d="M63.3225 84.9282V86.2308H59.292V87.2088H63.3225V88.3403H59.292V90.6429H57.6692V84.9282H63.3225Z" fill="#2C3333"/>
<path d="M70.2434 84.9282V86.2308H65.9233V87.2088H69.9539V88.3403H65.9233V89.3491H70.2434V90.6429H64.305V84.9282H70.2434Z" fill="#2C3333"/>
<path d="M76.401 84.9282C77.0458 84.9282 77.5019 85.0641 77.765 85.3317C77.9054 85.4632 78.0062 85.6431 78.0764 85.8711C78.1466 86.0992 78.1817 86.3886 78.1817 86.7395V86.836C78.1817 87.0772 78.1685 87.2746 78.1422 87.4369C78.1159 87.5991 78.0633 87.7439 77.9843 87.8754C77.9054 88.007 77.8133 88.1123 77.7036 88.1824C77.6291 88.2263 77.4054 88.3184 77.0326 88.4588C77.3966 88.5114 77.6642 88.6123 77.8484 88.7614C78.0282 88.9105 78.1203 89.1736 78.1203 89.5508V90.6429H76.4756V90.099C76.4756 89.8271 76.4537 89.6078 76.4054 89.4368C76.3616 89.2701 76.1467 89.1868 75.7695 89.1868H73.0634V90.6429H71.4407V84.9282H76.401ZM75.7212 87.7965C76.0896 87.7965 76.3177 87.7483 76.4054 87.6474C76.4975 87.5509 76.5414 87.3316 76.5414 86.9895C76.5414 86.7921 76.5238 86.6518 76.4888 86.5685C76.4537 86.4851 76.3835 86.4194 76.2695 86.3755L76.0063 86.3141H73.0634V87.7965H75.7212Z" fill="#2C3333"/>
<path d="M86.3568 87.4237L86.3656 88.6254C86.3656 89.3359 86.2516 89.8578 86.0279 90.1955C85.7998 90.5332 85.3613 90.7043 84.7078 90.7043H82.0587C81.4535 90.7043 80.971 90.6604 80.6158 90.5771C80.2606 90.4894 79.9711 90.2964 79.7562 89.9894C79.5413 89.6824 79.4316 89.2175 79.4316 88.5947L79.4141 87.8754C79.4141 86.7614 79.5413 85.9895 79.7957 85.5597C80.05 85.1299 80.6509 84.915 81.5982 84.915L82.8131 84.8712H83.2604L84.3481 84.915C85.0499 84.915 85.5586 85.0422 85.8788 85.301C86.1945 85.5597 86.3524 86.0553 86.3524 86.7921V86.893H84.7735C84.7735 86.7614 84.756 86.6474 84.7209 86.5509C84.6858 86.4588 84.6244 86.393 84.5367 86.3623C84.449 86.3316 84.3394 86.3053 84.2122 86.2834H83.813L81.9315 86.2483C81.5456 86.2483 81.3044 86.3492 81.2035 86.5553C81.1026 86.7614 81.05 87.0992 81.05 87.5684V88.1035C81.05 88.5026 81.0982 88.7965 81.1947 88.9851C81.2912 89.1736 81.4359 89.2877 81.6333 89.3228L82.0631 89.3666H83.8876C84.1639 89.3666 84.3788 89.3184 84.5323 89.2175C84.6858 89.1166 84.7648 88.9324 84.7648 88.6605V88.4938H82.7034V87.4237H86.3568Z" fill="#2C3333"/>
<path d="M94.4706 88.1912V88.5245C94.4706 89.4105 94.2513 89.9938 93.8127 90.2789C93.3741 90.5639 92.7075 90.7087 91.8128 90.7087H90.4883C90.1199 90.7087 89.8085 90.6999 89.5541 90.6824C89.2997 90.6648 89.0716 90.6341 88.8743 90.5903C88.5059 90.5157 88.2076 90.314 87.9752 89.9806C87.7427 89.6473 87.6287 89.1386 87.6287 88.4456V84.9369H89.2515V87.9368C89.2515 88.4982 89.3173 88.8666 89.4444 89.0465C89.5716 89.2263 89.8962 89.314 90.4093 89.314H91.8084C92.2514 89.314 92.5321 89.2394 92.6592 89.0903C92.7864 88.9412 92.8478 88.6386 92.8478 88.1868V84.9369H94.475V88.1912H94.4706Z" fill="#2C3333"/>
<path d="M97.3828 88.9193C97.3828 89.1473 97.4529 89.2964 97.5977 89.3666C97.7599 89.4236 97.9617 89.4543 98.2161 89.4543H98.9836L100.071 89.4192C100.369 89.4192 100.567 89.3798 100.655 89.3008C100.747 89.2219 100.791 89.0991 100.791 88.928C100.791 88.7745 100.738 88.6517 100.633 88.564C100.527 88.4763 100.33 88.4281 100.036 88.4281H99.773L97.1065 88.3579C96.6109 88.3579 96.2556 88.2219 96.0451 87.9544C95.8433 87.6737 95.7425 87.257 95.7425 86.7044C95.7425 86.2351 95.8083 85.8711 95.9354 85.6124C96.0626 85.3536 96.2995 85.1694 96.6459 85.0685C96.8345 85.0159 97.0363 84.9764 97.2643 84.9457C97.4924 84.915 97.7336 84.8975 97.9968 84.8975L99.1239 84.8712H100.255C100.488 84.8712 100.694 84.8799 100.865 84.8975C101.036 84.915 101.198 84.9457 101.348 84.994C101.619 85.0641 101.812 85.2001 101.926 85.4106C102.04 85.6211 102.115 85.8053 102.15 85.9764C102.185 86.1474 102.203 86.3799 102.203 86.6737H100.615C100.615 86.4808 100.562 86.3404 100.453 86.2571C100.343 86.1737 100.19 86.1343 99.9923 86.1343L99.2116 86.1255L97.9748 86.1694C97.8213 86.1694 97.6854 86.2044 97.5626 86.2702C97.4442 86.336 97.3828 86.4501 97.3828 86.6079C97.3828 86.8185 97.4485 86.9632 97.5801 87.0378C97.6459 87.0685 97.7205 87.0904 97.817 87.1079C97.9091 87.1255 98.0187 87.1342 98.1415 87.1342H100.466C101.159 87.1342 101.655 87.2527 101.957 87.4851C102.273 87.7088 102.426 88.1693 102.426 88.871C102.426 89.5464 102.286 90.0069 102.005 90.2569C101.725 90.5069 101.264 90.6341 100.619 90.6341L98.545 90.6955L97.4573 90.6692C96.8784 90.6692 96.453 90.5683 96.1854 90.371C95.9179 90.1736 95.7819 89.7701 95.7819 89.1693V88.8272H97.3696L97.3828 88.9193Z" fill="#2C3333"/>
<path d="M107.141 84.8668L108.435 84.8931C109.382 84.8931 110.031 85.0597 110.378 85.3975C110.729 85.7352 110.9 86.4062 110.9 87.4149V87.6869C110.9 88.871 110.759 89.6649 110.483 90.064C110.207 90.4675 109.505 90.6648 108.382 90.6648L107.159 90.6999H106.646L105.545 90.6648C104.931 90.6648 104.457 90.5157 104.119 90.2131C103.782 89.9105 103.611 89.428 103.611 88.757L103.593 87.7C103.593 86.5378 103.729 85.779 104.005 85.4238C104.282 85.0641 104.94 84.8887 105.983 84.8887L107.141 84.8668ZM106.264 89.3052H107.961C108.413 89.3052 108.742 89.2526 108.944 89.1517C109.145 89.0465 109.246 88.7833 109.246 88.3579L109.264 87.5816C109.264 87.3228 109.251 87.0992 109.22 86.9106C109.189 86.722 109.132 86.5816 109.045 86.4983C108.957 86.4106 108.825 86.3536 108.65 86.3273C108.474 86.2966 108.347 86.2834 108.264 86.279C108.181 86.2746 108.115 86.2746 108.067 86.2746H106.453C106.075 86.2746 105.795 86.3141 105.615 86.3974C105.422 86.472 105.312 86.6474 105.282 86.9193L105.242 87.5684V87.9588C105.242 88.4851 105.299 88.8403 105.409 89.0289C105.523 89.2131 105.804 89.3052 106.264 89.3052Z" fill="#2C3333"/>
<path d="M116.908 90.6429L113.698 86.3492V90.6429H112.172V84.9282H114.751L117.961 89.2131V84.9282H119.487V90.6429H116.908Z" fill="#2C3333"/>
</svg>
