<svg width="125" height="125" viewBox="0 0 125 125" fill="none" xmlns="http://www.w3.org/2000/svg">
<path fill-rule="evenodd" clip-rule="evenodd" d="M28 43.1883L37.8092 35L45.9843 41.551L53.8317 35L61.6796 41.2233L69.1998 35L77.3744 41.551V57.9271L66.5837 66.4426V45.8082C66.5837 45.8082 66.2571 42.8607 61.6791 42.8607V90.3523H50.8889V45.8082C50.8889 45.8082 50.8889 42.8607 46.3114 42.8607V90.3523H35.1936V48.1014C35.1936 48.1014 35.5202 42.2058 28 43.1883Z" fill="#2C3333"/>
<path fill-rule="evenodd" clip-rule="evenodd" d="M83.9142 54.9796L66.5842 68.4087V81.5096L77.702 90.6805L92.0893 79.5451L91.4355 78.8898C91.4355 78.8898 87.5118 82.8198 84.2419 82.1655C79.0101 81.5102 77.3749 78.2355 77.3749 73.3223V62.1854C77.3749 62.1854 81.2991 66.4431 84.2419 66.4431C86.8575 66.4431 89.4737 64.151 92.0893 61.5306L83.9142 54.9796Z" fill="#2C3333"/>
<path d="M93.724 90.6805C96.0124 90.6805 97.9748 89.0426 97.9748 86.7504C97.9748 84.4572 96.0124 82.4927 93.724 82.4927C91.7621 82.4927 89.8003 84.4572 89.8003 86.7504C89.8003 89.0426 91.7621 90.6805 93.724 90.6805Z" fill="#2C3333"/>
<path fill-rule="evenodd" clip-rule="evenodd" d="M92.0888 84.1295C92.0888 84.1295 93.724 84.1295 94.3778 84.1295C95.3592 84.1295 96.0124 84.4572 96.0124 85.4408C96.0124 86.7509 95.3592 86.7509 95.3592 86.7509C96.0125 87.7329 96.0124 89.0431 96.0124 89.0431H95.0315C95.0315 87.0786 94.0501 87.4053 94.0501 87.4053H92.742V89.0431H92.0882L92.0888 84.1295ZM92.7425 84.7849V86.7504C92.7425 86.7504 94.0506 86.7504 94.3778 86.7504C94.7044 86.7504 95.0315 86.4227 95.0315 85.7674C95.0315 85.1131 94.7044 84.7854 94.3778 84.7854C93.724 84.7848 92.7425 84.7849 92.7425 84.7849Z" fill="#2C3333"/>
</svg>
