<svg width="70" height="13" viewBox="0 0 70 13" fill="none" xmlns="http://www.w3.org/2000/svg">
<path d="M9.35313 9.32076C9.25949 9.32076 9.19713 9.27417 9.15031 9.18052C9.11125 9.08711 9.08796 8.96993 9.07243 8.82217C9.06466 8.6817 9.0569 8.52594 9.0569 8.34664C9.0569 8.17535 9.04913 8.00382 9.04137 7.84029C9.01807 7.51253 8.94796 7.24782 8.83078 7.06077C8.72184 6.86594 8.59713 6.71771 8.4569 6.6243C8.31666 6.52289 8.17643 6.46077 8.03596 6.42948C7.89572 6.39818 7.79431 6.38289 7.70843 6.38289L7.70066 6.34359C7.82537 6.25042 7.90349 6.12571 7.95031 5.97724C7.98913 5.82924 8.02043 5.59536 8.02819 5.27607C8.03596 5.15889 8.04372 5.02642 8.04372 4.87066C8.05149 4.71489 8.05925 4.55866 8.07478 4.41842C8.09807 4.27819 8.12913 4.15348 8.16843 4.06007C8.21525 3.95843 8.2696 3.91184 8.35549 3.91184C8.40207 3.91184 8.42537 3.92737 8.43337 3.96643C8.44137 3.99772 8.44137 4.03654 8.44137 4.0756C8.44137 4.12243 8.44137 4.16125 8.4256 4.20007C8.41007 4.23137 8.40231 4.27043 8.38678 4.30925C8.38678 4.34031 8.37902 4.36407 8.37902 4.38713C8.37902 4.4109 8.37902 4.44172 8.37902 4.46525C8.37902 4.59772 8.41807 4.72266 8.50372 4.84713C8.5896 4.97207 8.72208 5.03419 8.90137 5.03419C9.08843 5.03419 9.22866 4.96383 9.32231 4.81583C9.42349 4.65984 9.47031 4.48854 9.47031 4.29348C9.47031 4.2156 9.45478 4.12972 9.43125 4.03631C9.40019 3.9429 9.36113 3.85702 9.29878 3.7789C9.24419 3.70102 9.16631 3.6389 9.0649 3.58431C8.97149 3.52972 8.84655 3.50619 8.70631 3.50619C8.55055 3.50619 8.41784 3.52972 8.3089 3.57655C8.20749 3.6309 8.11384 3.71655 8.05172 3.85702C7.9816 3.98949 7.93478 4.16878 7.89572 4.40242C7.85666 4.62854 7.83337 4.91678 7.81784 5.2756C7.81784 5.51724 7.79431 5.71183 7.76325 5.8523C7.72419 5.99254 7.68537 6.10148 7.62302 6.17183C7.56866 6.24195 7.49831 6.28853 7.42043 6.31206C7.35031 6.32736 7.25666 6.33583 7.16325 6.33583H6.82019V3.77913H7.36584V3.57678H4.12349V3.77913H4.20913C4.23266 3.77913 4.26372 3.77913 4.31054 3.78713C4.35713 3.78713 4.40396 3.80266 4.45078 3.83396C4.50537 3.85725 4.55219 3.90407 4.59102 3.95843C4.62231 4.02078 4.6456 4.09866 4.6456 4.2156C4.6456 4.23913 4.63784 4.30148 4.63007 4.40266C4.62231 4.49631 4.58325 4.65984 4.51313 4.89395L3.86607 7.2323L2.66584 3.7789H3.14913V3.57655H1.16113V3.7789H1.56631L3.30443 8.74405C3.24984 8.91558 3.18749 9.04029 3.11737 9.13393C3.05502 9.21935 2.9849 9.29746 2.92254 9.34429C2.86019 9.39111 2.79784 9.42217 2.73549 9.4377C2.67313 9.44546 2.61854 9.45323 2.57196 9.45323C2.41596 9.45323 2.29125 9.42193 2.22113 9.35982C2.14325 9.29746 2.10419 9.24288 2.10419 9.18829C2.10419 9.15699 2.11972 9.13393 2.14325 9.11041C2.17431 9.08688 2.2056 9.07135 2.24466 9.04782C2.27572 9.03229 2.31454 9.00899 2.3536 8.99346C2.39266 8.97794 2.43149 8.95441 2.46254 8.93111C2.5096 8.89205 2.56396 8.8297 2.61854 8.74382C2.67313 8.65841 2.69643 8.549 2.69643 8.40123C2.69643 8.19064 2.64207 8.02688 2.5329 7.9097C2.41572 7.79323 2.29125 7.73065 2.15078 7.73065C1.99478 7.73065 1.85454 7.79323 1.72984 7.92547C1.60537 8.05794 1.54302 8.23723 1.54302 8.47064C1.54302 8.62664 1.57407 8.78288 1.6209 8.92311C1.67549 9.07111 1.7456 9.19582 1.83925 9.29723C1.93266 9.40617 2.04207 9.49205 2.16654 9.55464C2.29125 9.62452 2.42372 9.65581 2.57196 9.65581C2.74349 9.65581 2.89149 9.60899 3.01619 9.52334C3.1409 9.43746 3.25007 9.32052 3.34372 9.18029C3.43713 9.03205 3.52302 8.85276 3.59313 8.65817C3.66325 8.45535 3.73337 8.23723 3.81149 8.00335L4.85572 4.50384C4.89478 4.35537 4.95713 4.22313 5.03502 4.09066C5.10513 3.96596 5.2609 3.85678 5.49478 3.77866H5.83007V9.37511H5.29996V9.5777H7.36537V9.37511H6.81972V6.53842H7.21737C7.38866 6.53842 7.52137 6.57724 7.61478 6.64736C7.70819 6.72547 7.77831 6.81889 7.8329 6.94383C7.87972 7.06853 7.91102 7.21677 7.93431 7.37229C7.94984 7.52806 7.96537 7.69982 7.97337 7.87135C8.00466 8.21417 8.02796 8.50241 8.05902 8.72852C8.09007 8.95464 8.1369 9.13417 8.19149 9.26664C8.24607 9.39911 8.32396 9.49252 8.42513 9.54687C8.52655 9.60923 8.65125 9.64028 8.82278 9.65605C8.87737 9.66381 8.93972 9.66381 9.00207 9.65605C9.07219 9.64052 9.15784 9.61723 9.27502 9.57817C9.39196 9.53934 9.5009 9.46899 9.59431 9.37558L9.51643 9.24311C9.46208 9.2977 9.40749 9.32076 9.35313 9.32076Z" fill="#1A1A1A"/>
<path d="M18.3555 2.89858C18.4256 2.8127 18.4644 2.70376 18.4644 2.56352C18.4644 2.44635 18.4489 2.3607 18.4021 2.29858C18.363 2.23623 18.3084 2.18941 18.2541 2.16611C18.1997 2.13505 18.1527 2.11929 18.0981 2.11152C18.0512 2.11152 18.02 2.10376 17.9967 2.10376C17.9889 2.10376 17.9576 2.11152 17.9032 2.11152C17.8487 2.11952 17.7941 2.13505 17.7393 2.16611C17.6849 2.18941 17.6381 2.23623 17.5912 2.29858C17.5444 2.36094 17.5211 2.44658 17.5211 2.56352C17.5211 2.69599 17.5602 2.80493 17.6458 2.89858C17.7237 2.98423 17.8407 3.03105 17.9967 3.03105C18.1604 3.03105 18.2774 2.98446 18.3555 2.89858Z" fill="#1A1A1A"/>
<path d="M17.7162 3.77928H18.2541V9.37573H17.7162V9.57832H19.7896V9.37573H19.244V3.77928H19.7896V3.57693H17.7162V3.77928Z" fill="#1A1A1A"/>
<path d="M19.7661 2.16611C19.7115 2.13505 19.6571 2.11929 19.6101 2.11152C19.5557 2.11152 19.5244 2.10376 19.5089 2.10376C19.5011 2.10376 19.4698 2.11152 19.4155 2.11152C19.3611 2.11952 19.3065 2.13505 19.252 2.16611C19.1974 2.18941 19.1505 2.23623 19.104 2.29858C19.0571 2.36094 19.0338 2.44658 19.0338 2.56352C19.0338 2.69599 19.0729 2.80493 19.1508 2.89858C19.2367 2.98423 19.3534 3.03105 19.5094 3.03105C19.6731 3.03105 19.7901 2.98423 19.868 2.89858C19.9461 2.8127 19.9849 2.70376 19.9849 2.56352C19.9849 2.44635 19.9616 2.3607 19.9223 2.29858C19.8752 2.23623 19.8207 2.18941 19.7661 2.16611Z" fill="#1A1A1A"/>
<path d="M13.6397 4.59763C13.5774 4.39528 13.4682 4.22352 13.3202 4.06775C13.172 3.91975 12.9694 3.80305 12.72 3.70964C12.4705 3.62375 12.1588 3.57717 11.7847 3.57717H9.76584V3.77952H10.3035V9.37597H9.76584V9.57855H11.9014V9.37597H11.2936V7.01386H11.7534C12.4082 7.01386 12.907 6.88139 13.2343 6.60092C13.5618 6.32798 13.7331 5.86845 13.7331 5.22916C13.7334 5.01104 13.7021 4.80022 13.6397 4.59763ZM12.611 5.48633C12.611 5.80586 12.5877 6.04774 12.5409 6.22657C12.4941 6.40586 12.424 6.53833 12.3381 6.62398C12.2524 6.71739 12.1432 6.76445 12.0185 6.78774C11.8938 6.80303 11.7614 6.81103 11.6131 6.81103H11.2936V3.77928H11.6755C11.8938 3.77928 12.0574 3.81058 12.1901 3.8574C12.3148 3.91199 12.4082 3.98234 12.4705 4.07575C12.5329 4.16916 12.572 4.27834 12.5875 4.40281C12.603 4.53528 12.6108 4.67551 12.6108 4.83151L12.611 5.48633Z" fill="#1A1A1A"/>
<path d="M68.4574 9.37554L66.9689 3.50639H66.5475L65.3085 8.35484C65.2772 8.48684 65.2381 8.61154 65.2068 8.73672C65.176 8.85319 65.1365 8.9626 65.0901 9.05578C65.0433 9.14942 64.9807 9.22731 64.9031 9.28189C64.8254 9.34425 64.7238 9.3753 64.6066 9.3753H63.9445V3.77909H64.4744V3.57674H60.7487V3.77909C60.9435 3.76356 61.0915 3.78709 61.1852 3.85721C61.2784 3.91956 61.3405 4.02074 61.3718 4.15344C61.4031 4.28615 61.4113 4.44191 61.4113 4.63697C61.4031 4.82379 61.3958 5.02638 61.3878 5.24473L61.3097 7.6299C61.2941 8.04284 61.2471 8.38613 61.1772 8.65884C61.0991 8.92378 60.9979 9.16542 60.8885 9.37577H60.3195L60.2419 11.3087H60.4988C60.5534 10.9033 60.6313 10.584 60.7172 10.3579C60.8104 10.124 60.912 9.95248 61.0214 9.83554C61.1303 9.71883 61.2471 9.64848 61.3715 9.62495C61.4965 9.59389 61.6059 9.57836 61.7226 9.57836H63.048C63.1412 9.57836 63.2501 9.59389 63.3831 9.62495C63.5233 9.64848 63.6555 9.7186 63.7962 9.83554C63.9287 9.95248 64.0609 10.124 64.1776 10.3579C64.2871 10.584 64.3725 10.9033 64.4273 11.3087H64.6847L64.6287 9.57836H66.0645V9.37577C65.9009 9.36025 65.7758 9.33672 65.6904 9.29789C65.5967 9.26683 65.5268 9.18095 65.4873 9.04825C65.4642 8.98589 65.4565 8.92378 65.4642 8.86895C65.4642 8.8066 65.4715 8.74425 65.4873 8.6819C65.5191 8.49507 65.5346 8.3779 65.5424 8.32331C65.5501 8.27672 65.5579 8.24543 65.5654 8.22213L65.6671 7.83225H67.0075L67.4207 9.37577H66.8986V9.57836H68.8393V9.37577L68.4574 9.37554ZM62.9548 9.37554H61.1308C61.1776 9.29766 61.2162 9.20401 61.2633 9.10307C61.3024 9.00142 61.3409 8.87672 61.3805 8.74425C61.4191 8.60401 61.4426 8.44825 61.4659 8.26896C61.4894 8.08943 61.5049 7.87155 61.5205 7.62966L61.6294 4.85485C61.6376 4.58191 61.6607 4.37133 61.684 4.22333C61.7071 4.07556 61.7386 3.96615 61.7857 3.9038C61.832 3.84121 61.8951 3.80262 61.9727 3.79462C62.0504 3.78709 62.1442 3.77909 62.2614 3.77909H62.9548V9.37554ZM65.7061 7.62966L66.3454 5.13532L66.9765 7.62966H65.7061Z" fill="#1A1A1A"/>
<path d="M15.7209 3.50619H15.2998L14.0605 8.35464C14.0214 8.48664 13.9903 8.61135 13.959 8.73652C13.928 8.85299 13.8889 8.96241 13.8421 9.05558C13.7875 9.14923 13.7252 9.22711 13.655 9.2817C13.5772 9.34405 13.4758 9.37511 13.351 9.37511V9.5777H14.8085V9.37511C14.6527 9.35958 14.528 9.33605 14.4343 9.29723C14.3409 9.26617 14.2786 9.18029 14.2318 9.04758C14.2162 8.98523 14.2082 8.92311 14.2082 8.86829C14.216 8.80594 14.2238 8.74358 14.2318 8.68123C14.263 8.49441 14.2863 8.37723 14.2943 8.32264C14.3021 8.27605 14.3099 8.24476 14.3176 8.22147L14.419 7.83159H15.752L16.1652 9.37511H15.6428V9.5777H17.5838V9.37511H17.2019L15.7209 3.50619ZM14.4506 7.6297L15.0976 5.13536L15.7292 7.6297H14.4506Z" fill="#1A1A1A"/>
<path d="M43.5701 3.77928H44.1077V9.37573H43.5701V9.57832H45.5498V9.37573H45.0976V3.77928H46.6023V9.37573H46.1501V9.57832H48.1298V9.37573H47.5917V3.77928H48.1298V3.57693H43.5701V3.77928Z" fill="#1A1A1A"/>
<path d="M59.9851 7.04449C59.8835 6.89696 59.7355 6.75649 59.5411 6.62402C59.3458 6.48379 59.0806 6.37438 58.7533 6.2812L58.7456 6.23438C59.1665 6.13273 59.4938 5.97697 59.7355 5.76661C59.9771 5.55626 60.1018 5.2445 60.1018 4.84709C60.1018 4.67556 60.0705 4.51203 60.0086 4.3558C59.9541 4.20003 59.8524 4.06756 59.7122 3.95062C59.5719 3.84145 59.3849 3.7478 59.1588 3.67792C58.9326 3.61556 58.6444 3.57674 58.2933 3.57674H56.2515V3.77909H56.7813V9.37554H55.9317L54.4432 3.50639H54.0223L52.7908 8.35484C52.7522 8.48684 52.7131 8.61154 52.6896 8.73672C52.6578 8.85319 52.6192 8.9626 52.5646 9.05578C52.5178 9.14942 52.4557 9.22731 52.3781 9.28189C52.2999 9.34425 52.2063 9.3753 52.0816 9.3753V9.57789H53.5388V9.3753C53.383 9.35978 53.2501 9.33625 53.1651 9.29742C53.0715 9.26636 53.0011 9.18048 52.9621 9.04778C52.939 8.98542 52.939 8.92331 52.939 8.86848C52.939 8.80613 52.9463 8.74378 52.9621 8.68142C52.9933 8.4946 53.0089 8.37743 53.0166 8.32284C53.0322 8.27625 53.0402 8.24496 53.0402 8.22166L53.1413 7.83178H54.4823L54.8955 9.3753H54.3729V9.57789H58.3324C58.6131 9.57789 58.8705 9.53907 59.1039 9.46872C59.3378 9.39083 59.5409 9.28166 59.7042 9.13366C59.8677 8.98542 60.0006 8.80613 60.0861 8.59578C60.1797 8.38543 60.2268 8.14378 60.2268 7.87837C60.2268 7.7619 60.2112 7.62919 60.1799 7.48119C60.1486 7.3332 60.0861 7.19296 59.9851 7.04449ZM53.1809 7.62966L53.8197 5.13532L54.4512 7.62966H53.1809ZM57.7712 3.77909H58.278C58.4569 3.77909 58.5973 3.81839 58.6985 3.88827C58.7917 3.96639 58.8621 4.0518 58.9091 4.14568C58.9559 4.23885 58.9872 4.33274 58.9872 4.42591C58.995 4.5118 58.995 4.58168 58.995 4.62097V5.2365C58.995 5.45485 58.9637 5.62614 58.8933 5.74332C58.8235 5.86779 58.7453 5.95344 58.6517 6.01579C58.5585 6.07014 58.4724 6.1012 58.387 6.10944C58.3089 6.12496 58.2545 6.12496 58.2312 6.12496H57.7712V3.77909ZM59.1124 8.21413C59.1124 8.36213 59.1042 8.50237 59.0889 8.64284C59.0733 8.78331 59.0338 8.90778 58.9717 9.01672C58.9091 9.12613 58.8159 9.21178 58.6988 9.28189C58.5743 9.34425 58.4028 9.3753 58.1844 9.3753H57.7712V6.32779H58.2625C58.4651 6.32779 58.6131 6.37461 58.7298 6.46049C58.8392 6.53837 58.9246 6.64732 58.9795 6.77979C59.0336 6.90426 59.0731 7.04449 59.0889 7.19296C59.1039 7.3332 59.1124 7.46567 59.1124 7.58284V8.21413Z" fill="#1A1A1A"/>
<path d="M50.5696 7.01386C51.2317 7.01386 51.723 6.88139 52.0503 6.60092C52.3854 6.32798 52.5489 5.86845 52.5489 5.22916C52.5489 5.01104 52.5176 4.80045 52.4557 4.59763C52.3931 4.39528 52.2917 4.22352 52.1442 4.06775C51.988 3.91975 51.7931 3.80305 51.544 3.70964C51.2943 3.62375 50.9828 3.57717 50.6082 3.57717H48.5821V3.77952H49.1192V9.37597H48.5821V9.57855H50.7176V9.37597H50.1096V7.01386H50.5696ZM50.1096 3.77928H50.4992C50.7098 3.77928 50.8811 3.81058 51.0056 3.8574C51.1305 3.91199 51.224 3.98234 51.2863 4.07575C51.3562 4.16916 51.3952 4.27834 51.4108 4.40281C51.4263 4.53528 51.4343 4.67551 51.4343 4.83151V5.48633C51.4343 5.80586 51.4035 6.04774 51.3562 6.22657C51.3098 6.40586 51.2395 6.53833 51.1536 6.62398C51.0682 6.71739 50.967 6.76445 50.8421 6.78774C50.7176 6.80303 50.5769 6.81103 50.4289 6.81103H50.1096V3.77928Z" fill="#1A1A1A"/>
<path d="M39.6338 3.50623H39.2051L37.9736 8.35468C37.9345 8.48668 37.9037 8.61139 37.8724 8.73657C37.8411 8.85304 37.8025 8.96245 37.7557 9.05562C37.7011 9.14927 37.6385 9.22715 37.5682 9.28174C37.5456 9.29986 37.5171 9.3095 37.4901 9.32245L37.4437 9.24268C37.3891 9.29727 37.3348 9.32056 37.2722 9.32056C37.1863 9.32056 37.1164 9.27397 37.0774 9.18033C37.0383 9.08668 37.0148 8.96974 36.9992 8.82198C36.9919 8.68151 36.9842 8.52574 36.9842 8.34645C36.9842 8.17516 36.9764 8.00363 36.9686 7.8401C36.9373 7.51234 36.875 7.24763 36.7578 7.06057C36.6489 6.86575 36.5166 6.71752 36.3764 6.6241C36.2357 6.52269 36.0957 6.46058 35.9632 6.42928C35.8225 6.39799 35.7136 6.38269 35.6355 6.38269L35.6277 6.3434C35.7526 6.25022 35.8303 6.12552 35.8773 5.97705C35.9164 5.82905 35.9477 5.59517 35.9555 5.27587C35.9632 5.1587 35.971 5.02623 35.971 4.87046C35.971 4.7147 35.9861 4.55847 36.0018 4.41823C36.0176 4.278 36.0486 4.15329 36.0955 4.05988C36.1345 3.95823 36.1966 3.91164 36.2748 3.91164C36.3293 3.91164 36.3529 3.92717 36.3606 3.96623C36.3679 3.99753 36.3679 4.03635 36.3679 4.07541C36.3679 4.12223 36.3606 4.16106 36.3529 4.19988C36.3373 4.23117 36.3293 4.27023 36.3138 4.30905C36.3061 4.34011 36.3061 4.36388 36.3061 4.38694C36.3061 4.4107 36.3061 4.44152 36.3061 4.46505C36.3061 4.59752 36.3451 4.72247 36.4305 4.84694C36.5086 4.97188 36.6411 5.03399 36.8284 5.03399C37.0077 5.03399 37.1477 4.96364 37.2489 4.81564C37.3425 4.65964 37.3969 4.48835 37.3969 4.29329C37.3969 4.21541 37.3813 4.12953 37.3505 4.03611C37.327 3.9427 37.2802 3.85682 37.2256 3.7787C37.171 3.70082 37.0931 3.6387 36.9922 3.58412C36.8981 3.52953 36.7733 3.506 36.6333 3.506C36.4776 3.506 36.3451 3.52953 36.2359 3.57635C36.127 3.6307 36.0411 3.71635 35.979 3.85682C35.9086 3.98929 35.8541 4.16858 35.8228 4.40223C35.7842 4.62835 35.7602 4.91658 35.7451 5.2754C35.7373 5.51705 35.7216 5.71164 35.6905 5.85211C35.6515 5.99234 35.6051 6.10128 35.5503 6.17164C35.4877 6.24175 35.4254 6.28834 35.3477 6.31187C35.2696 6.32716 35.1837 6.33563 35.0903 6.33563H34.7475V3.77917H35.2854V3.57682H33.2277V3.77917H33.7576V9.37562H33.2277V9.57821H35.2854V9.37562H34.7475V6.53846H35.1451C35.3166 6.53846 35.4489 6.57728 35.5425 6.6474C35.6357 6.72552 35.7061 6.81893 35.7531 6.94387C35.8077 7.06857 35.8385 7.21681 35.8543 7.37234C35.8778 7.5281 35.8933 7.69986 35.9011 7.87139C35.9246 8.21421 35.9557 8.50245 35.9865 8.72857C36.0178 8.95468 36.0569 9.13421 36.1192 9.26668C36.1738 9.39915 36.2519 9.49256 36.3531 9.54692C36.4463 9.60927 36.5788 9.64033 36.7428 9.65609C36.8049 9.66386 36.8672 9.66386 36.9294 9.65609C36.9924 9.64056 37.0856 9.61727 37.2023 9.57821C37.2239 9.57139 37.2437 9.55774 37.2649 9.54809V9.57821H38.7225V9.37562C38.5663 9.36009 38.4418 9.33656 38.3484 9.29774C38.2548 9.26668 38.1922 9.1808 38.1458 9.04809C38.1303 8.98574 38.1223 8.92362 38.1223 8.8688C38.1301 8.80645 38.1378 8.74409 38.1458 8.68174C38.1766 8.49492 38.1999 8.37774 38.2079 8.32316C38.2157 8.27657 38.2235 8.24527 38.2315 8.22198L38.3331 7.8321H39.6658L40.079 9.37562H39.5564V9.57821H41.4971V9.37562H41.1157L39.6338 3.50623ZM38.3637 7.62975L39.0103 5.1354L39.6418 7.62975H38.3637Z" fill="#1A1A1A"/>
<path d="M28.5738 8.39362C28.4722 8.65079 28.3633 8.85338 28.2308 9.00938C28.1058 9.16538 27.9736 9.27432 27.8334 9.34444C27.7009 9.41479 27.5684 9.45361 27.4513 9.45361C27.3421 9.45361 27.2331 9.41479 27.124 9.34444C27.007 9.27432 26.9056 9.14985 26.8122 8.97808C26.7185 8.79903 26.6484 8.55738 26.5861 8.26091C26.5315 7.96491 26.5004 7.58303 26.5004 7.11527L26.5082 5.86022C26.5082 5.71975 26.516 5.53316 26.5237 5.29151C26.5237 5.04987 26.5548 4.80798 26.6094 4.57457C26.664 4.34022 26.7574 4.1381 26.8898 3.96634C27.0223 3.79481 27.2094 3.7094 27.4665 3.7094C27.755 3.7094 28.0202 3.86516 28.2461 4.18446C28.4717 4.50422 28.6357 4.94822 28.7216 5.50963H28.9007V3.57693H28.6668C28.6435 3.65481 28.6124 3.7014 28.5656 3.72493C28.5113 3.74799 28.472 3.76375 28.4407 3.76375C28.4094 3.76375 28.3865 3.76375 28.3628 3.75622C28.3472 3.74822 28.3162 3.74069 28.2849 3.72517C28.1677 3.67834 28.0432 3.63152 27.9028 3.57717C27.7623 3.53034 27.6065 3.50681 27.4428 3.50681C27.131 3.50681 26.8505 3.60046 26.6009 3.77952C26.3437 3.96681 26.1254 4.20046 25.9538 4.48916C25.7748 4.78516 25.6343 5.10492 25.5409 5.46351C25.4395 5.82186 25.3929 6.17292 25.3929 6.52351C25.3929 6.88986 25.4397 7.25597 25.5331 7.62233C25.6265 7.99668 25.767 8.33197 25.9463 8.63597C26.1256 8.9322 26.3437 9.18138 26.6087 9.36844C26.8658 9.56326 27.1621 9.6569 27.4971 9.6569C27.6376 9.6569 27.7388 9.64138 27.8247 9.61008C27.9105 9.57902 27.9729 9.54773 28.0272 9.51667C28.1051 9.47785 28.1755 9.44655 28.2378 9.40749C28.308 9.36867 28.3781 9.35314 28.4402 9.35314C28.4948 9.35314 28.5418 9.36867 28.5884 9.3922C28.635 9.42326 28.6818 9.48538 28.7209 9.57926H28.9468L29.0011 7.45927H28.775C28.7376 7.82491 28.6672 8.14421 28.5738 8.39362Z" fill="#1A1A1A"/>
<path d="M23.0009 3.77928H23.4529V6.31245H21.9562V3.77928H22.4084V3.57693H20.4364V3.77928H20.9665V9.37573H20.4364V9.57832H22.4084V9.37573H21.9562V6.51527H23.4529V9.37573H23.0009V9.57832H24.9727V9.37573H24.4428V3.77928H24.9727V3.57693H23.0009V3.77928Z" fill="#1A1A1A"/>
<path d="M32.4785 6.60092C32.3073 6.46068 32.1122 6.34351 31.8863 6.26586C31.6527 6.19551 31.4028 6.15668 31.1228 6.15668H30.8498V3.77928H31.3875V3.57693H29.3221V3.77928H29.8675V9.37573H29.3221V9.57832H31.2317C31.403 9.57832 31.5981 9.56279 31.8084 9.53173C32.0108 9.50043 32.2058 9.42232 32.3851 9.29785C32.5644 9.18091 32.7044 9.00938 32.8216 8.79103C32.9383 8.57291 33.0009 8.27668 33.0009 7.89456C33.0009 7.61433 32.9541 7.36491 32.8602 7.14633C32.767 6.92845 32.6425 6.74915 32.4785 6.60092ZM31.8788 8.22209C31.8788 8.4482 31.863 8.63526 31.832 8.7835C31.8007 8.9315 31.7538 9.0482 31.684 9.13408C31.6214 9.2275 31.5355 9.28985 31.4343 9.32091C31.3329 9.35996 31.216 9.37549 31.0832 9.37549H30.8498V6.35904H31.1228C31.2783 6.35904 31.4028 6.3828 31.5044 6.43692C31.5978 6.48398 31.6757 6.56162 31.7303 6.65551C31.7849 6.75692 31.824 6.87362 31.8475 7.02186C31.8708 7.16209 31.8788 7.32586 31.8788 7.51268V8.22209Z" fill="#1A1A1A"/>
</svg>
