<svg width="30" height="25" viewBox="0 0 30 25" fill="none" xmlns="http://www.w3.org/2000/svg">
<path d="M28.5538 10.5809C29.2963 9.02094 29.38 7.22725 28.7876 5.60481C26.9439 1.07996 19.2067 0.0237491 11.5094 3.24989C4.09844 6.35978 -0.573893 12.3021 0.73481 16.7819L0.336075 16.8119C-1.35887 12.2983 3.51471 5.87105 11.4069 2.31242C14.5081 0.86122 17.8767 0.0737475 21.3003 0C25.2852 0 28.4251 1.34495 29.5613 3.92986C30.4212 5.8898 29.9813 8.24847 28.5538 10.5809ZM6.11337 13.3033C7.35832 12.3908 8.65578 11.5521 9.99948 10.7934C11.4157 9.94466 12.2144 9.13094 12.3956 8.34971C12.4944 8.03597 12.4069 7.69223 12.1694 7.46474C11.9157 7.2335 11.5794 7.1135 11.2369 7.1285C10.6382 7.11725 10.0695 7.38475 9.69574 7.85098C9.332 8.31971 9.08326 8.86844 8.97077 9.45092H5.80088C6.23711 6.40353 8.95827 4.21485 12.0282 4.4436C13.1406 4.3661 14.2443 4.68234 15.1468 5.33732C15.973 6.02729 16.2318 7.03726 15.9218 8.36721C15.6055 9.55967 14.8406 10.5834 13.7868 11.2246C13.4769 11.4434 12.8244 11.8221 11.8269 12.3608C11.4644 12.5658 10.9719 12.8258 10.3495 13.142C9.72699 13.4608 9.30575 13.6845 9.08326 13.8208H14.6243L13.9518 16.7494H3.89345C4.03969 16.0919 4.30218 15.4657 4.66842 14.9007C5.07341 14.302 5.55964 13.7645 6.11337 13.3033ZM15.9293 11.3446L23.0615 4.61484H26.3514L24.7502 11.5521H26.2489L25.6327 14.2183H24.1365L23.554 16.7482H20.1954L20.7778 14.2195H15.2655L15.9293 11.3446ZM21.3941 11.5509L22.2503 7.85098L18.5454 11.5509H21.3941ZM8.0658 24.7479C8.0808 24.8016 8.1083 24.8504 8.14705 24.8904C8.20204 24.9229 8.26704 24.9366 8.32954 24.9304H9.01326C9.11701 24.9304 9.15326 24.8791 9.12076 24.7779L8.75453 23.5954C8.70203 23.4304 8.63578 23.2704 8.55703 23.1167C8.48953 22.9892 8.37829 22.8905 8.24454 22.8392C8.36954 22.783 8.47203 22.688 8.53828 22.568C8.62828 22.413 8.70078 22.248 8.75453 22.0767L9.07326 21.0455C9.10576 20.9443 9.06951 20.893 8.96577 20.893H8.32954C8.26579 20.8855 8.20204 20.8993 8.1458 20.933C8.10705 20.973 8.07955 21.023 8.06455 21.0755L7.77081 22.0092C7.74831 22.0867 7.71456 22.1592 7.66831 22.2267C7.63331 22.2767 7.58957 22.3192 7.53957 22.3517C7.49582 22.3792 7.44832 22.3992 7.39832 22.4105C7.35082 22.4205 7.30333 22.4255 7.25458 22.4255H6.92459V21.0168C6.92459 20.9843 6.91709 20.9518 6.90334 20.9218C6.88084 20.8855 6.83959 20.8668 6.79834 20.8743H6.08462C6.04462 20.8693 6.00462 20.8843 5.97712 20.9143C5.95587 20.943 5.94587 20.9793 5.94712 21.0155V24.7979C5.93837 24.8641 5.98587 24.9241 6.05212 24.9329C6.06337 24.9341 6.07462 24.9341 6.08587 24.9329H6.79959C6.84084 24.9404 6.88209 24.9216 6.90459 24.8879C6.91834 24.8604 6.92584 24.8304 6.92584 24.7991V23.2517H7.23833C7.34332 23.2504 7.44707 23.2767 7.53832 23.3279C7.65206 23.4117 7.73206 23.5342 7.76081 23.6729L8.0658 24.7479ZM10.6907 24.0167H11.8844L12.0819 24.7429C12.0957 24.7941 12.1182 24.8429 12.1482 24.8854C12.1844 24.9204 12.2357 24.9379 12.2869 24.9304H13.0306C13.0619 24.9366 13.0944 24.9216 13.1094 24.8941C13.1169 24.8579 13.1144 24.8191 13.1031 24.7841L11.8957 21.0605C11.8807 21.0118 11.8569 20.9668 11.8269 20.9268C11.7819 20.888 11.7219 20.8693 11.6619 20.878H10.9057C10.8482 20.8705 10.7895 20.888 10.7432 20.923C10.7107 20.9618 10.6857 21.0068 10.672 21.0543L9.5145 24.7729C9.4945 24.8141 9.492 24.8616 9.50825 24.9041C9.53325 24.9254 9.56575 24.9354 9.59824 24.9316H10.2645C10.3107 24.9341 10.3582 24.9216 10.3957 24.8954C10.4345 24.8591 10.462 24.8129 10.4745 24.7616L10.6907 24.0167ZM11.6744 23.2779H10.8932L11.0732 22.598L11.2719 21.8567H11.3019L11.4932 22.6067L11.6744 23.2779ZM15.6918 22.4242H14.5206V21.0155C14.5206 20.983 14.5131 20.9505 14.4993 20.9205C14.4768 20.8855 14.4356 20.868 14.3943 20.8755H13.6993C13.6606 20.8718 13.6231 20.8868 13.5969 20.9155C13.5756 20.9443 13.5656 20.9805 13.5669 21.0168V24.7991C13.5569 24.8629 13.6006 24.9229 13.6656 24.9329C13.6768 24.9341 13.6881 24.9341 13.6993 24.9329H14.3956C14.4356 24.9404 14.4768 24.9241 14.5006 24.8904C14.5143 24.8616 14.5218 24.8304 14.5218 24.7991V23.2367H15.6918V24.7991C15.6818 24.8629 15.7255 24.9229 15.7905 24.9329C15.8018 24.9341 15.813 24.9341 15.8243 24.9329H16.5205C16.5605 24.9404 16.6017 24.9229 16.6255 24.8904C16.6392 24.8616 16.6467 24.8304 16.6455 24.7991V21.0168C16.6455 20.9843 16.638 20.9518 16.6255 20.9218C16.603 20.8868 16.5617 20.8693 16.5205 20.8768H15.8243C15.7855 20.873 15.748 20.888 15.7218 20.9168C15.7005 20.9468 15.6905 20.9818 15.6918 21.018V22.4242ZM18.2942 24.0167H19.4891L19.6879 24.7429C19.7016 24.7941 19.7241 24.8429 19.7541 24.8854C19.7904 24.9204 19.8416 24.9379 19.8916 24.9304H20.6354C20.6666 24.9366 20.6991 24.9216 20.7141 24.8941C20.7216 24.8579 20.7203 24.8191 20.7078 24.7841L19.5004 21.0605C19.4854 21.0118 19.4616 20.9668 19.4316 20.9268C19.3866 20.888 19.3266 20.8693 19.2666 20.878H18.5104C18.4529 20.8705 18.3942 20.888 18.3479 20.923C18.3154 20.9618 18.2904 21.0055 18.2754 21.0543L17.118 24.7754C17.098 24.8166 17.0955 24.8641 17.1117 24.9066C17.1367 24.9279 17.1692 24.9379 17.2017 24.9341H17.8679C17.9142 24.9366 17.9617 24.9241 17.9992 24.8979C18.0379 24.8616 18.0654 24.8154 18.0779 24.7641L18.2942 24.0167ZM19.2779 23.2779H18.4992L18.6792 22.598L18.8767 21.8567H18.9067L19.0979 22.6067L19.2779 23.2779ZM22.7153 21.7043H23.369V24.7966C23.3603 24.8629 23.4078 24.9229 23.474 24.9316C23.4852 24.9329 23.4965 24.9329 23.5077 24.9316H24.2215C24.2615 24.9391 24.3027 24.9229 24.3265 24.8891C24.3402 24.8604 24.3477 24.8291 24.3477 24.7979V21.0218C24.3602 20.958 24.319 20.8955 24.2552 20.883C24.2452 20.8805 24.234 20.8805 24.2227 20.8805H21.9903C21.9241 20.873 21.8641 20.9218 21.8578 20.988C21.8566 20.9993 21.8566 21.0105 21.8591 21.0218C21.8391 21.4043 21.8166 21.7842 21.7928 22.163C21.7691 22.5405 21.7441 22.9242 21.7178 23.3117C21.7103 23.4617 21.6928 23.6104 21.6666 23.7567C21.6503 23.8542 21.6166 23.9479 21.5678 24.0342C21.5278 24.1017 21.4691 24.1579 21.4003 24.1967C21.3216 24.2379 21.2366 24.2679 21.1503 24.2879C21.1116 24.2967 21.0753 24.3117 21.0428 24.3329C21.0228 24.3642 21.0141 24.4029 21.0191 24.4404C21.0191 24.5104 21.0191 24.5767 21.0278 24.6416C21.0366 24.7066 21.0366 24.7741 21.0366 24.8429C21.0316 24.8879 21.0453 24.9341 21.0753 24.9679C21.1353 25.0004 21.2028 25.0129 21.2703 25.0041C21.4803 25.0066 21.6891 24.9729 21.8878 24.9066C22.0416 24.8529 22.1778 24.7591 22.284 24.6354C22.3903 24.5042 22.4653 24.3517 22.5065 24.1867C22.559 23.9792 22.5953 23.7679 22.614 23.5554C22.639 23.3129 22.6553 23.0392 22.6653 22.7317C22.6753 22.4242 22.6915 22.0842 22.7165 21.7093L22.7153 21.7043Z" fill="#D11831"/>
</svg>
