<svg width="62" height="62" viewBox="0 0 62 62" fill="none" xmlns="http://www.w3.org/2000/svg">
<path fill-rule="evenodd" clip-rule="evenodd" d="M27.77 23.2858C27.2657 24.326 26.9192 25.4606 26.7615 26.7529C26.7298 26.7529 26.4777 26.7846 26.4777 26.7846L26.4752 26.7848C25.3728 26.8794 24.2707 26.974 23.1997 27.3832L23.2627 27.7931C25.0279 29.9679 27.7067 31.2916 27.7067 31.2916L27.2024 30.3144C27.0764 30.22 26.6982 30.1253 26.6982 30.1253C25.5005 29.7471 24.6495 28.1713 24.5234 27.9192C25.5005 27.9192 26.383 28.2027 27.2024 28.4865C27.3406 28.5249 27.4769 28.5651 27.6118 28.605C28.0308 28.7287 28.4361 28.8484 28.8413 28.8963C29.7235 29.0432 30.6333 28.916 31.4934 28.7957C31.5552 28.787 31.6166 28.7784 31.6778 28.77C32.4028 28.6756 33.0964 28.6756 33.7901 28.7383C33.8029 28.7513 33.8277 28.779 33.8626 28.8182C34.0828 29.0653 34.7085 29.7673 35.3342 30.0937C36.2167 30.5349 38.7697 31.3227 38.8957 31.3543C38.9585 31.386 39.9359 32.3943 40.566 33.5291C37.6659 34.8531 34.4201 35.5459 31.1735 35.5459C27.9272 35.5459 24.6809 34.8528 21.7813 33.5291C20.8358 31.0708 20.3316 28.4862 20.3316 25.8388C20.3316 23.2228 20.8358 20.6382 21.7813 18.1801C24.6809 16.8562 27.9272 16.1631 31.1735 16.1631C34.4515 16.1631 37.6978 16.8565 40.566 18.1801C41.5115 20.6384 42.0155 23.2228 42.0155 25.8388C42.0178 28.2326 41.6129 30.6094 40.8179 32.8674C39.904 31.2913 39.5261 30.8187 39.5261 30.8187C39.4947 30.8187 38.2338 30.1567 37.9186 29.8729C37.6815 29.6656 37.5564 29.2639 37.4111 28.7978C37.4017 28.7677 37.3923 28.7373 37.3827 28.7067C37.1936 27.9819 36.942 27.0992 36.2483 26.3745L37.0361 26.059C36.8156 24.5779 35.0507 23.6324 35.0193 23.6324L34.9874 23.664C35.681 24.5148 35.8071 25.2082 35.8071 25.6497C35.8071 25.8702 35.7757 26.0276 35.7443 26.0907C35.555 25.9963 34.2629 25.5864 31.2687 25.7125C30.8589 25.7125 30.2285 25.6811 29.8503 25.3343C29.6296 25.1452 29.5352 24.83 29.5352 24.4832C29.5352 23.4433 29.9764 22.0563 30.0394 21.8675L30.7961 21.9619C31.7416 21.4576 32.0882 20.9847 32.1195 20.922C31.3318 21.0166 30.2918 21.2055 30.2918 21.2055C30.3549 21.0478 30.544 20.4491 30.544 19.7871C30.544 19.0621 30.3235 18.2743 29.4094 17.8014L29.3461 17.8331C29.3777 17.8645 29.8817 18.4318 29.8817 19.1882C29.8817 19.4089 29.8503 19.661 29.7557 19.8815C29.4405 19.7871 29.2514 19.7557 28.9046 19.7557C28.7158 19.1251 28.1801 18.6209 27.4551 18.3687L27.4234 18.4001C27.4234 18.4001 28.2115 18.9677 28.2429 19.7557C27.8859 19.7853 27.6694 19.8432 27.2486 19.9556C27.2236 19.9623 27.1978 19.9691 27.1713 19.9762C26.9506 19.661 26.5093 19.4089 25.9104 19.3459V19.4092C25.9104 19.4092 26.6038 19.6297 26.7298 20.1656C26.3205 20.3547 25.816 20.6382 25.5322 20.8906L25.5638 20.9222C27.3288 20.2602 28.9676 20.1028 29.3775 20.6071C29.4719 20.7015 29.5035 20.7962 29.5035 20.9222C29.5035 21.048 29.4402 21.2374 29.3144 21.4265C28.4636 21.6156 27.1399 21.9621 26.0684 22.372L26.2258 22.8132C26.2258 22.8132 27.2974 23.034 27.7072 23.1286C27.7072 23.1286 27.8647 23.16 27.77 23.2858ZM8.18018 44.6963C8.18018 44.6963 8.75033 44.9036 9.38948 44.9036C10.0805 44.9036 10.495 44.8004 10.7368 44.5581C10.9269 44.3682 11.0133 44.0398 10.9962 43.5392V40.2913H12.0153V43.6948C11.9982 45.1975 11.2727 45.8369 9.57962 45.8369C8.75033 45.8369 8.18018 45.6987 8.18018 45.6987V44.6963ZM14.9865 41.2762C16.6103 41.2762 17.5604 42.14 17.5604 43.5911C17.5604 44.6276 16.8868 45.8369 14.9865 45.8369C13.069 45.8369 12.3954 44.6276 12.3954 43.5911C12.3951 42.14 13.3624 41.2762 14.9865 41.2762ZM16.5584 43.5394C16.5584 42.6585 15.9885 42.1574 14.9865 42.1574C13.9844 42.1574 13.3974 42.6585 13.3974 43.5394C13.3974 44.7656 14.3992 44.9389 14.9865 44.9389C15.5737 44.9389 16.5584 44.7654 16.5584 43.5394ZM21.6197 41.38V43.1073H19.0112V41.38H18.0095V45.7332H19.0112V43.9882H21.6197V45.7332H22.6392V41.38H21.6197ZM36.7871 44.8349V43.9882H39.1017V43.1073H36.7871V42.2606H39.7756V41.38H35.7677V45.7332H39.7756V44.8349H36.7871ZM41.3133 44.8349V43.9882H43.6282V43.1073H41.3133V42.2606H44.3187V41.38H40.311V45.7332H44.3187V44.8349H41.3133ZM50.8142 44.8349V43.9882H53.129V43.1073H50.8142V42.2606H53.8201V41.38H49.8119V45.7332H53.8201V44.8349H50.8142ZM32.3302 41.1901C33.643 41.1901 34.4033 41.8461 34.4033 42.9862C34.4033 44.5931 33.1078 44.8349 32.3302 44.8349H30.8962V41.1901H32.3302ZM32.3302 40.2913H29.8944V45.7332H32.3302C34.6105 45.7332 35.405 44.2821 35.405 43.0557C35.4048 41.3278 34.2476 40.2913 32.3302 40.2913ZM48.2226 44.0748C49.0002 43.885 49.2762 43.2972 49.2762 42.7789C49.2762 41.898 48.7063 41.38 47.7219 41.38H44.8717V45.7329H45.8732V44.1436H47.0654L48.2747 45.7329H49.5014L48.2226 44.0748ZM45.8735 43.2455V42.2606H47.7222C48.0672 42.2606 48.275 42.451 48.275 42.7444C48.275 43.1766 47.9294 43.2455 47.7222 43.2455H45.8735ZM26.8714 45.7332L24.2453 42.7618V45.7332H23.2438V41.38H24.2453L26.8714 44.3166V41.38H27.8732V45.7332H26.8714Z" fill="#2C3333"/>
</svg>
