<svg width="62" height="62" viewBox="0 0 62 62" fill="none" xmlns="http://www.w3.org/2000/svg">
<path fill-rule="evenodd" clip-rule="evenodd" d="M6.91413 26.2354L6.70617 26.2704L6.42815 26.3579L6.27272 26.4586L6.16764 26.5331L5.97719 26.7235L5.73201 27.0541L5.62912 27.2971L5.55687 27.5554L3.92379 33.9411L3.8209 34.3395L3.78368 34.4599L3.76617 34.5628L3.73333 34.7029V34.8277L3.71582 34.9306L3.74866 35.2261L3.8209 35.3837L3.90627 35.5041L3.99603 35.607L4.13175 35.6792L4.28937 35.7318L4.46231 35.7471L4.61993 35.7646H11.7499L11.82 35.7471L11.8353 35.7318L11.8703 35.5895L12.0827 34.8277L12.133 34.5825L12.2731 34.0593L12.4636 33.3128L12.4986 33.2099L12.5139 33.1202L12.4986 33.1026L12.4636 33.0895H9.12515L9.10764 33.0698V33.0348L9.14266 32.8969L9.22585 32.5838L9.28058 32.3759L9.52357 31.3645L9.66368 30.8588L9.88915 29.9897L10.0796 29.2629L10.2701 28.5471L10.3051 28.4967L10.3423 28.4792H12.6715L12.7066 28.4639L12.7219 28.4267L12.8795 27.8028L13.0371 27.2292L13.1422 26.8089L13.2779 26.2529L13.2626 26.2354H6.91413ZM15.3992 26.2354L15.3138 26.2529L15.2985 26.2704L15.2635 26.4083L15.2087 26.6513L13.1772 34.5628L13.1225 34.8277L13.105 35.051L13.1597 35.2589L13.2451 35.4341L13.418 35.607L13.5581 35.6792L13.7836 35.7318L13.9412 35.7471L14.0463 35.7646H20.1846L20.2196 35.7471V35.7143L20.3225 35.294L20.3751 35.1385L20.4955 34.6525L20.8983 33.1202L20.8808 33.1026L20.8611 33.0895H18.6369L18.5647 33.0698L18.5471 33.0523L18.7048 32.459L20.2196 26.4959L20.27 26.3207L20.2875 26.2704L20.27 26.2354H15.3992ZM24.6198 26.2354L24.495 26.2529L24.3746 26.2704L24.252 26.3032L24.0966 26.3579L23.8317 26.5156L23.7135 26.6009L23.5756 26.7235L23.4508 26.8636L23.3829 27.0015L23.2954 27.1745L23.1049 27.8159L21.1566 35.2436L21.034 35.7471L21.0515 35.7646H25.664L25.7494 35.7471L25.7625 35.7318L25.9946 34.913L26.0624 34.6L26.2003 34.0965L26.4083 33.2603L26.4433 33.1574L26.4608 33.1377L26.4937 33.1202H28.5142L28.5317 33.1377L28.5493 33.1705V35.7318L28.5624 35.7646H33.2625L33.2953 35.7471L33.3128 35.7143V26.2879L33.2953 26.2529L33.2625 26.2354H28.5624L28.5493 26.2704V30.8588L28.5317 30.8938H27.0519L27.0322 30.8763L27.0519 30.8084L27.0891 30.7034L27.2621 30.097L27.4197 29.4337L27.5051 29.1206L27.6079 28.7572L27.6933 28.3763L27.886 27.6451L27.9757 27.3846L28.1684 26.6513L28.2669 26.2704L28.2494 26.2529L28.2165 26.2354H24.6198ZM37.7611 26.2354L37.5378 26.2704L37.262 26.3404L37.0168 26.4762L36.9139 26.5484L36.7388 26.7082L36.6315 26.8439L36.5505 27.0716L36.4257 27.47L34.3745 35.3334L34.2694 35.6574V35.7318L34.287 35.7471L34.3198 35.7646H38.8053L38.8797 35.7471L38.8951 35.7318L39.2256 34.5146L39.2431 34.4249L39.4008 33.8688L39.5562 33.2449L39.5912 33.1574L39.6065 33.1377L39.6591 33.1202H41.6621L41.6796 33.1574V35.7143L41.695 35.7471L41.7125 35.7646H46.4257L46.4432 35.7471L46.4607 35.7143V26.2879L46.4432 26.2529L46.4257 26.2354H41.7125L41.695 26.2529L41.6796 26.2879V30.8938L41.6621 30.9157H40.1801L40.1472 30.8938V30.8763L40.2523 30.4604L41.2418 26.7586L41.3622 26.3032V26.2529L41.3316 26.2354H37.7611ZM50.5281 26.2354L50.3727 26.2529L50.2326 26.2879L50.0421 26.3733L49.7991 26.5484L49.6415 26.741L49.5167 26.9315L49.4488 27.1219L49.3985 27.2467L49.2037 28.0436L49.1708 28.1486L48.7374 29.889L48.6301 30.2196L48.617 30.375V30.6705L48.6673 30.7909L48.8052 31.0339L48.9629 31.1587L49.0679 31.209L49.2431 31.2572H52.1962L52.2181 31.2791V31.3316L52.1459 31.6775L51.9182 32.6342L51.8153 32.9998L51.7978 33.0698L51.7627 33.0895H48.0237L47.9537 33.1026L47.9186 33.1202V33.188L47.8508 33.4704L47.448 35.0335L47.2729 35.7318V35.7471L47.3123 35.7646H54.9961L55.1187 35.7471H55.3288L55.7097 35.6792L55.9549 35.5742L56.1607 35.4341L56.3183 35.294L56.4606 35.1188L56.5788 34.9459L56.6839 34.7029L56.7715 34.357L56.9597 33.5908L57.1721 32.7568L57.2049 32.6517L57.4654 31.6075L57.5048 31.3995L57.5355 31.2966L57.5727 31.104V30.8084L57.5355 30.6158L57.4654 30.4275L57.3625 30.3203L57.2575 30.2349L57.0845 30.1473L56.8744 30.1145H53.8315L53.7614 30.097L53.7461 30.0795L53.7986 29.8518L53.9891 29.0878L54.162 28.4464L54.1795 28.407H57.6931L57.7434 28.3763L57.7785 28.3085L57.8288 28.1158L57.9536 27.5926L58.1462 26.8264L58.2842 26.2529L58.2666 26.2354H50.5281Z" fill="#2C3333"/>
</svg>
