<svg width="60" height="17" viewBox="0 0 60 17" fill="none" xmlns="http://www.w3.org/2000/svg">
<path d="M37.2189 16.4082H35.7658L36.0939 14.9082H37.547L37.2189 16.4082ZM38.6252 16.4082L39.7502 11.0176H41.1095L40.9689 11.8144H41.0158C41.2502 11.5801 41.4845 11.3457 41.7658 11.1582C42.1408 10.9707 42.5158 10.8769 42.9377 10.8769C43.2189 10.8769 43.7345 10.9238 44.1095 11.2988C44.3439 11.5801 44.4845 11.9551 44.4377 12.3301C44.4377 12.5176 44.3908 12.6582 44.3908 12.7988L43.6408 16.4082H42.2345L42.8908 13.1269C42.9377 13.0332 42.9377 12.8926 42.9377 12.7988C42.9377 12.6113 42.8908 12.3769 42.7033 12.2363C42.5627 12.0957 42.3752 12.0488 42.1408 12.0488C41.8127 12.0488 41.4845 12.1426 41.2033 12.3769C40.7814 12.7051 40.6408 13.1269 40.547 13.5019L39.9377 16.4082H38.5783H38.6252ZM46.4064 14.2519C46.3595 14.3457 46.3595 14.3926 46.3595 14.4863C46.3595 14.7676 46.5002 15.0488 46.7345 15.2363C47.0158 15.4238 47.3908 15.5176 47.7658 15.5176C48.0939 15.5176 48.3752 15.4707 48.7033 15.3769C48.9845 15.3301 49.2658 15.2363 49.547 15.1426L49.3127 16.2207C48.7033 16.4551 48.0939 16.5488 47.4377 16.5488C46.7814 16.5488 46.0314 16.4082 45.5627 15.9863C45.2345 15.7051 44.9064 15.1894 44.9064 14.2988C44.9064 13.4551 45.2345 12.6113 45.8439 12.0019C46.5002 11.3457 47.3439 10.9707 48.2814 10.9707C49.1252 10.9707 49.5939 11.2988 49.8752 11.6269C50.1095 11.9082 50.3439 12.3769 50.3439 13.0332C50.3439 13.3144 50.297 13.5957 50.2502 13.8769L50.2033 14.2988H46.4533V14.2519H46.4064ZM48.797 13.1738C48.8439 13.0801 48.8439 12.9394 48.8439 12.8457C48.8439 12.6113 48.797 12.3769 48.6564 12.1894C48.5158 12.0488 48.3283 11.9082 47.9533 11.9082C47.6252 11.9082 47.297 12.0488 47.0627 12.3301C46.8283 12.5644 46.6877 12.8457 46.5939 13.1738H48.797ZM50.7189 11.9551L50.9064 11.0644H51.7502L51.9845 9.84569L53.3908 9.70507L53.0627 11.1113H54.3283L54.1408 12.0019H52.9689L52.4533 14.5801C52.4064 14.7207 52.4064 14.9082 52.4064 15.0488C52.4064 15.1894 52.4533 15.3301 52.547 15.4238C52.6877 15.5176 52.8283 15.5644 52.9689 15.5644C53.1564 15.5644 53.3908 15.5176 53.5783 15.4707L53.3439 16.5019C53.0158 16.5957 52.6408 16.5957 52.3127 16.6426C51.8908 16.6426 51.5158 16.5488 51.2814 16.3144C51.047 16.0801 50.9064 15.7988 50.9533 15.4707C50.9533 15.2832 50.9533 15.1426 51.0002 14.9551L51.5627 12.0488H50.8127L50.7189 11.9551Z" fill="#EA4949"/>
<path d="M18.7033 8.86132L17.2502 16.4551H14.4377L15.5158 10.9707H14.1564L13.922 12.2363C13.547 14.0644 13.2658 16.4082 10.5002 16.4082C10.0314 16.4082 9.56267 16.3613 9.09392 16.2207L9.46892 14.3457C9.65642 14.3926 9.89079 14.3926 10.0783 14.3926C10.4064 14.3926 10.6877 14.2051 10.8283 13.9238C10.9689 13.6894 11.2033 13.1738 11.5783 11.2519L12.0939 8.76757H18.7033V8.86132ZM22.547 8.86132H19.7814L19.3595 11.0644H22.172L22.547 8.86132ZM18.422 15.5644L18.2814 16.4551H21.0939L22.1252 11.2988C19.6877 11.5801 18.8439 13.4082 18.422 15.5644ZM34.8752 16.4551H31.922L31.7345 14.8613H29.5314L28.7345 16.4551H25.922L30.0002 8.86132H33.797L34.8752 16.4551ZM31.7814 13.0332L31.5002 10.7363H31.4533L30.2345 13.0332H31.7814ZM27.8439 11.0644L28.9689 8.86132H23.6252L22.1252 16.4551H24.9377L26.0158 11.0644H27.8439Z" fill="#EA4949"/>
<path d="M4.21892 11.6269C3.65642 11.5332 3.09392 11.3457 2.57829 11.0176C3.84392 10.9707 5.67204 10.4551 5.95329 9.00195C6.00017 8.86132 6.00017 8.67382 5.95329 8.5332C7.17204 8.48632 9.14079 7.9707 9.42204 6.51757C9.65642 5.20507 8.01579 4.73632 7.59392 3.70507C7.45329 3.33007 7.45329 2.62695 7.78142 2.34569C9.56267 3.42382 10.5002 5.48632 10.172 7.54882C9.56267 10.2676 6.98454 12.0957 4.21892 11.6269ZM2.43767 10.9707C0.0470423 9.51757 -0.702958 6.37695 0.750167 3.93945C1.82829 2.1582 3.89079 1.22069 5.95329 1.59569C6.51579 1.68944 7.07829 1.92382 7.59392 2.20507C6.37517 2.25194 4.54704 2.76757 4.31267 4.2207C4.21892 4.36132 4.21892 4.54882 4.26579 4.68944C3.00017 4.73632 1.07829 5.20507 0.797042 6.70507C0.562667 8.06445 2.20329 8.48632 2.62517 9.51757C2.76579 9.93945 2.76579 10.6426 2.43767 10.9707ZM4.31267 4.7832C4.54704 5.7207 5.81267 6.18945 6.14079 7.08007C6.28142 7.45507 6.28142 8.20507 5.90642 8.48632C5.67204 7.54882 4.40642 7.08007 4.07829 6.18945C3.93767 5.76757 3.93767 5.11132 4.31267 4.7832Z" fill="#EA4949"/>
</svg>
