<svg width="45" height="13" viewBox="0 0 45 13" fill="none" xmlns="http://www.w3.org/2000/svg">
<path d="M24.3818 8.28953C24.3818 9.68323 22.6474 9.60052 22.6474 9.60052H20.9131V7.08218H22.6474C24.4323 7.07021 24.3818 8.28953 24.3818 8.28953ZM20.9131 3.24152H22.2347C23.607 3.31402 23.5552 4.33574 23.5552 4.33574C23.5552 5.60546 22.0378 5.62616 22.0378 5.62616H20.9131V3.24152ZM24.061 6.12139C24.061 6.12139 25.2481 5.61554 25.2375 4.27382C25.2375 4.27382 25.418 2.07494 22.5047 1.80674H19.272V11.0249H22.9774C22.9774 11.0249 26.0735 11.0342 26.0735 8.42399C26.0735 8.42399 26.1467 6.64771 24.061 6.12139ZM15.6948 0.000488281H29.3052V12.8261H15.6948V0.000488281ZM8.68685 8.28953C8.68685 9.68323 6.9525 9.60052 6.9525 9.60052H5.21807V7.08218H6.9525C8.73747 7.07021 8.68685 8.28953 8.68685 8.28953ZM5.21807 3.24152H6.5399C7.91226 3.31402 7.86033 4.33574 7.86033 4.33574C7.86033 5.60546 6.34298 5.62616 6.34298 5.62616H5.21807V3.24152ZM8.36617 6.12139C8.36617 6.12139 9.55346 5.61554 9.54279 4.27382C9.54279 4.27382 9.7232 2.07494 6.80985 1.80674H3.57701V11.0249H7.28271C7.28271 11.0249 10.3788 11.0342 10.3788 8.42399C10.3788 8.42399 10.4517 6.64771 8.36617 6.12139ZM0 0.000488281H13.6104V12.8261H0V0.000488281ZM42.2235 2.46761V4.17068C42.2235 4.17068 40.5612 3.14909 38.7242 3.12853C38.7242 3.12853 35.2969 3.06125 35.1424 6.41375C35.1424 6.41375 35.0186 9.49684 38.6829 9.67252C38.6829 9.67252 40.2203 9.85769 42.306 8.52767V10.2914C42.306 10.2914 39.5082 11.9537 36.2671 10.6734C36.2671 10.6734 33.5426 9.6785 33.4388 6.41375C33.4388 6.41375 33.3255 3.0559 36.9592 1.94125C36.9592 1.94125 37.9295 1.56977 39.6733 1.73488C39.6733 1.73483 40.7155 1.83793 42.2235 2.46761ZM31.3896 12.8261H45V0.000488281H31.3896V12.8261Z" fill="#A71111"/>
</svg>
