<svg width="62" height="62" viewBox="0 0 62 62" fill="none" xmlns="http://www.w3.org/2000/svg">
<path fill-rule="evenodd" clip-rule="evenodd" d="M16.6733 38.4661V42.8758H20.7705C21.8299 42.8758 22.671 42.1204 22.671 41.1895V40.1524C22.671 39.2207 21.8292 38.4661 20.7705 38.4661H16.6733ZM18.5159 39.6025V41.7409H19.827C20.3407 41.7409 20.7483 41.3748 20.7483 40.9235V40.4207C20.7483 39.9694 20.3399 39.6033 19.827 39.6033H18.5159V39.6025Z" fill="#2C3333"/>
<path d="M30.6033 38.4661L30.6004 40.8958C30.6004 41.6819 30.9404 41.8642 31.2529 41.8642H31.8617C32.1304 41.8642 32.5083 41.6766 32.5083 40.8764L32.4867 38.4661H34.3018L34.3709 41.3135C34.3709 42.4679 33.3939 43.0409 32.4526 43.0409H30.6486C29.7206 43.0409 28.711 42.4791 28.711 41.3486L28.7214 38.4661H30.6033Z" fill="#2C3333"/>
<path d="M39.9283 39.6025H38.229V42.8766H36.3374V39.6025H34.6381V38.4668H39.9283" fill="#2C3333"/>
<path d="M42.7976 39.6025H40.1934V38.4668H45.3269V39.4322L42.5868 41.7349H45.2185V42.8766H40.0041V41.9501L42.7976 39.6025Z" fill="#2C3333"/>
<path d="M23.1372 38.4661V42.8758H28.1409V41.7865H25.005V41.241H27.9233V40.1039H25.005V39.5584H28.1409V38.4661H23.1372Z" fill="#2C3333"/>
<path d="M19.2152 44.0324V48.4421H21.0445V46.8499H23.8017V45.7837H21.0445V45.124H23.9828V44.0332H19.2152V44.0324Z" fill="#2C3333"/>
<path d="M32.3657 45.6343V44.0324H30.4771V48.4421H32.3657V46.7125H34.3716V48.4421H36.2602V44.0324H34.3716V45.6343H32.3657Z" fill="#2C3333"/>
<path fill-rule="evenodd" clip-rule="evenodd" d="M36.8764 46.4383V44.0324H40.9335C41.7932 44.0324 42.4762 44.5681 42.4762 45.0762V45.5178C42.4762 46.0251 41.7954 46.4368 40.9372 46.4375H40.9788L42.6143 48.4093V48.4421H40.5935L39.5104 46.8993H38.7093V48.4421H36.8809V46.4383H36.8764ZM38.6997 45.0172V45.6918H40.0924C40.3337 45.6918 40.5252 45.576 40.5252 45.4341V45.3101C40.5252 45.1673 40.3337 45.0172 40.0924 45.0172H38.6997Z" fill="#2C3333"/>
<path fill-rule="evenodd" clip-rule="evenodd" d="M28.0503 44.0324L30.0235 48.4421H28.0755L27.9196 48.0155H25.913L25.7474 48.4421H23.8017V48.4123L25.7615 44.0324H28.0503ZM26.3465 46.897L26.9471 45.3467L27.5121 46.897H26.3465Z" fill="#2C3333"/>
<path d="M31.5402 24.486V13.5581L29.4437 21.0394L31.5402 24.486Z" fill="#2C3333"/>
<path d="M31.5402 24.486V13.5581L33.6367 21.0394L31.5402 24.486Z" fill="#2C3333"/>
<path d="M28.9783 22.7638L26.8818 30.2451L26.7682 30.5455C26.6346 30.8981 26.4089 31.2082 26.1156 31.4436L24.8484 32.4589L24.1654 36.1544L28.1067 32.7705C28.4809 32.4492 28.731 32.0054 28.8127 31.5175L29.9226 24.9007L28.9783 22.7638Z" fill="#2C3333"/>
<path d="M28.9783 22.7638L26.8818 30.2451L26.7682 30.5455C26.6346 30.8981 26.4089 31.2082 26.1156 31.4436L24.8484 32.4589L24.1654 36.1544L28.1067 32.7705C28.4809 32.4492 28.731 32.0054 28.8127 31.5175L29.9226 24.9007L28.9783 22.7638Z" fill="#2C3333"/>
<path d="M34.1029 22.7638L36.1994 30.2451L36.3129 30.5455C36.4466 30.8981 36.6723 31.2082 36.9655 31.4436L38.2327 32.4589L38.9157 36.1544L34.9744 32.7705C34.6003 32.4492 34.3501 32.0054 34.2684 31.5175L33.1586 24.9007L34.1029 22.7638Z" fill="#2C3333"/>
<path d="M34.1029 22.7638L36.1994 30.2451L36.3129 30.5455C36.4466 30.8981 36.6723 31.2082 36.9655 31.4436L38.2327 32.4589L38.9157 36.1544L34.9744 32.7705C34.6003 32.4492 34.3501 32.0054 34.2684 31.5175L33.1586 24.9007L34.1029 22.7638Z" fill="#2C3333"/>
<path d="M28.8669 22.3469L26.8818 29.6511L26.7741 29.9358C26.6368 30.2982 26.4022 30.6157 26.0971 30.8533L24.8833 31.7962L24.6361 35.2018L27.688 32.5292C28.0473 32.2146 28.2893 31.7858 28.374 31.3143L29.5343 24.8633L28.8669 22.3469Z" fill="#2C3333"/>
<path d="M34.2142 22.3469L36.1994 29.6511L36.307 29.9358C36.4443 30.2982 36.6789 30.6157 36.9841 30.8533L38.1978 31.7962L38.4451 35.2018L35.3931 32.5292C35.0338 32.2146 34.7918 31.7858 34.7072 31.3143L33.5468 24.8633L34.2142 22.3469Z" fill="#2C3333"/>
</svg>
