<svg width="62" height="62" viewBox="0 0 62 62" fill="none" xmlns="http://www.w3.org/2000/svg">
<path d="M55.1022 28.8913C52.7103 28.8913 50.769 30.8296 50.769 33.2215C50.769 33.4937 50.7962 33.7567 50.8475 34.0138H53.0308C52.9371 33.7688 52.8827 33.5027 52.8827 33.2215C52.8827 31.9968 53.8776 31.005 55.1022 31.005C56.3299 31.005 57.3218 31.9968 57.3218 33.2215C57.3218 34.4492 56.3299 35.441 55.1022 35.441C54.8271 35.441 54.5609 35.3866 54.316 35.2959V37.4791C54.57 37.5275 54.8331 37.5547 55.1022 37.5547C56.0245 37.5547 56.7503 37.2221 57.4064 36.5266V37.5245H59.4355V33.2215C59.4355 30.8296 57.4941 28.8913 55.1022 28.8913ZM39.4747 28.8036C37.0586 28.8036 35.1021 30.7631 35.1021 33.1792C35.1021 33.4513 35.1263 33.7204 35.1745 33.9775H37.382C37.2883 33.7295 37.2369 33.4604 37.2369 33.1792C37.2369 31.9394 38.2409 30.9385 39.4746 30.9385C40.7114 30.9385 41.7184 31.9394 41.7184 33.1792C41.7184 34.4159 40.7114 35.4199 39.4746 35.4199C39.1964 35.4199 38.9273 35.3654 38.6824 35.2717V37.4791C38.9394 37.5275 39.2055 37.5547 39.4746 37.5547C41.8907 37.5547 43.8532 35.5953 43.8532 33.1792C43.8532 30.7631 41.8908 28.8036 39.4747 28.8036ZM16.3025 33.1792V28.8036H14.1676V33.1792C14.1676 33.4513 14.1917 33.7204 14.2431 33.9775H16.4505C16.3537 33.7295 16.3025 33.4604 16.3025 33.1792ZM20.4875 28.8036V33.1792C20.4875 34.4159 19.4835 35.4199 18.2467 35.4199C17.9655 35.4199 17.6994 35.3655 17.4514 35.2717V37.4791C17.7085 37.5275 17.9746 37.5547 18.2467 37.5547C20.6628 37.5547 22.6223 35.5953 22.6223 33.1792V28.8036L20.4875 28.8036ZM29.2991 28.8036C28.4887 28.8036 27.7327 29.0244 27.0826 29.4084V25.2959H24.8993V33.9775H27.2066C27.1129 33.7295 27.0585 33.4604 27.0585 33.1792C27.0585 31.9394 28.0594 30.9385 29.2992 30.9385C30.536 30.9385 31.5399 31.9394 31.5399 33.1792C31.5399 34.4159 30.536 35.4199 29.2992 35.4199C29.018 35.4199 28.7518 35.3655 28.5039 35.2717V37.4791C28.7609 37.5275 29.024 37.5547 29.2992 37.5547C31.7153 37.5547 33.6717 35.5953 33.6717 33.1792C33.6717 30.7631 31.7152 28.8036 29.2991 28.8036ZM14.1766 25.2959H11.4007L5.84276 31.4253L11.4007 37.5517H14.1766L8.63683 31.4253L14.1766 25.2959ZM49.9373 28.8036H47.7903V25.2959H45.6101V37.5245H47.7903V30.9869H49.9373V28.8036ZM5.15329 33.9896H2.97607V25.2959H5.15329V33.9896Z" fill="#2C3333"/>
</svg>
