<svg width="62" height="62" viewBox="0 0 62 62" fill="none" xmlns="http://www.w3.org/2000/svg">
<path d="M35.6041 32.7685H34.002C32.275 32.7685 31.8595 32.9941 31.8595 34.6789V35.5067C31.8595 36.9075 32.1516 37.224 33.9144 37.224H35.5798C37.4902 37.224 37.8571 37.0455 37.8571 36.3102V35.721H34.773V34.1936H39.9509V35.7664C39.9509 38.3229 39.1556 38.9235 35.8378 38.9235H33.7196C30.694 38.9235 29.8256 38.2548 29.8256 35.7778V34.5539C29.8256 31.8043 30.5593 31.0349 33.7683 31.0349H35.6285C39.0825 31.0349 39.9509 31.6339 39.9509 33.4908H37.8473C37.8343 32.8788 37.5292 32.7652 35.6074 32.7652M44.8756 38.9349C41.7527 38.9349 40.9086 38.2434 40.9086 35.6415V34.6465C40.9086 31.5787 41.79 31.0706 44.9487 31.0706H46.7617C50.0925 31.0706 50.9235 31.5349 50.9235 33.7407H48.8199C48.8085 33.1304 48.5992 32.8123 46.6643 32.8123H45.0964C43.2606 32.8123 42.9668 32.9584 42.9668 34.6221V35.4824C42.9668 37.0098 43.2589 37.224 45.0233 37.224H46.6903C48.4888 37.224 48.8443 37.078 48.8329 36.1966H50.9365C50.9495 38.2905 50.3749 38.9349 46.739 38.9349H44.8756ZM57.6905 38.9235H55.8888C52.6327 38.9235 51.8633 38.3116 51.8633 35.596V34.6465C51.8633 31.7248 52.584 31.0365 55.9261 31.0365H57.7278C61.229 31.0365 62 31.7605 62 34.6124V35.5635C62 38.4593 61.216 38.9235 57.6905 38.9235ZM57.6175 32.8123H56.1112C54.1877 32.8123 53.9183 33.1191 53.9183 34.6789V35.4938C53.9183 36.8978 54.1877 37.1916 56.0381 37.1916H57.6515C59.648 37.1916 59.9564 36.9643 59.9564 35.4613V34.6465C59.9564 33.0623 59.661 32.8123 57.6175 32.8123ZM22.2325 35.4613L23.9108 32.5412H24.0082L25.6249 35.4613H22.2325ZM25.5389 31.0706H22.3185L19.0673 36.8945L20.3042 38.9235H20.3107L21.3511 37.0341H26.5063L27.5354 38.9235H29.9214L25.5389 31.0706Z" fill="#2C3333"/>
<path d="M14.4413 30.9424L9.6562 23.0652L0 38.9267L14.4413 30.9424ZM3.5174 38.9267L14.6361 31.2638L14.5111 31.0576L1.83418 38.9267H3.5174ZM7.03966 38.9267L14.9672 31.8075L14.7838 31.5056L5.27853 38.9267H7.03966ZM10.484 38.9267L15.4266 32.5672L15.1912 32.1776L8.72288 38.9267H10.484ZM19.2718 38.9267C19.2718 38.9267 16.8825 35.0571 15.7772 33.1418L12.1656 38.9267H19.2718Z" fill="#2C3333"/>
</svg>
