<svg width="62" height="62" viewBox="0 0 62 62" fill="none" xmlns="http://www.w3.org/2000/svg">
<path d="M51.6132 25.6414L51.038 27.8749H53.9713L54.5369 25.6414H51.6132Z" fill="#2C3333"/>
<path d="M48.91 36.1571L50.9326 28.2679H53.8659L51.8336 36.1571H48.91Z" fill="#2C3333"/>
<path fill-rule="evenodd" clip-rule="evenodd" d="M35.3555 28.2679H43.6281L43.1009 30.3384H37.867L37.589 31.3737H42.6024L42.1711 33.0513H37.1576L36.8797 34.0865H42.1423L41.6151 36.1571H33.3329L35.3555 28.2679ZM23.862 33.3868H26.9774C26.9774 33.4059 26.9487 34.5371 28.607 34.5371C29.7478 34.5371 29.9107 34.1824 29.9491 34.0098C30.0162 33.7127 29.8053 33.5689 29.3739 33.4634C28.0223 33.1375 26.1626 32.5432 25.6738 32.246C25.3287 32.0351 24.8206 31.5846 24.8206 30.674C24.811 29.4661 26.2489 27.9707 29.326 27.9899C30.8693 27.9995 31.8087 28.3062 32.3839 28.5651C33.6205 29.121 33.7067 30.2905 33.678 30.789L30.6392 30.7794C30.6392 30.7794 30.6297 29.8975 29.3643 29.84C28.7221 29.8112 28.0223 29.9263 28.0223 30.4247C28.0223 30.8561 28.4537 30.9519 29.4794 31.182C29.719 31.2395 31.3678 31.575 31.895 31.7667C32.844 32.1214 33.3041 32.6103 33.1603 33.6552C32.8344 35.9654 29.834 36.3488 28.3003 36.3584C26.3831 36.368 24.3605 36.0133 23.9291 34.1057C23.8908 33.8661 23.862 33.3868 23.862 33.3868ZM20.1523 33.6072L19.903 30.6069L17.9379 33.6072H20.1523ZM22.2516 28.2583L23.6415 36.1571H20.3057L20.229 35.2177H16.9889L16.3659 36.1475H12.8478L18.6569 28.2487H22.2516V28.2583ZM13.7106 33.7319C13.5764 34.0194 13.3463 34.4029 12.982 34.7959C12.2631 35.5628 11.0169 36.3488 8.88886 36.3488C6.30067 36.3488 5.28457 35.4286 4.77652 34.5179C4.41225 33.8661 4.32598 33.1855 4.3835 32.5815C4.48894 31.4888 5.54339 28.0091 10.135 28.0091C12.7136 28.0091 13.7297 28.8526 14.1132 29.7825C14.4199 30.5302 14.3049 31.6805 14.2857 31.7763H11.2662C11.362 31.2012 11.1895 30.2234 10.1542 30.2234C9.00389 30.2138 7.92069 31.067 7.61394 32.1789C7.27843 33.4155 7.96862 34.1728 9.06141 34.192C10.2405 34.2207 10.806 33.2621 10.8252 33.2334H13.9119C13.8927 33.3197 13.7777 33.5976 13.7106 33.7319Z" fill="#2C3333"/>
<path d="M49.1784 33.4922L49.8494 30.8753H49.4468L50.1178 28.2583H47.1941L45.1523 36.1571H48.0856L48.7662 33.4922H49.1784Z" fill="#2C3333"/>
<path d="M54.0288 30.8753H53.607L52.9264 33.4922H53.3578L52.6772 36.1571H55.6009L57.6331 28.2583H54.7094L54.0288 30.8753Z" fill="#2C3333"/>
</svg>
