<svg width="45" height="29" viewBox="0 0 45 29" fill="none" xmlns="http://www.w3.org/2000/svg">
<path d="M19.4465 18.9812H18.3012V14.3342H19.9828C20.3565 14.3342 20.8375 14.3792 21.232 14.7217C21.5468 14.9916 21.6991 15.3653 21.6991 15.8601C21.6991 16.3134 21.5607 16.6871 21.2908 16.9605C20.9205 17.3273 20.4465 17.3757 20.0762 17.3757H19.4465V18.9812ZM19.4465 16.4415H19.7994C19.9136 16.4415 20.1835 16.4414 20.3565 16.2788C20.4603 16.175 20.5226 16.0193 20.5226 15.8498C20.5226 15.6767 20.4638 15.5245 20.36 15.4276C20.2077 15.2857 19.9794 15.265 19.7787 15.265H19.4465V16.4415ZM23.4638 19.085C22.9551 19.085 22.5849 18.9363 22.27 18.6075C21.9621 18.2857 21.8063 17.8913 21.8063 17.438C21.8063 16.9432 21.9863 16.4864 22.3012 16.1785C22.5849 15.9017 22.9759 15.7494 23.4119 15.7494C23.6956 15.7494 24.0797 15.8186 24.36 16.1335V15.8498H25.4361V18.9812H24.36V18.6837C24.142 18.9501 23.8444 19.085 23.4638 19.085ZM23.661 16.6698C23.4638 16.6698 23.2666 16.7494 23.1316 16.8809C23.0313 16.9812 22.9102 17.1508 22.9102 17.4138C22.9102 17.6733 23.0209 17.8428 23.1108 17.9397C23.2493 18.085 23.4638 18.1681 23.6818 18.1681C23.8686 18.1681 24.052 18.0954 24.1835 17.9639C24.2908 17.8636 24.4188 17.6871 24.4188 17.4103C24.4188 17.1992 24.3392 17.002 24.1973 16.8705C24.0382 16.7217 23.8167 16.6698 23.661 16.6698ZM28.8686 19.8463V18.9812H26.7994V19.8463H25.834V18.1646L25.8652 18.1612C26.0209 18.1439 26.1558 18.0816 26.2735 17.9778C26.5157 17.7598 26.5364 17.4414 26.5364 17.0747V15.8532H29.3738V18.1612H29.8375V19.8463H28.8686ZM27.2285 18.1612H28.2942V16.6767H27.5295V17.2269C27.5295 17.5349 27.488 17.701 27.4569 17.8013C27.4257 17.8913 27.3634 18.0228 27.2285 18.1612ZM31.3115 18.9812H30.2354V15.8498H31.3115V18.9812ZM30.7752 15.1923C30.4257 15.1923 30.1524 14.9224 30.1524 14.5833C30.1524 14.2408 30.4257 13.9743 30.7752 13.9743C31.1247 13.9743 31.398 14.2442 31.398 14.5833C31.398 14.9224 31.1247 15.1923 30.7752 15.1923ZM33.571 19.085C33.014 19.085 32.5088 18.9017 32.18 18.5799C31.879 18.2857 31.6991 17.8498 31.6991 17.4172C31.6991 16.9812 31.879 16.5487 32.18 16.2546C32.5053 15.9328 33.014 15.7494 33.571 15.7494C34.1281 15.7494 34.6333 15.9328 34.9621 16.2546C35.2631 16.5487 35.443 16.9847 35.443 17.4172C35.443 17.8532 35.2631 18.2857 34.9621 18.5799C34.6333 18.9017 34.1281 19.085 33.571 19.085ZM33.571 16.656C33.3531 16.656 33.1697 16.7252 33.0278 16.8671C32.879 17.0124 32.8063 17.1923 32.8063 17.4207C32.8063 17.6456 32.879 17.829 33.0278 17.9743C33.1697 18.1127 33.3565 18.1854 33.578 18.1854C33.7925 18.1854 33.9724 18.1162 34.1143 17.9743C34.2631 17.829 34.3358 17.6491 34.3358 17.4207C34.3358 17.1958 34.2631 17.0124 34.1143 16.8671C33.9724 16.7252 33.789 16.656 33.571 16.656ZM20.4084 26.4311C19.6403 26.4311 19.014 26.2027 18.5503 25.7563C18.0728 25.3065 17.8098 24.6802 17.8098 23.9951C17.8098 23.3307 18.0797 22.6906 18.5503 22.2477C19.007 21.8151 19.6333 21.5799 20.3185 21.5799C20.6714 21.5799 21.0451 21.6629 21.4534 21.8359L21.4742 21.8463V23.175L21.4153 23.1162C21.1108 22.7978 20.751 22.6387 20.3461 22.6387C19.9724 22.6387 19.6576 22.7563 19.4153 22.9847C19.142 23.2442 18.9828 23.6214 18.9828 24.0193C18.9828 24.5487 19.232 24.8636 19.3773 25.0055C19.4915 25.1196 19.8202 25.3792 20.3634 25.3792C20.7441 25.3792 21.0866 25.2269 21.4119 24.9155L21.4707 24.8601V26.175L21.4534 26.1819C21.007 26.4034 20.661 26.4311 20.4084 26.4311ZM23.8998 26.3273H21.9586V23.1958H23.6679C23.8617 23.1958 24.2181 23.1958 24.4672 23.4034C24.6437 23.5522 24.7302 23.7632 24.7302 24.0262C24.7302 24.2511 24.6679 24.4103 24.5295 24.5453C24.4811 24.5972 24.4223 24.6421 24.3531 24.6767C24.4949 24.7183 24.6299 24.7909 24.7268 24.8809C24.8686 25.0193 24.9413 25.2027 24.9413 25.4276C24.9413 25.6733 24.8582 25.8878 24.6991 26.0435C24.5676 26.175 24.3219 26.3273 23.8998 26.3273ZM23.0347 25.6006H23.4569C23.5399 25.6006 23.6541 25.6006 23.7371 25.528C23.7925 25.4795 23.8236 25.3999 23.8236 25.3134C23.8236 25.22 23.7752 25.1577 23.7371 25.1266C23.6472 25.0539 23.5018 25.0539 23.4153 25.0539H23.0347V25.6006ZM23.0347 24.4207H23.4153C23.4707 24.4207 23.5745 24.4138 23.6506 24.3653C23.7129 24.3203 23.7406 24.2581 23.7406 24.1681C23.7406 24.0574 23.6852 24.002 23.661 23.9812C23.6126 23.9432 23.4949 23.9259 23.4015 23.9259H23.0347V24.4207ZM27.1074 26.4311C26.5503 26.4311 26.0451 26.2477 25.7164 25.9259C25.4153 25.6318 25.2354 25.1958 25.2354 24.7632C25.2354 24.3273 25.4153 23.8947 25.7164 23.6006C26.0416 23.2788 26.5503 23.0954 27.1074 23.0954C27.6645 23.0954 28.1697 23.2788 28.4984 23.6006C28.7994 23.8947 28.9794 24.3307 28.9794 24.7632C28.9794 25.1992 28.7994 25.6318 28.4984 25.9259C28.1731 26.2477 27.6645 26.4311 27.1074 26.4311ZM27.1074 24.002C26.8894 24.002 26.706 24.0712 26.5641 24.2131C26.4153 24.3584 26.3427 24.5383 26.3427 24.7667C26.3427 24.9916 26.4153 25.175 26.5641 25.3203C26.706 25.4587 26.8928 25.5314 27.1143 25.5314C27.3288 25.5314 27.5088 25.4622 27.6506 25.3203C27.7994 25.175 27.8721 24.9951 27.8721 24.7667C27.8721 24.5418 27.7994 24.3584 27.6506 24.2131C27.5122 24.0712 27.3288 24.002 27.1074 24.002ZM31.2146 26.4311C30.6541 26.4311 30.2354 26.2857 29.9032 25.9674C29.3392 25.4207 29.3392 24.6248 29.3392 24.3619C29.3392 23.8255 29.4188 22.8428 29.9655 22.2719C30.3323 21.8878 30.796 21.7875 31.1039 21.7183L31.3531 21.6629C31.6299 21.6041 31.8306 21.5591 31.9344 21.4449C31.9897 21.3826 32.0036 21.3169 32.0036 21.2754V21.2408H32.9586L32.9551 21.2788C32.924 21.5902 32.7752 21.912 32.5745 22.1023C32.4153 22.2581 32.1627 22.3826 31.8029 22.4795L31.3807 22.5937C31.1178 22.6664 30.8167 22.7459 30.616 22.9224C30.4569 23.0643 30.3496 23.2684 30.3115 23.4864C30.578 23.22 30.9275 23.0885 31.3773 23.0885C31.8755 23.0885 32.315 23.2442 32.6126 23.5314C32.9136 23.8186 33.0866 24.2373 33.0866 24.6837C33.0866 25.175 32.9032 25.6179 32.5711 25.9363C32.1247 26.3757 31.6126 26.4311 31.2146 26.4311ZM31.2077 24.0089C30.9275 24.0089 30.751 24.1404 30.6714 24.22C30.5295 24.3619 30.443 24.566 30.443 24.7736C30.443 24.9743 30.5226 25.1681 30.6645 25.3065C30.7441 25.3861 30.924 25.5176 31.2216 25.5176C31.4119 25.5176 31.5814 25.4518 31.7268 25.3273C31.8859 25.1854 31.9828 24.9674 31.9828 24.7494C31.9828 24.5626 31.9032 24.3792 31.7614 24.2304C31.6126 24.0816 31.4292 24.0089 31.2077 24.0089ZM35.315 26.4311C34.7579 26.4311 34.2527 26.2477 33.924 25.9259C33.623 25.6318 33.443 25.1958 33.443 24.7632C33.443 24.3273 33.623 23.8947 33.924 23.6006C34.2493 23.2788 34.7579 23.0954 35.315 23.0954C35.8721 23.0954 36.3773 23.2788 36.706 23.6006C37.007 23.8947 37.187 24.3307 37.187 24.7632C37.187 25.1992 37.007 25.6318 36.706 25.9259C36.3807 26.2477 35.8721 26.4311 35.315 26.4311ZM35.315 24.002C35.097 24.002 34.9136 24.0712 34.7717 24.2131C34.623 24.3584 34.5503 24.5383 34.5503 24.7667C34.5503 24.9916 34.623 25.175 34.7717 25.3203C34.9136 25.4587 35.1005 25.5314 35.3219 25.5314C35.5364 25.5314 35.7164 25.4622 35.8582 25.3203C36.007 25.175 36.0797 24.9951 36.0797 24.7667C36.0797 24.5418 36.007 24.3584 35.8582 24.2131C35.7164 24.0712 35.533 24.002 35.315 24.002ZM40.3012 27.1958V26.3307H38.232V27.1958H37.2666V25.5107L37.2977 25.5072C37.4534 25.4899 37.5884 25.4276 37.706 25.3238C37.9482 25.1058 37.969 24.7875 37.969 24.4207V23.1992H40.8063V25.5072H41.27V27.1958H40.3012ZM38.661 25.5072H39.7268V24.0228H38.9621V24.5729C38.9621 24.8809 38.9205 25.047 38.8894 25.1473C38.8582 25.2373 38.796 25.3688 38.661 25.5072ZM43.0313 26.4311C42.5226 26.4311 42.1524 26.2823 41.8375 25.9536C41.5295 25.6318 41.3738 25.2373 41.3738 24.784C41.3738 24.2892 41.5537 23.8324 41.8686 23.5245C42.1524 23.2477 42.5434 23.0954 42.9794 23.0954C43.2631 23.0954 43.6472 23.1646 43.9275 23.4795V23.1958H45.0036V26.3273H43.9275V26.0262C43.7095 26.2961 43.4119 26.4311 43.0313 26.4311ZM43.2285 24.0158C43.0313 24.0158 42.834 24.0954 42.6991 24.2269C42.5987 24.3273 42.4776 24.4968 42.4776 24.7598C42.4776 25.0193 42.5883 25.1889 42.6783 25.2857C42.8167 25.4311 43.0313 25.5141 43.2493 25.5141C43.4361 25.5141 43.6195 25.4414 43.751 25.31C43.8582 25.2096 43.9863 25.0331 43.9863 24.7563C43.9863 24.5453 43.9067 24.348 43.7648 24.2165C43.6057 24.0677 43.3842 24.0158 43.2285 24.0158Z" fill="#5C666F"/>
<path d="M18.0589 8.86706C15.6749 9.14387 15.0036 11.611 13.2112 13.7425C10.8133 16.5868 7.25617 15.1266 7.25617 15.1266C9.6541 14.829 10.3427 12.3446 12.18 10.2235C14.6195 7.40685 18.0589 8.86706 18.0589 8.86706ZM9.41534 13.0401C9.41534 13.0401 12.398 10.6767 11.1108 7.19578C10.142 4.56948 8.27347 2.70789 9.26309 0.517578C9.26309 0.517578 6.30808 2.9155 7.53991 6.36187C8.48109 8.99854 10.405 10.8498 9.41534 13.0401ZM9.24233 12.5383C9.24233 12.5383 9.52953 8.70789 6.22503 7.25114C3.64718 6.11619 0.937833 6.22346 0.0104969 4.00547C0.0104969 4.00547 -0.356285 7.81169 3.14891 9.28574C5.74406 10.3792 8.315 10.3203 9.24233 12.5383ZM5.315 18.9709H12.0174L13.5814 15.8255H5.315V18.9709ZM6.3842 28.1992H6.94821L10.796 19.393H6.3842V28.1992Z" fill="#EA6903"/>
</svg>
