<svg width="70" height="14" viewBox="0 0 70 14" fill="none" xmlns="http://www.w3.org/2000/svg">
<path fill-rule="evenodd" clip-rule="evenodd" d="M57.5308 2.84763H58.208V3.52661H57.5308V2.84763ZM58.7207 2.84763H59.3997V3.52661H58.7207V2.84763ZM35.9059 6.56642H37.7245V7.16226H35.9059V6.56642ZM38.5352 4.37013H39.1778L40.7522 7.332L42.1309 4.37013H42.7649L40.9531 8.12876L40.8717 8.29851L40.792 8.45266L40.7176 8.58776L40.6483 8.71074L40.5773 8.81986L40.5115 8.91166L40.4543 8.98961L40.3989 9.05196L40.3729 9.07794L40.3417 9.10393L40.3105 9.12644L40.2759 9.14723L40.2101 9.1836L40.1356 9.21305L40.0525 9.23903L39.9659 9.25635L39.8741 9.26501L39.7771 9.27021L39.7112 9.26501L39.6454 9.26155L39.5761 9.25288L39.5017 9.23903L39.422 9.22171L39.3388 9.20439L39.2574 9.1836L39.1691 9.15242V8.60508L39.2349 8.63973L39.3007 8.6709L39.3666 8.69689L39.4324 8.7194L39.5017 8.73672L39.5709 8.74538L39.642 8.75404H39.7684L39.8256 8.74538L39.8775 8.73153L39.9295 8.7194L39.978 8.69689L40.0265 8.6709L40.0698 8.63973L40.1131 8.60508L40.1581 8.56178L40.2014 8.50462L40.2499 8.4388L40.2932 8.36086L40.3417 8.26906L40.3902 8.1634L40.4422 8.04909L40.4907 7.92264L38.5352 4.37013ZM43.8803 4.37013H44.5195V6.48848H44.6251L44.7204 6.47982L44.8122 6.46596L44.8919 6.44344L44.9663 6.42266L45.0322 6.39148L45.0616 6.37935L45.0876 6.35684L45.1153 6.33952L45.1361 6.317L45.1811 6.2685L45.2331 6.20268L45.2816 6.12474L45.337 6.02774L45.3994 5.91862L45.46 5.79737L45.5206 5.65707L45.5916 5.50292L45.6401 5.39033L45.6869 5.28468L45.7319 5.18768L45.7752 5.09588L45.8151 5.01793L45.8532 4.94865L45.8895 4.8863L45.9242 4.83433L45.9536 4.78584L45.9935 4.73734L46.0333 4.69404L46.0818 4.65073L46.1303 4.6109L46.1771 4.57625L46.2342 4.53642L46.2914 4.50177L46.352 4.4706L46.4178 4.44461L46.4802 4.42383L46.546 4.40131L46.6101 4.38746L46.6811 4.3788L46.7504 4.37013H47.1055L47.1799 4.37533H47.2146V4.9296H47.1626L47.0829 4.92613L46.9998 4.92094H46.9565L46.882 4.92613L46.8127 4.9296L46.7469 4.94346L46.6898 4.96078L46.6326 4.98329L46.5841 5.00408L46.5408 5.03526L46.501 5.0699L46.4629 5.1132L46.423 5.16689L46.378 5.22752L46.3399 5.302L46.2966 5.39033L46.2481 5.48213L46.203 5.58606L46.1563 5.70557L46.0939 5.84934L46.0385 5.98097L45.9813 6.09876L45.9276 6.20268L45.8809 6.29448L45.8324 6.36896L45.7839 6.43132L45.744 6.47462L45.7007 6.51446L45.6522 6.5543L45.6089 6.58894L45.557 6.61838L45.5085 6.64956L45.4513 6.68074L45.3994 6.70672L45.3422 6.7327L45.3994 6.75002L45.4565 6.77254L45.5171 6.80198L45.5743 6.83316L45.6315 6.873L45.6869 6.91284L45.7492 6.9596L45.8064 7.0133L45.8636 7.06872L45.919 7.13108L45.9761 7.1969L46.0333 7.26618L46.0905 7.34066L46.1476 7.42034L46.203 7.50694L46.2602 7.59528L47.2579 9.20439H46.4663L45.6574 7.89147L45.5743 7.76156L45.4998 7.64205L45.4202 7.53292L45.3509 7.43246L45.285 7.34586L45.2192 7.26618L45.1586 7.20036L45.1015 7.1432L45.0408 7.09644L44.9785 7.0566L44.9127 7.02196L44.8434 6.99598L44.7689 6.96826L44.6909 6.95614L44.6078 6.94748L44.5195 6.94228V9.20439H43.8803V4.37013ZM48.3647 9.20439V4.37013H50.6094L50.6978 4.3788L50.7809 4.38746L50.8554 4.39612L50.9212 4.40478L51.0095 4.4221L51.0927 4.43942L51.1758 4.4654L51.2503 4.49138L51.3248 4.52256L51.3906 4.55374L51.4564 4.59357L51.5222 4.63341L51.5794 4.67671L51.6366 4.72521L51.6885 4.77717L51.737 4.82914L51.7855 4.88976L51.8288 4.95558L51.8687 5.02486L51.9085 5.09415L51.9431 5.17209L51.9743 5.24657L51.9968 5.32971L52.0193 5.40765L52.0367 5.49079L52.0453 5.57913L52.054 5.66227V5.90996L52.0453 5.98444L52.0367 6.05892L52.0228 6.1282L52.0055 6.19402L51.983 6.2633L51.9605 6.32912L51.9345 6.39494L51.9085 6.45557L51.8739 6.51619L51.8392 6.57681L51.7994 6.63397L51.7595 6.69113L51.7162 6.74829L51.6677 6.80025L51.6158 6.85221L51.5586 6.90071L51.498 6.94401L51.4322 6.98732L51.3629 7.02715L51.2849 7.0618L51.207 7.09297L51.1187 7.11895L51.0269 7.14494L50.9299 7.16745L50.8294 7.18477L50.7238 7.2021L50.6146 7.21076L50.4969 7.21942H49.0142V9.1836H48.3751L48.3647 9.20439ZM49.0038 6.66688H50.4033L50.5384 6.65302L50.6042 6.64436L50.6649 6.6357L50.7255 6.62185L50.7775 6.60799L50.8346 6.59413L50.8831 6.57681L50.9316 6.55949L50.9801 6.53697L51.0199 6.51446L51.0598 6.48848L51.0996 6.46249L51.1343 6.43651L51.1654 6.40534L51.1914 6.37416L51.2226 6.33952L51.2451 6.30834L51.2711 6.2737L51.2936 6.23386L51.3109 6.19402L51.3283 6.15418L51.3421 6.11435L51.356 6.07104L51.3698 6.02774L51.3785 5.98444L51.3923 5.88744V5.63802L51.3785 5.56874L51.3612 5.50292L51.3386 5.4423L51.3127 5.38167L51.2815 5.32105L51.2468 5.26909L51.207 5.21712L51.1637 5.16863L51.1204 5.12532L51.0684 5.09068L51.0165 5.05604L50.9645 5.03006L50.9074 5.00408L50.8467 4.98676L50.7982 4.9729L50.7463 4.96424H50.6857L50.6164 4.95558H49.009V6.68767L49.0038 6.66688ZM52.4472 9.20439L54.3022 4.37013H54.9951L56.9731 9.20439H56.2404L55.6758 7.73904H53.6544L53.1244 9.20439H52.4472ZM53.8328 7.21768H55.4731L54.9656 5.88398L54.9136 5.73502L54.8617 5.59126L54.8132 5.45615L54.7699 5.32971L54.7266 5.20673L54.6919 5.08895L54.6573 4.98329L54.6261 4.87764L54.6036 4.99542L54.5776 5.1132L54.5464 5.22752L54.5153 5.34184L54.4806 5.45962L54.446 5.57393L54.4061 5.68825L54.3663 5.80257L53.8328 7.21942V7.21768ZM58.1474 4.37013H58.79V9.20439H58.1474V4.37013ZM60.4961 9.20439V4.37013H61.1352V6.35684H63.6468V4.37013H64.2859V9.20439H63.6468V6.92496H61.1352V9.20439H60.4961ZM65.384 9.20439L67.2391 4.37013H67.9319L69.9047 9.20439H69.179L68.6143 7.73904H66.5913L66.0613 9.20439H65.3823H65.384ZM66.7697 7.21768H68.4169L67.9146 5.88398L67.8574 5.73502L67.8055 5.59126L67.757 5.45615L67.7137 5.32971L67.6704 5.20673L67.6357 5.08895L67.6011 4.98329L67.5699 4.87764L67.5474 4.99542L67.5214 5.1132L67.4902 5.22752L67.459 5.34184L67.4244 5.45962L67.3898 5.57393L67.3499 5.68825L67.3101 5.80257L66.7766 7.21942L66.7697 7.21768ZM24.5348 11.4318H24.8812V13.1639H24.5348V11.4318ZM25.7473 13.1639V11.4318H26.0937V12.1091H26.7761V11.4318H27.1225V13.1639H26.7761V12.4018H26.0937V13.1535H25.7473V13.1639ZM29.0382 12.963V13.1639H28.6918V12.963H28.5913L28.4995 12.9492L28.4164 12.9318L28.3419 12.9093L28.2726 12.8781L28.212 12.8435L28.1808 12.8262L28.1583 12.8089L28.1323 12.7863L28.1098 12.7604L28.07 12.7119L28.0353 12.6599L28.0042 12.6079L27.9816 12.5508L27.9643 12.4902L27.947 12.4243V12.2199L27.9557 12.1507L27.9695 12.0848L27.9868 12.0242L28.0128 11.9671L28.044 11.9099L28.0786 11.8614L28.1219 11.8129L28.1704 11.7696L28.2224 11.735L28.283 11.7003L28.3523 11.6743L28.4268 11.6518L28.5099 11.6345L28.5983 11.6258L28.6953 11.6172V11.444H29.0417V11.6172L29.1421 11.6258L29.2339 11.6345L29.3171 11.6518L29.3915 11.6743L29.4608 11.7055L29.5215 11.7367L29.5526 11.7592L29.5751 11.7765L29.6011 11.7991L29.6236 11.8216L29.6635 11.8701L29.6981 11.922L29.7293 11.9792L29.7518 12.0363L29.7743 12.097L29.7882 12.1576L29.7969 12.2269V12.3672L29.7882 12.433L29.7743 12.4936L29.7518 12.5542L29.7293 12.6114L29.6981 12.6686L29.6635 12.7205L29.6236 12.769L29.6011 12.7915L29.5786 12.8141L29.5526 12.8314L29.5215 12.8539L29.4608 12.8851L29.3915 12.9162L29.3171 12.9388L29.2339 12.9561L29.1421 12.9699H29.0417L29.0382 12.963ZM29.0382 12.6738H29.104L29.1646 12.6651L29.2218 12.6512L29.2738 12.6287L29.3171 12.6027L29.3569 12.5768L29.3881 12.5421L29.4141 12.5075L29.4314 12.4642L29.4452 12.4122L29.4539 12.3516V12.194L29.4452 12.1541L29.4314 12.1195L29.4175 12.0848L29.4002 12.0537L29.3777 12.0277L29.3517 12.0017L29.3257 11.9792L29.2946 11.9619L29.2599 11.9445L29.2253 11.9307L29.182 11.922L29.1387 11.9134H29.0434V12.6876L29.0382 12.6738ZM28.6918 12.6738V11.8995H28.5913L28.5428 11.9082L28.503 11.9168L28.4632 11.9307L28.4285 11.948L28.4025 11.9705L28.3766 11.993L28.3506 12.019L28.3333 12.0502L28.3159 12.0814L28.3021 12.116L28.2882 12.1559V12.3776L28.2969 12.4174L28.3055 12.452L28.3229 12.4867L28.3402 12.5179L28.3575 12.5438L28.3835 12.5698L28.4095 12.5923L28.4406 12.6149L28.4753 12.6287L28.5151 12.6426L28.555 12.6564H28.6953L28.6918 12.6738ZM30.5243 12.31V12.1836L30.533 12.1264L30.5416 12.0693L30.5503 12.0173L30.5642 11.9653L30.5815 11.9168L30.5988 11.8683L30.63 11.8077L30.6698 11.7471L30.7131 11.6899L30.7616 11.6328L30.8136 11.5843L30.8655 11.541L30.9227 11.5063L30.9833 11.4803L31.0232 11.463L31.0665 11.4492L31.1098 11.4353L31.1531 11.4267L31.2016 11.418H31.4458L31.5341 11.4267L31.6173 11.4492L31.6952 11.4752L31.7697 11.5063L31.839 11.5496L31.9048 11.5981L31.9619 11.6501L31.9879 11.6813L32.0139 11.7124L32.0399 11.7471L32.0624 11.7817L32.0849 11.8164L32.1022 11.8562L32.1196 11.896L32.1334 11.9359L32.1594 12.019L32.1767 12.1108L32.1906 12.2078V12.4139L32.1767 12.5109L32.1594 12.5993L32.1334 12.6824L32.1196 12.7257L32.1022 12.7656L32.0849 12.8002L32.0624 12.8348L32.0399 12.8695L32.0174 12.9041L31.9914 12.9353L31.9602 12.9665L31.9031 13.0184L31.8372 13.0669L31.7714 13.1102L31.6969 13.1414L31.619 13.1674L31.5359 13.1847L31.4475 13.1986H31.2587L31.1773 13.1639L31.0942 13.1466L31.0162 13.1206L30.9764 13.1068L30.9418 13.0895L30.9071 13.0669L30.8725 13.0496L30.8413 13.0236L30.8067 13.0011L30.7807 12.9751L30.7495 12.944L30.7235 12.9128L30.6975 12.8816L30.6715 12.8504L30.6577 12.8175L30.6404 12.7829L30.6179 12.743L30.6005 12.7032L30.5867 12.6634L30.5607 12.5802L30.5434 12.4919L30.5347 12.3949V12.2944L30.5243 12.31ZM30.8829 12.3014V12.3706L30.8915 12.4365L30.9002 12.4971L30.9175 12.5577L30.9348 12.6097L30.9573 12.6582L30.9885 12.7015L31.0197 12.7413L31.0543 12.7759L31.089 12.8071L31.1288 12.8331L31.1721 12.8556L31.2154 12.8729L31.2639 12.8868H31.4614L31.5099 12.8729L31.5532 12.8556L31.593 12.8331L31.6328 12.8071L31.6727 12.7759L31.7073 12.7413L31.7385 12.7015L31.7645 12.6582L31.787 12.6097L31.8043 12.5577L31.8216 12.4971L31.8303 12.4365L31.839 12.3672V12.2234L31.8303 12.1576L31.8216 12.097L31.8078 12.0363L31.7853 11.9844L31.7628 11.9359L31.7368 11.8926L31.7056 11.8527L31.6744 11.8216L31.6346 11.7904L31.5947 11.7644L31.5549 11.7419L31.5116 11.728L31.4631 11.7142H31.2587L31.2102 11.728L31.1669 11.7454L31.1236 11.7627L31.0838 11.7887L31.0491 11.8198L31.0145 11.8545L30.9833 11.8943L30.9573 11.9376L30.9348 11.9861L30.9175 12.0381L30.9002 12.0952L30.8915 12.1611L30.8829 12.2269V12.2979V12.3014ZM32.996 13.1674V11.4318H33.8187L33.9105 11.4405L33.9711 11.4544L34.0058 11.463L34.0404 11.4769L34.0751 11.4942L34.1063 11.5167L34.1374 11.5392L34.1634 11.5652L34.1946 11.5912L34.2206 11.6224L34.2431 11.657L34.2656 11.6917L34.2795 11.7315L34.295 11.7783L34.3037 11.8216L34.3124 11.8701V12.045L34.2985 12.1143L34.2898 12.1455L34.2812 12.1766L34.2673 12.2078L34.2535 12.2338L34.2223 12.2858L34.1877 12.3291L34.1478 12.3689L34.108 12.4035L34.0647 12.4295L34.0162 12.4555L33.9729 12.4728L33.9296 12.4867L33.8603 12.4953L33.7772 12.504H33.3407V13.1553H32.9943L32.996 13.1674ZM33.3424 11.7367V12.2217H33.7044L33.765 12.213L33.8049 12.1992L33.8395 12.1853L33.8707 12.1628L33.8932 12.1403L33.9157 12.1143L33.933 12.0831L33.9469 12.0519L33.9556 12.0173V11.9342L33.9486 11.8822L33.9313 11.8424L33.9088 11.8112L33.8793 11.7783L33.8447 11.7557L33.8101 11.7419L33.7702 11.728H33.3493L33.3424 11.7367ZM35.0918 13.1674V11.4318H35.6114L35.9267 12.6079L36.2367 11.4318H36.7563V13.1639H36.4428V11.8077L36.0964 13.1639H35.7604L35.414 11.8077V13.1639H35.0901L35.0918 13.1674ZM39.1916 13.1674H38.8106L38.6616 12.7742H37.9688L37.825 13.1674H37.4578L38.1264 11.4353H38.4988L39.1916 13.1674ZM38.5559 12.4711L38.3204 11.832L38.0848 12.4711H38.5577H38.5559ZM39.9174 11.4318H40.2638V12.866H40.9375V11.4318H41.284V12.866H41.4277V13.5311H41.1385V13.1553H39.9139V11.4318H39.9174ZM42.1881 11.4318H42.5345V13.1639H42.1881V11.4318ZM43.4006 11.4318H43.7244V12.5785L44.4173 11.4318H44.7637V13.1639H44.4398V12.0398L43.747 13.1639H43.4006V11.4318ZM44.2926 11.0023H44.4537V11.0421L44.445 11.0768L44.4363 11.1114L44.4225 11.1426L44.4052 11.1738L44.3878 11.2049L44.3705 11.2309L44.3411 11.2586L44.3151 11.2812L44.2891 11.2985L44.2631 11.3158L44.2285 11.3297L44.1973 11.3383L44.1627 11.347H44.0154L43.9808 11.3383L43.9496 11.3297L43.9184 11.3158L43.8873 11.2985L43.8613 11.2812L43.8353 11.2586L43.8128 11.2361L43.7903 11.2101L43.7729 11.179L43.7556 11.1478L43.7418 11.1166L43.7331 11.082L43.7244 11.0473V11.0075H43.8855L43.8942 11.0473L43.9029 11.0785L43.9202 11.1097L43.9427 11.1357L43.9739 11.153L44.0085 11.1668L44.0483 11.1755H44.1367L44.1765 11.1668L44.2112 11.153L44.2423 11.1357L44.2649 11.1097L44.2822 11.0785L44.296 11.0473V11.0075L44.2926 11.0023ZM45.6574 13.1553V11.4318H46.0039V12.1091H46.6863V11.4318H47.0327V13.1639H46.6863V12.4018H46.0039V13.1535H45.6574V13.1553ZM47.923 13.1553V11.4318H49.2013V11.7246H48.2746V12.1056H49.1406V12.3949H48.2746V12.8677H49.2376V13.157H47.9247L47.923 13.1553ZM52.9581 13.1553H52.5823L52.4299 12.7621H51.737L51.5933 13.1553H51.2347L51.9033 11.4232H52.2757L52.9685 13.1553H52.9581ZM52.3242 12.4711L52.0834 11.832L51.8513 12.4711H52.3242ZM53.6943 11.4318H54.8669V11.7211H54.0407V13.1553H53.6943V11.4318ZM55.5718 13.1639V11.4318H56.8536V11.7246H55.9217V12.1056H56.7877V12.3949H55.9217V12.8677H56.8847V13.157H55.5718V13.1639ZM57.7109 13.1639V11.4318H58.0574V12.1091H58.7398V11.4318H59.0862V13.1639H58.7398V12.4018H58.0574V13.1535H57.7109V13.1639ZM60.3662 13.1639V11.7332H59.8466V11.4318H61.2167V11.7246H60.7092V13.1553H60.3627L60.3662 13.1639ZM63.0838 12.53L63.4198 12.6391L63.3973 12.7049L63.3748 12.7708L63.3436 12.8279L63.3125 12.8851L63.2813 12.9336L63.2414 12.9821L63.2016 13.0219L63.1583 13.0565L63.1098 13.0912L63.0613 13.1172L63.0093 13.1397L62.9522 13.1622L62.895 13.1761L62.8292 13.1899H62.6162L62.5382 13.1761L62.4603 13.1587L62.391 13.1328L62.3217 13.1016L62.2559 13.0617L62.1953 13.0132L62.1381 12.9561L62.1121 12.9249L62.0862 12.8937L62.0636 12.8626L62.0411 12.8279L62.0082 12.7482L61.977 12.6738L61.9545 12.5906L61.9372 12.4988L61.9233 12.407V12.2061L61.9372 12.1056L61.9545 12.0138L61.977 11.9255L61.9944 11.8857L62.0082 11.8458L62.0307 11.806L62.0481 11.7713L62.0706 11.7367L62.0965 11.7021L62.1191 11.6709L62.1502 11.6397L62.2074 11.5825L62.268 11.534L62.3338 11.4907L62.4031 11.4596L62.4776 11.4336L62.5607 11.4163L62.6439 11.4024H62.8102L62.8742 11.4145L62.9435 11.4284L63.0093 11.4509L63.07 11.4769L63.1271 11.5081L63.1843 11.5479L63.2363 11.5912L63.2622 11.6224L63.2882 11.6536L63.3142 11.6882L63.3367 11.728L63.3592 11.7679L63.3765 11.8112L63.3939 11.8597L63.4112 11.9082L63.0648 11.9913L63.0561 11.9601L63.0475 11.929L63.0336 11.8978L63.0163 11.8718L62.999 11.8458L62.9816 11.8233L62.9591 11.8008L62.9366 11.7783L62.9106 11.7609L62.8846 11.7436L62.8587 11.7298L62.8275 11.7211L62.7963 11.7124L62.7651 11.7038H62.6092L62.5659 11.7176L62.5261 11.7315L62.4915 11.7488L62.4568 11.7748L62.4222 11.8008L62.391 11.8354L62.365 11.8701L62.339 11.9134L62.3165 11.9619L62.2992 12.0138L62.2853 12.071L62.2767 12.1368V12.4295L62.2853 12.4953L62.2992 12.556L62.3165 12.6131L62.339 12.6616L62.3616 12.7049L62.3927 12.7448L62.4239 12.7759L62.4551 12.8071L62.4897 12.8296L62.5244 12.8522L62.5642 12.866L62.6075 12.8799H62.7946L62.8258 12.8712L62.8569 12.8574L62.8829 12.84L62.9089 12.8227L62.9349 12.8054L62.9609 12.7794L62.9834 12.7534L63.0007 12.7223L63.0232 12.6911L63.0475 12.6443L63.0613 12.6045L63.0752 12.5612L63.089 12.5179L63.0838 12.53ZM64.5751 13.1639V11.7332H64.0555V11.4318H65.4291V11.7246H64.9094V13.1553H64.563L64.5751 13.1639ZM66.1894 11.4318H67.1248L67.1854 11.4405L67.2339 11.4492L67.2772 11.4665L67.3205 11.4838L67.3638 11.5098L67.3984 11.541L67.4331 11.5721L67.4642 11.612L67.4954 11.6553L67.5179 11.7038L67.5353 11.7523L67.5439 11.8042V11.9168L67.5301 11.974L67.5127 12.026L67.4816 12.0779L67.4469 12.1264L67.4036 12.1663L67.3603 12.2009L67.3084 12.2321L67.343 12.2407L67.3828 12.2581L67.414 12.2754L67.4452 12.2927L67.4764 12.31L67.5023 12.336L67.5283 12.3585L67.5508 12.3845L67.5682 12.4157L67.5855 12.4417L67.6028 12.4728L67.6115 12.5075L67.6253 12.5387V12.7049L67.6167 12.7621L67.5993 12.8193L67.5768 12.8764L67.5456 12.9284L67.511 12.9769L67.4712 13.0167L67.4279 13.0565L67.3759 13.0825L67.3187 13.1085L67.2581 13.1258L67.1923 13.1345H66.186V11.4318H66.1894ZM66.5359 11.7159V12.1247H67.0156L67.0555 12.116L67.0953 12.1022L67.1265 12.0848L67.1577 12.0623L67.1802 12.0363L67.1975 12.0052L67.2044 11.9515V11.877L67.1958 11.8424L67.1819 11.8112L67.1594 11.7852L67.1369 11.7592L67.1057 11.7419L67.0711 11.7332L67.0278 11.7246H66.5324L66.5359 11.7159ZM66.5359 12.4087V12.8729H67.0988L67.1334 12.8643L67.1681 12.8504L67.2044 12.8175L67.2304 12.795L67.2529 12.7638L67.2668 12.7292L67.2754 12.6893V12.6062L67.2668 12.575L67.2529 12.5404L67.2391 12.5144L67.2166 12.4884L67.1906 12.4659L67.1594 12.4486L67.1248 12.4347L67.0815 12.4209H66.5376L66.5359 12.4087ZM68.3251 12.3083V12.1247L68.3337 12.0675L68.3476 12.0156L68.3615 11.9636L68.3753 11.9151L68.3978 11.8666L68.429 11.806L68.4688 11.7454L68.5087 11.6882L68.5572 11.631L68.6091 11.5825L68.6663 11.5392L68.7235 11.5046L68.7806 11.4786L68.8239 11.4613L68.8638 11.4474L68.9071 11.4336L68.9556 11.4249L69.0041 11.4163H69.25L69.3383 11.4249L69.4215 11.4474L69.4994 11.4734L69.5739 11.5046L69.6397 11.5479L69.7055 11.5964L69.7662 11.6484L69.7922 11.6795L69.8181 11.7107L69.8406 11.7454L69.8666 11.78L69.8839 11.8146L69.9065 11.8545L69.9203 11.8943L69.9376 11.9342L69.9636 12.0173L69.9809 12.1091L69.9896 12.2061V12.4122L69.9809 12.5092L69.9636 12.5975L69.9376 12.6807L69.9065 12.7638L69.8666 12.8331L69.8441 12.8677L69.8181 12.9024L69.7922 12.9336L69.7662 12.9647L69.735 12.9907L69.7038 13.0167L69.6726 13.0427L69.6415 13.0652L69.5722 13.1085L69.4977 13.1397L69.4232 13.1657L69.3401 13.183L69.2517 13.1968H69.063L68.9746 13.183L68.8863 13.1657L68.8083 13.1397L68.7737 13.1258L68.739 13.1085L68.6992 13.086L68.668 13.0687L68.6334 13.0427L68.6022 13.0202L68.571 12.9942L68.5451 12.963L68.5139 12.9318L68.4879 12.9007L68.4654 12.8695L68.4429 12.8348L68.4203 12.8002L68.403 12.7604L68.3857 12.7205L68.3718 12.6807L68.3459 12.5975L68.3285 12.5092L68.3199 12.4122V12.3117L68.3251 12.3083ZM68.6836 12.2996V12.3689L68.6923 12.4347L68.7009 12.4953L68.7148 12.556L68.7373 12.6079L68.7633 12.6443L68.7893 12.6876L68.8239 12.7274L68.8586 12.7621L68.8932 12.7933L68.933 12.8193L68.9763 12.8418L69.0196 12.8591L69.063 12.8729H69.2639L69.3072 12.8591L69.3505 12.8418L69.3938 12.8193L69.4336 12.7933L69.4683 12.7621L69.5029 12.7274L69.5341 12.6876L69.5652 12.6443L69.5878 12.5958L69.6051 12.5438L69.6189 12.4832L69.6328 12.4226V12.1437L69.6189 12.0831L69.6051 12.0225L69.5878 11.9705L69.5652 11.922L69.5393 11.8787L69.5081 11.8389L69.4734 11.8077L69.4388 11.7765L69.399 11.7506L69.3557 11.728L69.3124 11.7142L69.2639 11.7003H69.063L69.0145 11.7142L68.9711 11.7315L68.9278 11.7488L68.888 11.7748L68.8482 11.806L68.817 11.8406L68.7858 11.8805L68.7546 11.9238L68.7321 11.9723L68.7148 12.0242L68.7009 12.0814L68.6871 12.1472V12.2979L68.6836 12.2996ZM34.8147 4.37013L33.3528 6.85568L35.0849 9.20092H33.6992L32.8332 7.8447L32.0624 9.20092H30.6577L30.701 9.12644L30.8274 8.93418L31.0162 8.64492L31.2483 8.29851L31.4977 7.90879L31.7506 7.5156L31.9862 7.1432L32.1836 6.8193L30.6248 4.3736H31.8372L32.8089 5.91862L33.6265 4.3736H34.8147V4.37013ZM28.7819 8.85797L28.7212 8.91859L28.6554 8.97575L28.5861 9.02425L28.5168 9.07275L28.4476 9.11259L28.3696 9.14723L28.2917 9.17321L28.2085 9.19919L28.1202 9.22171L28.0319 9.23903L27.9401 9.25288L27.8431 9.26155H27.1329L27.0013 9.25288L26.8748 9.23556L26.7519 9.21305L26.6341 9.19053L26.5163 9.15935L26.4072 9.12471L26.2981 9.09007L26.1924 9.04677L26.0954 9.00346L25.9984 8.95497L25.9066 8.903L25.8235 8.84584L25.7403 8.78522L25.6624 8.7246L25.5879 8.66398L25.5221 8.59469L25.4615 8.52194L25.4008 8.44746L25.3437 8.37818L25.2952 8.3037L25.2467 8.22576L25.2069 8.14781L25.167 8.06987L25.1358 7.99193L25.1047 7.90879L25.0821 7.82565L25.0648 7.7477L25.051 7.66456L25.0423 7.58142V7.49828L25.051 7.38916L25.0648 7.2835L25.0821 7.18304L25.1047 7.08605L25.1272 6.98905L25.1584 6.89725L25.193 6.81411L25.2276 6.72577L25.2709 6.64783L25.3142 6.57335L25.3662 6.49887L25.4182 6.42958L25.4753 6.36377L25.536 6.29795L25.6018 6.23732L25.6711 6.18016L25.7455 6.1282L25.82 6.07624L25.898 6.02774L25.9811 5.98444L26.0694 5.94114L26.1543 5.88917L26.2461 5.85453L26.3431 5.81989L26.4436 5.78871L26.544 5.75754L26.6531 5.73155L26.7623 5.70904L26.8714 5.68652L26.9892 5.664L27.1069 5.65015L27.2299 5.63283L27.339 5.62417L27.4482 5.6155H27.8517L27.9487 5.62417L28.0405 5.63283L28.1375 5.64668L28.2293 5.66054L28.3177 5.67786L28.4095 5.69518L28.5931 5.74368L28.7819 5.79564V5.66054L28.7732 5.59472L28.7524 5.54276L28.7351 5.4856L28.7091 5.42844L28.6745 5.37648L28.6346 5.32798L28.6086 5.30546L28.5861 5.28294L28.555 5.26562L28.5238 5.24311L28.4926 5.22579L28.458 5.21193L28.4181 5.19461L28.3783 5.18075L28.2865 5.15823L28.186 5.14091L28.0717 5.13225H25.6589L25.5931 5.14091L25.5325 5.15823L25.4719 5.18075L25.4199 5.20673L25.3679 5.24137L25.3194 5.27602L25.2709 5.31585L25.2276 5.36435L25.1878 5.41285L25.148 5.46135L25.1133 5.51331L25.0787 5.57047L25.0475 5.62763L25.0163 5.68825L24.9852 5.74888L24.8119 6.0849L24.6665 6.4088L24.5175 6.7327L24.3824 7.04794L24.249 7.36664L24.1139 7.67669L23.9788 7.98327L23.8437 8.28985L23.7 8.59642L23.551 8.903L23.4731 9.05543L23.3899 9.20785L23.3016 9.36547L23.2098 9.52655L23.118 9.68417L23.021 9.84179L22.9153 10.0029L22.8097 10.1605L22.7005 10.3337L22.5828 10.4948L22.4598 10.668L22.3333 10.8412L22.1896 10.9988L22.0458 11.1478L21.8969 11.2881L21.7479 11.4232L21.5955 11.5496L21.4431 11.6674L21.2854 11.7817L21.1278 11.8909L20.9667 11.9913L20.8057 12.0831L20.6325 12.1714L20.4592 12.2546L20.286 12.3325L20.1128 12.4018L19.9396 12.4676L19.7664 12.5283L19.5932 12.5854L19.42 12.6339L19.2468 12.6824L19.0736 12.7257L18.9004 12.7604L18.7272 12.795L18.554 12.8262L18.3808 12.8522L18.1972 12.8747L18.0136 12.892L17.83 12.9093L17.6464 12.9232L17.4628 12.9318L17.2792 12.9405H16.8323L16.8184 12.9318L16.8046 12.9232L16.7907 12.9145L16.7821 12.9007V12.7881L16.7907 12.7621L16.8046 12.7309L16.8565 12.6218L16.9258 12.4694L16.9951 12.3083L17.0609 12.168L17.0834 12.1195L17.1146 12.0675L17.1371 12.0363L17.1596 12.0104L17.1822 11.9844L17.2133 11.9584L17.2445 11.9359L17.2844 11.9186L17.3242 11.9047L17.3675 11.896H17.4714L17.532 11.9047L17.5979 11.922L17.7295 11.9619L17.8559 12.0017L17.9824 12.0329L18.1054 12.0641L18.2231 12.09L18.3409 12.1126L18.45 12.1299L18.5644 12.1437L18.6544 12.1247L18.7601 12.1333H18.9662L19.0632 12.1247L19.1602 12.116L19.252 12.1022L19.3438 12.0848L19.4356 12.0623L19.5187 12.0311L19.6071 12L19.6902 11.9653L19.7733 11.9255L19.8513 11.8822L19.9292 11.8302L20.0037 11.7783L20.0782 11.7176L20.1527 11.657L20.222 11.5877L20.2912 11.5133L20.3605 11.4388L20.4298 11.3556L20.4956 11.2638L20.5614 11.172L20.7676 10.7789L20.9564 10.4151L21.1296 10.0826L21.2872 9.77251L21.4361 9.47979L21.5764 9.19919L21.7081 8.92379L21.8397 8.64319L21.9662 8.36259L22.0978 8.06467L22.2381 7.75463L22.3784 7.41861L22.5308 7.05487L22.704 6.65302L22.8772 6.21481L23.0747 5.72463L23.1007 5.65881L23.1232 5.59818L23.137 5.54102L23.1457 5.48906V5.35742L23.137 5.32278L23.1232 5.28814L23.1007 5.25696L23.0781 5.23098L23.0522 5.20846L23.021 5.18595L22.9863 5.16343L22.9517 5.14957L22.9084 5.13572L22.8651 5.12186L22.8166 5.1132L22.7681 5.10454L22.7161 5.09588L22.5984 5.08722H21.7185L21.5453 5.10108L21.3842 5.1184L21.2266 5.14438L21.0828 5.17555L20.9425 5.2102L20.8161 5.2535L20.6983 5.2968L20.584 5.34876L20.4783 5.40073L20.3865 5.45788L20.2947 5.51851L20.2168 5.58433L20.1423 5.65361L20.073 5.71943L20.0124 5.79391L19.9552 5.86319L19.9067 5.93767L19.8634 6.01215L19.8236 6.0901L19.7889 6.16458L19.7456 6.23559L19.7197 6.31007L19.6971 6.38455L19.6833 6.45903L19.6694 6.52831L19.6608 6.5976V6.90418L19.7006 7.03928L19.7491 7.16226L19.7751 7.22288L19.8011 7.28004L19.827 7.332L19.8582 7.38396L19.8929 7.43246L19.9275 7.48096L19.9621 7.52946L20.002 7.57276L20.0418 7.6126L20.0903 7.65244L20.1336 7.69228L20.1821 7.72692L20.2341 7.76156L20.2912 7.79274L20.3484 7.82391L20.409 7.85509L20.4696 7.88107L20.5389 7.90705L20.6082 7.93304L20.6775 7.95555L20.8351 7.99885L21.0083 8.0335L21.1971 8.06814L21.398 8.09412H21.4292L21.4638 8.10798L21.495 8.12183L21.521 8.13915L21.5297 8.15301V8.22576L21.5158 8.24308L21.4985 8.2604L21.4102 8.32968L21.2958 8.42668L21.1607 8.54446L21.0118 8.6709L20.8628 8.80254L20.7277 8.92552L20.6047 9.03464L20.5129 9.11778L20.5043 9.12644L20.487 9.1403L20.461 9.16282L20.4385 9.18014L20.4159 9.1888L20.3934 9.19746H20.2566L20.2306 9.18014L20.1076 9.12298L19.9899 9.06236L19.8755 8.99307L19.7699 8.92379L19.6642 8.84931L19.5672 8.77483L19.4754 8.69689L19.3923 8.61894L19.3143 8.5358L19.2399 8.45786L19.1706 8.37472L19.11 8.29158L19.0528 8.21363L19.0043 8.13569L18.9558 8.06121L18.9212 7.98673L18.8779 7.88973L18.8432 7.79793L18.8172 7.7096L18.7947 7.6178L18.7774 7.52946L18.7635 7.44112L18.7549 7.35279V7.09644L18.7635 7.0133L18.7722 6.92496L18.7947 6.75175L18.8259 6.57854L18.8398 6.5006L18.8571 6.42266L18.8796 6.33952L18.9108 6.25638L18.9419 6.16804L18.9766 6.07624L19.0199 5.9879L19.0684 5.8961L19.1204 5.8043L19.1775 5.70731L19.2381 5.6155L19.304 5.5237L19.3784 5.4319L19.4529 5.34357L19.5361 5.25177L19.6244 5.16863L19.7162 5.08029L19.8132 5.00235L19.9136 4.9244L20.0228 4.84992L20.1319 4.77544L20.2497 4.70962L20.3726 4.649L20.4991 4.59184L20.6307 4.53988L20.771 4.49138L20.9113 4.45154L21.0603 4.4169L21.2127 4.39092L21.3703 4.3736L21.5314 4.35974H23.4575L23.5094 4.35108L23.5527 4.34242L23.5926 4.32856L23.6324 4.31471L23.667 4.29219L23.7017 4.26967L23.7329 4.24369L23.764 4.21251L23.79 4.17268L23.8212 4.12937L23.9442 3.88862L24.062 3.65305L24.1763 3.42095L24.2854 3.19751L24.4915 2.77315L24.689 2.37131L24.786 2.18251L24.8864 1.99891L24.9869 1.8257L25.0925 1.65249L25.2017 1.49487L25.316 1.34245L25.4338 1.19349L25.5567 1.05839L25.6918 0.926748L25.8321 0.80377L25.9846 0.689453L26.1456 0.583795L26.3188 0.486799L26.5024 0.398462L26.7034 0.320518L26.9181 0.246039L27.1502 0.185416L27.3945 0.133453L27.6612 0.0901509L27.9418 0.0555092L28.2432 0.0295279L28.5671 0.012207H29.2807L29.3327 0.0208675L29.3812 0.0347241L29.4123 0.052045L29.4348 0.0693659L29.4522 0.091883V0.140381L29.4435 0.171559L29.4175 0.228718L29.3777 0.294537L29.3344 0.35516L29.2946 0.415783L29.2547 0.481602L29.2149 0.550886L29.1716 0.625365L29.1231 0.703309L29.0711 0.786449L29.0191 0.87825L28.962 0.97005L28.9014 1.07051L28.813 1.20561L28.7386 1.29741L28.7074 1.33206L28.6762 1.36323L28.6502 1.38055L28.6277 1.39441H28.5619L28.5394 1.38055L28.4961 1.34072L28.4476 1.28875L28.4164 1.24892L28.3817 1.21774L28.3471 1.19176L28.3073 1.16578L28.2674 1.14326L28.2276 1.12594L28.1843 1.10862L28.141 1.09476L28.044 1.07224L27.9383 1.05492L27.8206 1.0376L27.6889 1.02028H27.5365L27.4586 1.02894L27.3893 1.0376L27.32 1.05146L27.2507 1.07398L27.1814 1.09996L27.1156 1.13113L27.0498 1.17097L26.9892 1.21081L26.9233 1.26277L26.8627 1.31474L26.8021 1.37536L26.7449 1.44464L26.6843 1.51912L26.6272 1.60226L26.57 1.6906L26.5128 1.78759L26.4557 1.89325L26.3985 2.00237L26.3414 2.12535L26.2842 2.24833L26.2322 2.38343L26.1751 2.5272L26.1231 2.67962L26.066 2.83724L26.0088 3.01045L25.9517 3.18366L25.8425 3.56818L25.7247 3.98388L25.7161 4.01852V4.21078L25.7299 4.24196L25.7438 4.26794L25.7611 4.29046L25.7871 4.30778L25.8183 4.32164L25.8529 4.3303H28.6935L28.7905 4.34415L28.8875 4.36147L28.9845 4.38399L29.085 4.41517L29.1854 4.44635L29.2824 4.48618L29.3794 4.53468L29.4764 4.58318L29.5682 4.6438L29.6566 4.70443L29.7397 4.77371L29.7917 4.84992L29.8315 4.89322L29.8661 4.93306L29.8973 4.98156L29.932 5.02486L29.9891 5.12186L30.0376 5.21886L30.0774 5.31585L30.1121 5.41285L30.1381 5.50812L30.1606 5.60858L30.1779 5.71423L30.1918 5.81989L30.2004 5.93421L30.2091 6.04853V9.20265H28.7784V8.85624L28.7819 8.85797ZM28.7819 8.30197V6.56988L28.6849 6.52139L28.5879 6.48155L28.4874 6.44691L28.3869 6.41573L28.2813 6.39321L28.1756 6.37589L28.07 6.36203L27.9643 6.35337H27.6525L27.5521 6.36723L27.4516 6.38455L27.3546 6.40187L27.2576 6.42785L27.1606 6.45903L27.0723 6.49021L26.984 6.53005L26.9008 6.57335L26.8229 6.61665L26.7484 6.66515L26.6791 6.72231L26.6133 6.77947L26.5561 6.83663L26.5042 6.90244L26.4557 6.96826L26.4158 7.04274L26.3847 7.11203L26.3587 7.18997L26.3414 7.26791L26.3275 7.35105V7.44805L26.3362 7.53119L26.3535 7.60914L26.376 7.68708L26.402 7.76156L26.4366 7.83604L26.4799 7.90186L26.5232 7.96768L26.5752 8.0283L26.6324 8.08546L26.693 8.14262L26.7588 8.19112L26.8281 8.23961L26.906 8.28292L26.984 8.32275L27.0619 8.3574L27.1502 8.39204L27.2386 8.41802L27.3304 8.44054L27.4274 8.46305L27.5244 8.47691L27.6214 8.49077H28.0336L28.1393 8.47691L28.2449 8.45959L28.354 8.43707L28.4597 8.41456L28.5653 8.37991L28.671 8.34527L28.7767 8.30543L28.7819 8.30197ZM17.3727 5.46308V4.36494H15.9992V9.19919H17.3727V6.53524L17.4333 6.43825L17.5078 6.34125L17.5857 6.24945L17.6689 6.15765L17.7607 6.07451L17.8577 5.99137L17.9547 5.91342L18.0603 5.83548L18.166 5.7662L18.2716 5.69691L18.3808 5.63629L18.4899 5.57567L18.6042 5.51851L18.7133 5.47001L18.8224 5.42151L18.9281 5.38167L18.9419 5.27602L18.9558 5.16689L18.9697 5.04392L18.9835 4.91747L19.0008 4.78584L19.0182 4.64554L19.0355 4.51043L19.0493 4.37013L18.9801 4.38746L18.9108 4.40997L18.8415 4.43595L18.7722 4.46194L18.6458 4.51909L18.5193 4.57972L18.4015 4.64554L18.2872 4.71482L18.1781 4.7893L18.0724 4.86724L17.972 4.94519L17.8802 5.02313L17.7884 5.09761L17.7001 5.17555L17.5268 5.32451L17.3744 5.45962L17.3727 5.46308ZM15.4917 7.50175L15.4778 7.54158L15.4345 7.65071L15.4033 7.72518L15.36 7.81699L15.3115 7.91398L15.2544 8.01964L15.1851 8.13396L15.1106 8.25174L15.0275 8.36952L14.9305 8.4925L14.8785 8.55312L14.8265 8.61028L14.7694 8.6709L14.7122 8.72806L14.6516 8.78522L14.591 8.84238L14.5252 8.89434L14.4559 8.94631L14.3762 9.00693L14.2983 9.05889L14.2151 9.10219L14.132 9.1455L14.0488 9.1888L13.9605 9.22344L13.8722 9.25808L13.7804 9.28926L13.6886 9.31524L13.5968 9.33776L13.4998 9.36027L13.4028 9.37413L13.3023 9.38799L13.2019 9.39665H12.852L12.7082 9.38799L12.5679 9.37067L12.4328 9.34815L12.2977 9.3187L12.1661 9.27887L12.0431 9.23903L11.9201 9.18707L11.8023 9.12991L11.688 9.06928L11.5789 9L11.4698 8.92552L11.3693 8.84238L11.2689 8.75404L11.1771 8.65705L11.0853 8.55139L11.0073 8.45439L10.9328 8.3574L10.8636 8.25694L10.8029 8.15128L10.7458 8.04216L10.6886 7.9365L10.6401 7.82218L10.6003 7.70786L10.5604 7.59008L10.5258 7.4723L10.4998 7.35452L10.4773 7.22808L10.46 7.1051L10.4461 6.97346L10.4375 6.84182V6.57508L10.4461 6.43998L10.46 6.30834L10.4773 6.1819L10.4998 6.05545L10.5258 5.93248L10.5604 5.8095L10.6003 5.69172L10.6401 5.5774L10.6921 5.46308L10.744 5.35396L10.8012 5.2483L10.867 5.14265L10.9328 5.04218L11.0073 4.94519L11.0853 4.84992L11.1736 4.74946L11.2706 4.65766L11.3676 4.56932L11.4733 4.49138L11.5789 4.4169L11.688 4.34762L11.8023 4.28699L11.9201 4.23503L12.0431 4.18653L12.1661 4.14323L12.2977 4.10859L12.4294 4.07741L12.5697 4.0549L12.71 4.03757L12.8537 4.02891H13.1412L13.2815 4.04277L13.4166 4.06009L13.5483 4.08261L13.6747 4.11725L13.8012 4.15189L13.9189 4.20039L14.0333 4.25235L14.1476 4.30951L14.2532 4.37533L14.3589 4.44461L14.4593 4.52256L14.5563 4.6057L14.6481 4.6975L14.7365 4.7945L14.8248 4.90015L14.882 4.9781L14.9391 5.06124L14.9876 5.14438L15.0361 5.23271L15.0794 5.32105L15.1141 5.40939L15.1487 5.50119L15.1799 5.59299L15.2111 5.68132L15.2336 5.77312L15.2561 5.86146L15.2734 5.95326L15.3046 6.12647L15.3271 6.29968L15.341 6.4573V6.84182L15.3323 6.99944V7.06006H11.695L11.7123 7.16919L11.7348 7.27831L11.766 7.37877L11.8058 7.47923L11.8491 7.57969L11.8976 7.67669L11.9548 7.76849L12.0154 7.85682L12.0639 7.91745L12.1124 7.96941L12.1643 8.02137L12.2163 8.06987L12.2683 8.11317L12.3254 8.15301L12.3861 8.18765L12.4467 8.22229L12.5073 8.24827L12.5731 8.27426L12.6424 8.29677L12.7117 8.31063L12.781 8.32795L12.8554 8.33661H13.1863L13.2694 8.32275L13.337 8.31409L13.4114 8.29677L13.4807 8.27945L13.5465 8.25347L13.6124 8.22229L13.6903 8.17899L13.7648 8.13049L13.8341 8.07853L13.8999 8.02137L13.9605 7.96075L14.0125 7.90359L14.0644 7.84297L14.1077 7.78581L14.177 7.67669L14.229 7.58835L14.2636 7.53119L14.2723 7.50867H15.4847L15.4917 7.50175ZM11.7781 5.9931H14.0973L14.08 5.92382L14.0575 5.85453L14.0315 5.78525L14.0055 5.71943L13.9744 5.65361L13.9345 5.58779L13.8912 5.52717L13.8427 5.46655L13.8029 5.42324L13.7596 5.37994L13.7163 5.3401L13.673 5.30546L13.6245 5.27082L13.576 5.23964L13.524 5.21366L13.4755 5.18768L13.4184 5.16516L13.3664 5.14784L13.3092 5.13052L13.2521 5.11666L13.1915 5.108L13.1343 5.09934H12.8814L12.8208 5.108L12.7602 5.11666L12.703 5.12532L12.6459 5.13918L12.5887 5.1565L12.5315 5.17902L12.4796 5.19634L12.4276 5.22232L12.3791 5.2483L12.3272 5.27948L12.2787 5.31066L12.2354 5.3453L12.1869 5.38514L12.1436 5.42497L12.0829 5.4856L12.0258 5.54622L11.9738 5.61204L11.9253 5.68132L11.8855 5.7558L11.8456 5.83375L11.811 5.91169L11.7798 5.99483L11.7781 5.9931ZM9.42421 4.55027V2.91345L8.05068 3.30317V4.55027H7.13614V5.60858H8.05068V9.19573H9.42421V5.60858H10.3128V4.55027H9.42421ZM3.45202 5.12706V4.39612H2.25169V9.19919H3.54209V6.49887L3.55595 6.3551L3.5698 6.22347L3.58712 6.10915L3.60444 6.01215L3.63042 5.92901L3.65641 5.85453L3.68758 5.78525L3.72742 5.72463L3.77072 5.65881L3.81922 5.60165L3.87118 5.54969L3.93181 5.49772L3.99243 5.44922L4.06171 5.40939L4.15698 5.36955L4.22626 5.33837L4.30074 5.31239L4.37868 5.29507L4.45662 5.28121L4.53457 5.27255H4.74415L4.80477 5.28121L4.86193 5.29507L4.91389 5.31239L4.96585 5.33491L5.01782 5.36089L5.06631 5.39207L5.10962 5.42671L5.14945 5.46135L5.18929 5.50119L5.22393 5.54449L5.25511 5.58779L5.28629 5.63975L5.31227 5.68825L5.33478 5.74541L5.35211 5.81123L5.36943 5.88917L5.38675 5.98964L5.39541 6.10742L5.40407 6.23906L5.41273 6.39148V9.20265H6.70312V5.84068L6.69446 5.73155L6.6858 5.6259L6.67195 5.5341L6.65809 5.44576L6.64077 5.36782L6.62345 5.29334L6.59747 5.22405L6.57148 5.15477L6.54031 5.08895L6.50913 5.02313L6.46929 4.95731L6.42945 4.89669L6.38615 4.83607L6.33766 4.77891L6.28569 4.72694L6.22507 4.67498L6.16445 4.62648L6.09516 4.57799L6.02069 4.53468L5.93755 4.49138L5.85441 4.45154L5.76261 4.4169L5.67081 4.38572L5.57381 4.35974L5.47335 4.3303H5.36943L5.26897 4.31644L5.16331 4.30778H4.93468L4.8169 4.31644L4.70258 4.3303L4.58826 4.35628L4.47914 4.38226L4.37348 4.4169L4.26783 4.4602L4.16737 4.5087L4.06691 4.56586L3.96991 4.62648L3.87292 4.6923L3.78112 4.76678L3.69278 4.84473L3.60444 4.93306L3.5213 5.03006L3.43816 5.13052L3.45202 5.12706ZM0 2.95675H1.23324V4.10339H0V2.95675ZM1.23324 4.36147V9.19573H0V4.36147H1.22977H1.23324Z" fill="#00A0A6"/>
</svg>
