<svg width="115" height="72" viewBox="0 0 115 72" fill="none" xmlns="http://www.w3.org/2000/svg">
<path d="M49.6964 47.702H46.7694V35.8262H51.067C52.022 35.8262 53.2511 35.9411 54.2592 36.8166C55.0639 37.5063 55.453 38.4613 55.453 39.7258C55.453 40.8842 55.0993 41.8393 54.4095 42.5378C53.4634 43.4752 52.2519 43.599 51.3057 43.599H49.6964V47.702ZM49.6964 41.2114H50.5983C50.8901 41.2114 51.5799 41.2114 52.022 40.7958C52.2873 40.5305 52.4464 40.1326 52.4464 39.6993C52.4464 39.2572 52.2961 38.8681 52.0308 38.6205C51.6418 38.2579 51.0581 38.2049 50.5453 38.2049H49.6964V41.2114ZM59.9628 47.9673C58.6629 47.9673 57.7167 47.587 56.912 46.747C56.125 45.9246 55.7271 44.9165 55.7271 43.7581C55.7271 42.4936 56.1869 41.3264 56.9916 40.5394C57.7167 39.832 58.716 39.4429 59.8301 39.4429C60.5553 39.4429 61.5368 39.6197 62.2531 40.4244V39.6993H65.0032V47.702H62.2531V46.9415C61.696 47.6224 60.9355 47.9673 59.9628 47.9673ZM60.4668 41.795C59.9628 41.795 59.4587 41.9984 59.1139 42.3345C58.8574 42.5909 58.5479 43.0242 58.5479 43.6962C58.5479 44.3594 58.8309 44.7927 59.0608 45.0403C59.4145 45.4117 59.9628 45.624 60.5199 45.624C60.9974 45.624 61.4661 45.4383 61.8021 45.1022C62.0762 44.8458 62.4034 44.3948 62.4034 43.6874C62.4034 43.148 62.2 42.6439 61.8374 42.3079C61.4307 41.9277 60.8647 41.795 60.4668 41.795ZM73.7752 49.9127V47.702H68.4872V49.9127H66.0201V45.6151L66.0997 45.6063C66.4976 45.5621 66.8424 45.4029 67.1431 45.1376C67.7621 44.5805 67.8151 43.767 67.8151 42.8296V39.7082H75.0662V45.6063H76.2511V49.9127H73.7752ZM69.5837 45.6063H72.3073V41.8127H70.353V43.2187C70.353 44.0057 70.2469 44.4302 70.1673 44.6866C70.0877 44.9165 69.9286 45.2526 69.5837 45.6063ZM80.0181 47.702H77.2681V39.6993H80.0181V47.702ZM78.6475 38.0192C77.7544 38.0192 77.0558 37.3295 77.0558 36.4629C77.0558 35.5874 77.7544 34.9065 78.6475 34.9065C79.5406 34.9065 80.2392 35.5963 80.2392 36.4629C80.2392 37.3295 79.5406 38.0192 78.6475 38.0192ZM85.7925 47.9673C84.3688 47.9673 83.0777 47.4986 82.2377 46.6762C81.4684 45.9246 81.0085 44.8104 81.0085 43.7051C81.0085 42.5909 81.4684 41.4855 82.2377 40.7339C83.0689 39.9115 84.3688 39.4429 85.7925 39.4429C87.2161 39.4429 88.5072 39.9115 89.3473 40.7339C90.1166 41.4855 90.5764 42.5997 90.5764 43.7051C90.5764 44.8193 90.1166 45.9246 89.3473 46.6762C88.5072 47.4986 87.2161 47.9673 85.7925 47.9673ZM85.7925 41.7597C85.2354 41.7597 84.7667 41.9365 84.4042 42.2991C84.0239 42.6705 83.8382 43.1303 83.8382 43.7139C83.8382 44.2887 84.0239 44.7574 84.4042 45.1288C84.7667 45.4825 85.2442 45.6682 85.8102 45.6682C86.3584 45.6682 86.8182 45.4913 87.1808 45.1288C87.561 44.7574 87.7467 44.2975 87.7467 43.7139C87.7467 43.1391 87.561 42.6705 87.1808 42.2991C86.8182 41.9365 86.3495 41.7597 85.7925 41.7597ZM52.1546 66.7404C50.1915 66.7404 48.591 66.1568 47.4061 65.0161C46.1858 63.8665 45.5137 62.266 45.5137 60.5151C45.5137 58.8173 46.2035 57.1814 47.4061 56.0496C48.5733 54.9442 50.1739 54.3429 51.9247 54.3429C52.8267 54.3429 53.7817 54.5551 54.8251 54.9973L54.8782 55.0238V58.4194L54.7279 58.2691C53.9497 57.4556 53.0301 57.0488 51.9955 57.0488C51.0404 57.0488 50.2358 57.3494 49.6168 57.9331C48.9182 58.5963 48.5114 59.5601 48.5114 60.577C48.5114 61.93 49.1481 62.7347 49.5195 63.0972C49.8113 63.389 50.6514 64.0522 52.0397 64.0522C53.0124 64.0522 53.8878 63.6632 54.719 62.8673L54.8694 62.7258V66.0861L54.8251 66.1038C53.6844 66.6697 52.8002 66.7404 52.1546 66.7404ZM61.077 66.4752H56.1162V58.4725H60.4845C60.9797 58.4725 61.8905 58.4725 62.5272 59.003C62.9782 59.3833 63.1992 59.9227 63.1992 60.5947C63.1992 61.1695 63.0401 61.5763 62.6864 61.9211C62.5626 62.0538 62.4122 62.1687 62.2354 62.2572C62.5979 62.3633 62.9428 62.549 63.1904 62.7789C63.5529 63.1326 63.7386 63.6013 63.7386 64.176C63.7386 64.8039 63.5264 65.3521 63.1196 65.7501C62.7836 66.0861 62.1558 66.4752 61.077 66.4752ZM58.8663 64.6182H59.9451C60.1573 64.6182 60.4491 64.6182 60.6614 64.4325C60.8028 64.3087 60.8824 64.1053 60.8824 63.8842C60.8824 63.6455 60.7586 63.4863 60.6614 63.4067C60.4314 63.221 60.0601 63.221 59.839 63.221H58.8663V64.6182ZM58.8663 61.6028H59.839C59.9805 61.6028 60.2458 61.5851 60.4403 61.4613C60.5995 61.3464 60.6702 61.1872 60.6702 60.9573C60.6702 60.6743 60.5287 60.5328 60.4668 60.4798C60.343 60.3825 60.0424 60.3383 59.8036 60.3383H58.8663V61.6028ZM69.2742 66.7404C67.8505 66.7404 66.5595 66.2718 65.7194 65.4494C64.9501 64.6978 64.4903 63.5836 64.4903 62.4782C64.4903 61.3641 64.9501 60.2587 65.7194 59.5071C66.5506 58.6847 67.8505 58.216 69.2742 58.216C70.6979 58.216 71.9889 58.6847 72.829 59.5071C73.5983 60.2587 74.0581 61.3729 74.0581 62.4782C74.0581 63.5924 73.5983 64.6978 72.829 65.4494C71.9978 66.2718 70.6979 66.7404 69.2742 66.7404ZM69.2742 60.5328C68.7171 60.5328 68.2484 60.7097 67.8859 61.0722C67.5056 61.4436 67.32 61.9035 67.32 62.4871C67.32 63.0619 67.5056 63.5305 67.8859 63.9019C68.2484 64.2556 68.726 64.4413 69.2919 64.4413C69.8401 64.4413 70.3 64.2645 70.6625 63.9019C71.0428 63.5305 71.2285 63.0707 71.2285 62.4871C71.2285 61.9123 71.0428 61.4436 70.6625 61.0722C70.3088 60.7097 69.8401 60.5328 69.2742 60.5328ZM79.7705 66.7404C78.338 66.7404 77.2681 66.369 76.4191 65.5555C74.9778 64.1584 74.9778 62.1245 74.9778 61.4525C74.9778 60.0819 75.1812 57.5705 76.5783 56.1115C77.5156 55.1299 78.7006 54.8735 79.4876 54.6966L80.1243 54.5551C80.8317 54.4048 81.3446 54.2898 81.6098 53.998C81.7513 53.8389 81.7867 53.6709 81.7867 53.5647V53.4763H84.2273L84.2185 53.5736C84.1389 54.3694 83.7586 55.1918 83.2458 55.6782C82.839 56.0761 82.1935 56.3944 81.2738 56.642L80.195 56.9338C79.5229 57.1195 78.7536 57.3229 78.2408 57.7739C77.834 58.1364 77.5599 58.6582 77.4626 59.2153C78.1435 58.5344 79.0366 58.1983 80.1862 58.1983C81.4595 58.1983 82.5825 58.5963 83.343 59.3302C84.1123 60.0642 84.5545 61.1341 84.5545 62.2748C84.5545 63.5305 84.0858 64.6624 83.2369 65.4759C82.0962 66.599 80.7875 66.7404 79.7705 66.7404ZM79.7529 60.5505C79.0366 60.5505 78.5856 60.8865 78.3822 61.0899C78.0197 61.4525 77.7986 61.9742 77.7986 62.5048C77.7986 63.0176 78.002 63.5128 78.3646 63.8665C78.5679 64.0699 79.0278 64.406 79.7882 64.406C80.2746 64.406 80.7079 64.2379 81.0793 63.9196C81.486 63.557 81.7336 63 81.7336 62.4429C81.7336 61.9654 81.5303 61.4967 81.1677 61.1165C80.7875 60.7362 80.3188 60.5505 79.7529 60.5505ZM90.2492 66.7404C88.8255 66.7404 87.5345 66.2718 86.6944 65.4494C85.9251 64.6978 85.4653 63.5836 85.4653 62.4782C85.4653 61.3641 85.9251 60.2587 86.6944 59.5071C87.5256 58.6847 88.8255 58.216 90.2492 58.216C91.6729 58.216 92.9639 58.6847 93.804 59.5071C94.5733 60.2587 95.0331 61.3729 95.0331 62.4782C95.0331 63.5924 94.5733 64.6978 93.804 65.4494C92.9728 66.2718 91.6729 66.7404 90.2492 66.7404ZM90.2492 60.5328C89.6921 60.5328 89.2234 60.7097 88.8609 61.0722C88.4807 61.4436 88.295 61.9035 88.295 62.4871C88.295 63.0619 88.4807 63.5305 88.8609 63.9019C89.2234 64.2556 89.701 64.4413 90.2669 64.4413C90.8151 64.4413 91.275 64.2645 91.6375 63.9019C92.0178 63.5305 92.2035 63.0707 92.2035 62.4871C92.2035 61.9123 92.0178 61.4436 91.6375 61.0722C91.275 60.7097 90.8063 60.5328 90.2492 60.5328ZM102.992 68.6947V66.484H97.7037V68.6947H95.2365V64.3883L95.3161 64.3794C95.714 64.3352 96.0589 64.176 96.3596 63.9108C96.9785 63.3537 97.0316 62.5401 97.0316 61.6028V58.4813H104.283V64.3794H105.468V68.6947H102.992ZM98.8002 64.3794H101.524V60.5859H99.5695V61.9919C99.5695 62.7789 99.4634 63.2033 99.3838 63.4598C99.3042 63.6897 99.145 64.0257 98.8002 64.3794ZM109.969 66.7404C108.669 66.7404 107.722 66.3602 106.918 65.5201C106.131 64.6978 105.733 63.6897 105.733 62.5313C105.733 61.2668 106.193 60.0995 106.997 59.3125C107.722 58.6051 108.722 58.216 109.836 58.216C110.561 58.216 111.543 58.3929 112.259 59.1976V58.4725H115.009V66.4752H112.259V65.7058C111.702 66.3956 110.941 66.7404 109.969 66.7404ZM110.473 60.5682C109.969 60.5682 109.465 60.7716 109.12 61.1076C108.863 61.364 108.554 61.7973 108.554 62.4694C108.554 63.1326 108.837 63.5659 109.067 63.8135C109.42 64.1849 109.969 64.3971 110.526 64.3971C111.003 64.3971 111.472 64.2114 111.808 63.8754C112.082 63.619 112.409 63.168 112.409 62.4606C112.409 61.9211 112.206 61.4171 111.843 61.0811C111.436 60.7008 110.871 60.5682 110.473 60.5682Z" fill="#5C666F"/>
<path d="M46.1504 21.8546C40.0578 22.5621 38.3423 28.8669 33.7617 34.3141C27.6337 41.5828 18.5433 37.8512 18.5433 37.8512C24.6714 37.0907 26.4311 30.7416 31.1266 25.321C37.3607 18.123 46.1504 21.8546 46.1504 21.8546ZM24.0612 32.519C24.0612 32.519 31.6837 26.4794 28.3942 17.5836C25.9182 10.8719 21.1431 6.11455 23.6721 0.51709C23.6721 0.51709 16.1204 6.64511 19.2684 15.4525C21.6737 22.1907 26.5902 26.9215 24.0612 32.519ZM23.6191 31.2368C23.6191 31.2368 24.353 21.4479 15.9082 17.7251C9.32034 14.8247 2.39647 15.0988 0.0266084 9.43058C0.0266084 9.43058 -0.910723 19.1576 8.04699 22.9246C14.6791 25.7189 21.2492 25.5686 23.6191 31.2368ZM13.5825 47.6755H30.711L34.7079 39.6374H13.5825V47.6755ZM16.315 71.2591H17.7563L27.5895 48.7543H16.315V71.2591Z" fill="#EA6903"/>
</svg>
