<svg width="150" height="27" viewBox="0 0 150 27" fill="none" xmlns="http://www.w3.org/2000/svg">
<path d="M20.0421 19.9726C19.8414 19.9726 19.7078 19.8727 19.6075 19.6721C19.5238 19.4719 19.4738 19.2208 19.4406 18.9042C19.4239 18.6032 19.4073 18.2694 19.4073 17.8852C19.4073 17.5181 19.3906 17.1506 19.374 16.8001C19.3241 16.0978 19.1738 15.5306 18.9228 15.1297C18.6893 14.7122 18.4221 14.3946 18.1216 14.1944C17.8211 13.9771 17.5206 13.844 17.2196 13.777C16.9191 13.7099 16.7017 13.6771 16.5177 13.6771L16.5011 13.5929C16.7683 13.3933 16.9357 13.126 17.036 12.8079C17.1192 12.4907 17.1863 11.9896 17.2029 11.3054C17.2196 11.0543 17.2362 10.7704 17.2362 10.4366C17.2528 10.1029 17.2695 9.76807 17.3028 9.46757C17.3527 9.16706 17.4192 8.89984 17.5034 8.69967C17.6038 8.48185 17.7202 8.38202 17.9043 8.38202C18.0041 8.38202 18.054 8.4153 18.0712 8.499C18.0883 8.56606 18.0883 8.64925 18.0883 8.73295C18.0883 8.83328 18.0883 8.91648 18.0545 8.99967C18.0212 9.06673 18.0046 9.15042 17.9713 9.23362C17.9713 9.30017 17.9547 9.35109 17.9547 9.40051C17.9547 9.45143 17.9547 9.51748 17.9547 9.5679C17.9547 9.85176 18.0384 10.1195 18.2219 10.3862C18.4059 10.6539 18.6898 10.7871 19.074 10.7871C19.4749 10.7871 19.7754 10.6363 19.976 10.3192C20.1928 9.98487 20.2932 9.61782 20.2932 9.19983C20.2932 9.03294 20.2599 8.84891 20.2095 8.64874C20.1429 8.44858 20.0592 8.26454 19.9256 8.09715C19.8086 7.93026 19.6417 7.79715 19.4244 7.68018C19.2243 7.5632 18.9565 7.51278 18.656 7.51278C18.3222 7.51278 18.0379 7.5632 17.8044 7.66354C17.5871 7.78001 17.3864 7.96354 17.2533 8.26454C17.1031 8.54841 17.0028 8.93261 16.9191 9.43328C16.8354 9.91781 16.7854 10.5355 16.7522 11.3044C16.7522 11.8222 16.7017 12.2392 16.6352 12.5402C16.5515 12.8407 16.4683 13.0741 16.3347 13.2249C16.2182 13.3751 16.0675 13.4749 15.9006 13.5254C15.7503 13.5581 15.5496 13.5763 15.3495 13.5763H14.6143V8.09766H15.7836V7.66404H8.83569V8.09766H9.01922C9.06964 8.09766 9.1362 8.09765 9.23653 8.1148C9.33637 8.1148 9.4367 8.14808 9.53704 8.21513C9.65401 8.26505 9.75435 8.36538 9.83754 8.48185C9.9046 8.61547 9.95452 8.78236 9.95452 9.03295C9.95452 9.08336 9.93788 9.21698 9.92124 9.43378C9.9046 9.63446 9.8209 9.98487 9.67065 10.4866L8.2841 15.4973L5.71216 8.09715H6.74779V7.66354H2.48779V8.09715H3.35603L7.08057 18.7368C6.96359 19.1043 6.82998 19.3716 6.67973 19.5722C6.54611 19.7553 6.39586 19.9226 6.26225 20.023C6.12863 20.1233 5.99502 20.1899 5.86141 20.2232C5.72779 20.2398 5.61082 20.2564 5.51099 20.2564C5.1767 20.2564 4.90947 20.1894 4.75922 20.0563C4.59233 19.9226 4.50863 19.8057 4.50863 19.6887C4.50863 19.6216 4.54191 19.5722 4.59233 19.5218C4.65889 19.4714 4.72594 19.4381 4.80964 19.3877C4.8762 19.3544 4.95939 19.3045 5.04309 19.2712C5.12678 19.2379 5.20998 19.1875 5.27653 19.1376C5.37737 19.0539 5.49384 18.9203 5.61082 18.7363C5.72779 18.5532 5.77771 18.3188 5.77771 18.0022C5.77771 17.5509 5.66124 17.2 5.42729 16.9489C5.1762 16.6993 4.90947 16.5652 4.60847 16.5652C4.27418 16.5652 3.97368 16.6993 3.70645 16.9827C3.43973 17.2665 3.30611 17.6507 3.30611 18.1509C3.30611 18.4852 3.37267 18.82 3.473 19.1205C3.58998 19.4376 3.74023 19.7048 3.9409 19.9221C4.14107 20.1556 4.37552 20.3396 4.64225 20.4737C4.90947 20.6235 5.19334 20.6905 5.51099 20.6905C5.87855 20.6905 6.19569 20.5902 6.46292 20.4067C6.73015 20.2226 6.9641 19.9721 7.16477 19.6716C7.36494 19.3539 7.54897 18.9697 7.69922 18.5527C7.84947 18.1181 7.99973 17.6507 8.16712 17.1495L10.4048 9.65059C10.4885 9.33244 10.6221 9.04908 10.789 8.76521C10.9392 8.49799 11.273 8.26404 11.7742 8.09665H12.4927V20.089H11.3567V20.5231H15.7826V20.089H14.6133V14.0104H15.4654C15.8325 14.0104 16.1169 14.0936 16.317 14.2438C16.5172 14.4112 16.6675 14.6114 16.7844 14.8791C16.8848 15.1464 16.9518 15.464 17.0017 15.7973C17.035 16.1311 17.0683 16.4991 17.0854 16.8667C17.1525 17.6013 17.2024 18.219 17.269 18.7035C17.3355 19.188 17.4359 19.5727 17.5528 19.8566C17.6698 20.1405 17.8367 20.3406 18.0535 20.4571C18.2708 20.5907 18.538 20.6573 18.9056 20.691C19.0226 20.7077 19.1562 20.7077 19.2898 20.691C19.4401 20.6578 19.6236 20.6079 19.8747 20.5242C20.1253 20.441 20.3587 20.2902 20.5589 20.09L20.392 19.8062C20.2755 19.9232 20.1586 19.9726 20.0421 19.9726Z" fill="#1A1A1A"/>
<path d="M39.3328 6.21075C39.4831 6.02672 39.5663 5.79328 39.5663 5.49277C39.5663 5.24168 39.533 5.05815 39.4327 4.92505C39.349 4.79143 39.232 4.6911 39.1155 4.64118C38.9991 4.57463 38.8982 4.54085 38.7812 4.52421C38.6809 4.52421 38.6138 4.50757 38.5639 4.50757C38.5473 4.50757 38.4802 4.52421 38.3638 4.52421C38.2468 4.54135 38.1298 4.57463 38.0123 4.64118C37.8959 4.6911 37.7955 4.79143 37.6952 4.92505C37.5948 5.05866 37.5449 5.24219 37.5449 5.49277C37.5449 5.77664 37.6286 6.01008 37.8122 6.21075C37.979 6.39428 38.2296 6.49462 38.5639 6.49462C38.9149 6.49462 39.1654 6.39479 39.3328 6.21075Z" fill="#1A1A1A"/>
<path d="M37.9629 8.09797H39.1155V20.0904H37.9629V20.5245H42.4059V20.0904H41.2367V8.09797H42.4059V7.66436H37.9629V8.09797Z" fill="#1A1A1A"/>
<path d="M42.3555 4.64118C42.2385 4.57463 42.1221 4.54085 42.0212 4.52421C41.9048 4.52421 41.8377 4.50757 41.8044 4.50757C41.7878 4.50757 41.7207 4.52421 41.6043 4.52421C41.4878 4.54135 41.3708 4.57463 41.2538 4.64118C41.1369 4.6911 41.0365 4.79143 40.9367 4.92505C40.8364 5.05866 40.7864 5.24219 40.7864 5.49277C40.7864 5.77664 40.8701 6.01008 41.037 6.21075C41.2211 6.39428 41.4712 6.49462 41.8054 6.49462C42.1564 6.49462 42.407 6.39428 42.5738 6.21075C42.7412 6.02672 42.8244 5.79328 42.8244 5.49277C42.8244 5.24168 42.7745 5.05815 42.6903 4.92505C42.5895 4.79143 42.4725 4.6911 42.3555 4.64118Z" fill="#1A1A1A"/>
<path d="M29.2276 9.85158C29.094 9.41797 28.8601 9.0499 28.5429 8.71612C28.2253 8.39898 27.7912 8.1489 27.2567 7.94873C26.7222 7.7647 26.0542 7.66487 25.2525 7.66487H20.9264V8.09848H22.0785V20.0909H20.9264V20.525H25.5026V20.0909H24.2002V15.0292H25.1854C26.5886 15.0292 27.6575 14.7453 28.3589 14.1443C29.0607 13.5595 29.4278 12.5748 29.4278 11.2049C29.4283 10.7375 29.3612 10.2857 29.2276 9.85158ZM27.0233 11.7559C27.0233 12.4406 26.9733 12.959 26.873 13.3422C26.7727 13.7264 26.6224 14.0102 26.4384 14.1937C26.2548 14.3939 26.0209 14.4948 25.7537 14.5447C25.4864 14.5774 25.2026 14.5946 24.8849 14.5946H24.2002V8.09797H25.0185C25.4864 8.09797 25.8369 8.16503 26.1212 8.26537C26.3885 8.38234 26.5886 8.5331 26.7222 8.73326C26.8559 8.93343 26.9396 9.16738 26.9728 9.4341C27.0061 9.71797 27.0227 10.0185 27.0227 10.3528L27.0233 11.7559Z" fill="#1A1A1A"/>
<path d="M146.694 20.09L143.505 7.5132H142.601L139.946 17.9027C139.879 18.1856 139.796 18.4528 139.729 18.7211C139.662 18.9706 139.578 19.2051 139.478 19.4047C139.378 19.6054 139.244 19.7723 139.078 19.8893C138.911 20.0229 138.693 20.0894 138.442 20.0894H137.024V8.09757H138.159V7.66396H130.175V8.09757C130.593 8.06429 130.91 8.11471 131.111 8.26496C131.31 8.39857 131.444 8.61538 131.511 8.89975C131.578 9.18412 131.595 9.5179 131.595 9.93588C131.578 10.3362 131.562 10.7703 131.545 11.2382L131.377 16.3493C131.344 17.2342 131.243 17.9698 131.094 18.5542C130.926 19.1219 130.709 19.6397 130.475 20.0905H129.256L129.089 24.2325H129.64C129.757 23.3637 129.924 22.6795 130.108 22.195C130.308 21.6938 130.525 21.3263 130.76 21.0757C130.993 20.8256 131.243 20.6748 131.51 20.6244C131.778 20.5578 132.012 20.5246 132.262 20.5246H135.103C135.302 20.5246 135.536 20.5578 135.82 20.6244C136.121 20.6748 136.404 20.8251 136.706 21.0757C136.99 21.3263 137.273 21.6938 137.523 22.195C137.758 22.6795 137.941 23.3637 138.058 24.2325H138.61L138.49 20.5246H141.566V20.0905C141.216 20.0572 140.948 20.0068 140.765 19.9236C140.564 19.857 140.414 19.673 140.33 19.3886C140.28 19.255 140.264 19.1219 140.28 19.0044C140.28 18.8708 140.296 18.7372 140.33 18.6036C140.398 18.2032 140.431 17.9521 140.448 17.8352C140.464 17.7353 140.481 17.6683 140.497 17.6184L140.715 16.7829H143.587L144.473 20.0905H143.354V20.5246H147.512V20.0905L146.694 20.09ZM134.903 20.09H130.994C131.095 19.9231 131.177 19.7224 131.278 19.5061C131.362 19.2883 131.445 19.021 131.529 18.7372C131.612 18.4367 131.662 18.1029 131.712 17.7187C131.763 17.334 131.796 16.8671 131.829 16.3488L132.063 10.4028C132.08 9.8179 132.13 9.36664 132.18 9.0495C132.229 8.73286 132.297 8.49841 132.397 8.36479C132.497 8.23068 132.632 8.14799 132.798 8.13084C132.965 8.11471 133.166 8.09757 133.417 8.09757H134.903V20.09ZM140.798 16.3488L142.168 11.0038L143.521 16.3488H140.798Z" fill="#1A1A1A"/>
<path d="M33.6874 7.51278H32.7848L30.1292 17.9023C30.0455 18.1852 29.979 18.4524 29.9119 18.7206C29.8453 18.9702 29.7616 19.2047 29.6613 19.4043C29.5443 19.605 29.4107 19.7719 29.2605 19.8889C29.0936 20.0225 28.8763 20.089 28.609 20.089V20.5231H31.7321V20.089C31.3983 20.0558 31.1311 20.0053 30.9304 19.9221C30.7302 19.8556 30.5966 19.6716 30.4963 19.3872C30.463 19.2536 30.4458 19.1205 30.4458 19.003C30.4625 18.8694 30.4791 18.7358 30.4963 18.6021C30.5633 18.2018 30.6132 17.9507 30.6304 17.8337C30.647 17.7339 30.6637 17.6669 30.6803 17.6169L30.8976 16.7815H33.7539L34.6393 20.089H33.52V20.5231H37.6791V20.089H36.8608L33.6874 7.51278ZM30.9652 16.3489L32.3517 11.0039L33.705 16.3489H30.9652Z" fill="#1A1A1A"/>
<path d="M93.3641 8.09797H94.5162V20.0904H93.3641V20.5245H97.6064V20.0904H96.6374V8.09797H99.8617V20.0904H98.8927V20.5245H103.135V20.0904H101.982V8.09797H103.135V7.66436H93.3641V8.09797Z" fill="#1A1A1A"/>
<path d="M128.539 15.0948C128.321 14.7787 128.004 14.4777 127.588 14.1938C127.169 13.8933 126.601 13.6589 125.9 13.4592L125.883 13.3589C126.785 13.1411 127.486 12.8073 128.004 12.3565C128.522 11.9058 128.789 11.2377 128.789 10.3861C128.789 10.0186 128.722 9.66815 128.59 9.33336C128.473 8.99958 128.255 8.71572 127.954 8.46513C127.654 8.23118 127.253 8.03051 126.768 7.88076C126.284 7.74715 125.666 7.66396 124.914 7.66396H120.538V8.09757H121.674V20.09H119.853L116.664 7.5132H115.762L113.123 17.9027C113.04 18.1856 112.956 18.4528 112.906 18.7211C112.838 18.9706 112.755 19.2051 112.638 19.4047C112.538 19.6054 112.405 19.7723 112.238 19.8893C112.071 20.0229 111.87 20.0894 111.603 20.0894V20.5236H114.726V20.0894C114.392 20.0562 114.107 20.0058 113.925 19.9226C113.724 19.856 113.573 19.672 113.49 19.3876C113.44 19.254 113.44 19.1209 113.44 19.0034C113.44 18.8698 113.456 18.7362 113.49 18.6026C113.557 18.2022 113.59 17.9511 113.607 17.8342C113.64 17.7343 113.657 17.6673 113.657 17.6174L113.874 16.7819H116.747L117.633 20.0894H116.513V20.5236H124.998C125.599 20.5236 126.151 20.4404 126.651 20.2896C127.152 20.1227 127.587 19.8888 127.937 19.5716C128.288 19.254 128.572 18.8698 128.755 18.419C128.956 17.9683 129.057 17.4505 129.057 16.8817C129.057 16.6322 129.024 16.3478 128.957 16.0306C128.89 15.7135 128.755 15.413 128.539 15.0948ZM113.959 16.3488L115.328 11.0038L116.681 16.3488H113.959ZM123.795 8.09757H124.881C125.264 8.09757 125.565 8.18177 125.782 8.33152C125.982 8.49891 126.133 8.68193 126.233 8.88311C126.334 9.08277 126.401 9.28395 126.401 9.48361C126.417 9.66764 126.417 9.81739 126.417 9.90159V11.2206C126.417 11.6885 126.35 12.0555 126.2 12.3066C126.05 12.5733 125.883 12.7569 125.682 12.8905C125.482 13.007 125.298 13.0735 125.115 13.0912C124.947 13.1244 124.831 13.1244 124.781 13.1244H123.795V8.09757ZM126.669 17.6012C126.669 17.9184 126.651 18.2189 126.619 18.5199C126.585 18.8209 126.501 19.0876 126.368 19.321C126.233 19.5555 126.034 19.739 125.783 19.8893C125.516 20.0229 125.148 20.0894 124.681 20.0894H123.795V13.5591H124.848C125.282 13.5591 125.599 13.6594 125.849 13.8434C126.084 14.0103 126.267 14.2438 126.384 14.5276C126.5 14.7943 126.585 15.0948 126.619 15.413C126.651 15.7135 126.669 15.9974 126.669 16.2485V17.6012Z" fill="#1A1A1A"/>
<path d="M108.363 15.0292C109.782 15.0292 110.835 14.7453 111.536 14.1443C112.254 13.5595 112.604 12.5748 112.604 11.2049C112.604 10.7375 112.537 10.2862 112.405 9.85158C112.271 9.41797 112.053 9.0499 111.737 8.71612C111.402 8.39898 110.985 8.1489 110.451 7.94873C109.916 7.7647 109.248 7.66487 108.446 7.66487H104.104V8.09848H105.255V20.0909H104.104V20.525H108.68V20.0909H107.377V15.0292H108.363ZM107.377 8.09797H108.212C108.664 8.09797 109.031 8.16503 109.297 8.26537C109.565 8.38234 109.765 8.5331 109.899 8.73326C110.049 8.93343 110.132 9.16738 110.166 9.4341C110.199 9.71797 110.216 10.0185 110.216 10.3528V11.7559C110.216 12.4406 110.15 12.959 110.049 13.3422C109.949 13.7264 109.799 14.0102 109.615 14.1937C109.431 14.3939 109.215 14.4948 108.947 14.5447C108.68 14.5774 108.379 14.5946 108.062 14.5946H107.377V8.09797Z" fill="#1A1A1A"/>
<path d="M84.9293 7.51287H84.0106L81.3716 17.9024C81.2879 18.1853 81.2219 18.4525 81.1548 18.7207C81.0877 18.9703 81.0051 19.2048 80.9047 19.4044C80.7878 19.6051 80.6536 19.772 80.5029 19.889C80.4545 19.9278 80.3935 19.9484 80.3355 19.9762L80.2362 19.8053C80.1192 19.9222 80.0027 19.9721 79.8686 19.9721C79.6846 19.9721 79.5348 19.8723 79.4511 19.6716C79.3674 19.471 79.317 19.2204 79.2837 18.9037C79.2681 18.6027 79.2515 18.269 79.2515 17.8848C79.2515 17.5177 79.2348 17.1501 79.2182 16.7997C79.1511 16.0974 79.0175 15.5301 78.7664 15.1293C78.533 14.7118 78.2496 14.3942 77.9491 14.194C77.6476 13.9767 77.3476 13.8436 77.0637 13.7765C76.7622 13.7095 76.5288 13.6767 76.3614 13.6767L76.3447 13.5925C76.6125 13.3928 76.7788 13.1256 76.8797 12.8075C76.9634 12.4903 77.0304 11.9892 77.0471 11.305C77.0637 11.0539 77.0804 10.77 77.0804 10.4362C77.0804 10.1024 77.1126 9.76765 77.1464 9.46715C77.1802 9.16665 77.2467 8.89942 77.3471 8.69925C77.4308 8.48144 77.5639 8.38161 77.7313 8.38161C77.8483 8.38161 77.8987 8.41489 77.9153 8.49858C77.9309 8.56564 77.9309 8.64883 77.9309 8.73253C77.9309 8.83287 77.9153 8.91606 77.8987 8.99925C77.8654 9.06631 77.8483 9.15001 77.815 9.2332C77.7983 9.29976 77.7983 9.35068 77.7983 9.40009C77.7983 9.45101 77.7983 9.51707 77.7983 9.56748C77.7983 9.85135 77.882 10.1191 78.0651 10.3858C78.2325 10.6535 78.5163 10.7866 78.9177 10.7866C79.3019 10.7866 79.6019 10.6359 79.8187 10.3187C80.0194 9.98446 80.1358 9.6174 80.1358 9.19942C80.1358 9.03253 80.1025 8.8485 80.0365 8.64833C79.9861 8.44816 79.8857 8.26413 79.7688 8.09673C79.6518 7.92984 79.4849 7.79674 79.2686 7.67976C79.0669 7.56279 78.7997 7.51237 78.4997 7.51237C78.1659 7.51237 77.882 7.56279 77.6481 7.66312C77.4146 7.77959 77.2306 7.96312 77.0975 8.26413C76.9467 8.54799 76.8298 8.93219 76.7627 9.43286C76.68 9.9174 76.6286 10.535 76.5963 11.3039C76.5797 11.8218 76.5459 12.2387 76.4794 12.5397C76.3957 12.8402 76.2963 13.0737 76.1788 13.2244C76.0447 13.3747 75.9111 13.4745 75.7447 13.5249C75.5773 13.5577 75.3933 13.5759 75.1931 13.5759H74.4585V8.09774H75.6111V7.66413H71.2019V8.09774H72.3373V20.0901H71.2019V20.5242H75.6111V20.0901H74.4585V14.0105H75.3106C75.6782 14.0105 75.9615 14.0937 76.1622 14.2439C76.3619 14.4113 76.5126 14.6115 76.6135 14.8792C76.7304 15.1465 76.7965 15.4641 76.8303 15.7974C76.8807 16.1312 76.914 16.4992 76.9306 16.8668C76.981 17.6014 77.0476 18.219 77.1136 18.7036C77.1807 19.1881 77.2644 19.5728 77.398 19.8567C77.515 20.1405 77.6824 20.3407 77.8992 20.4572C78.0988 20.5908 78.3827 20.6574 78.7341 20.6911C78.8672 20.7078 79.0009 20.7078 79.134 20.6911C79.2691 20.6579 79.4688 20.6079 79.7188 20.5242C79.7652 20.5096 79.8076 20.4804 79.853 20.4597V20.5242H82.9765V20.0901C82.6417 20.0569 82.375 20.0064 82.1748 19.9232C81.9741 19.8567 81.84 19.6727 81.7407 19.3883C81.7074 19.2547 81.6903 19.1216 81.6903 19.0041C81.7069 18.8705 81.7235 18.7369 81.7407 18.6032C81.8067 18.2029 81.8567 17.9518 81.8738 17.8348C81.8904 17.735 81.9071 17.668 81.9242 17.618L82.142 16.7826H84.9978L85.8832 20.0901H84.7634V20.5242H88.922V20.0901H88.1047L84.9293 7.51287ZM82.2076 16.349L83.5931 11.0039L84.9464 16.349H82.2076Z" fill="#1A1A1A"/>
<path d="M61.2293 17.9858C61.0115 18.5369 60.778 18.971 60.4942 19.3053C60.2264 19.6396 59.9431 19.8731 59.6426 20.0233C59.3587 20.1741 59.0748 20.2572 58.8238 20.2572C58.5898 20.2572 58.3564 20.1741 58.1224 20.0233C57.8718 19.8731 57.6545 19.6063 57.4543 19.2383C57.2537 18.8546 57.1034 18.3368 56.9698 17.7015C56.8528 17.0672 56.7863 16.2489 56.7863 15.2465L56.8029 12.5571C56.8029 12.2561 56.8196 11.8563 56.8362 11.3385C56.8362 10.8207 56.9027 10.3023 57.0197 9.80217C57.1367 9.29999 57.3369 8.86688 57.6207 8.49881C57.9046 8.13125 58.3054 7.94823 58.8565 7.94823C59.4747 7.94823 60.0429 8.28201 60.527 8.96621C61.0105 9.65141 61.3619 10.6028 61.5459 11.8059H61.9296V7.66436H61.4285C61.3785 7.83125 61.312 7.93108 61.2117 7.9815C61.0952 8.03092 61.011 8.0647 60.9439 8.0647C60.8769 8.0647 60.828 8.0647 60.777 8.04856C60.7438 8.03142 60.6772 8.01529 60.6101 7.98201C60.3591 7.88167 60.0923 7.78134 59.7913 7.66487C59.4903 7.56453 59.1565 7.51411 58.8056 7.51411C58.1375 7.51411 57.5365 7.71478 57.0016 8.09848C56.4505 8.49982 55.9826 9.00049 55.615 9.61914C55.2313 10.2534 54.9303 10.9386 54.7301 11.707C54.5128 12.4749 54.413 13.2272 54.413 13.9785C54.413 14.7635 54.5133 15.548 54.7135 16.3331C54.9137 17.1352 55.2147 17.8537 55.5989 18.5052C55.9831 19.1399 56.4505 19.6739 57.0182 20.0747C57.5693 20.4922 58.2041 20.6929 58.9221 20.6929C59.2231 20.6929 59.4399 20.6596 59.6239 20.5925C59.808 20.526 59.9416 20.4589 60.058 20.3924C60.2249 20.3092 60.3757 20.2421 60.5093 20.1584C60.6596 20.0752 60.8098 20.042 60.9429 20.042C61.0599 20.042 61.1607 20.0752 61.2606 20.1257C61.3604 20.1922 61.4607 20.3253 61.5444 20.5265H62.0285L62.1449 15.9837H61.6604C61.5802 16.7672 61.4295 17.4514 61.2293 17.9858Z" fill="#1A1A1A"/>
<path d="M49.2873 8.09797H50.2559V13.5262H47.0486V8.09797H48.0177V7.66436H43.792V8.09797H44.928V20.0904H43.792V20.5245H48.0177V20.0904H47.0486V13.9608H50.2559V20.0904H49.2873V20.5245H53.5125V20.0904H52.377V8.09797H53.5125V7.66436H49.2873V8.09797Z" fill="#1A1A1A"/>
<path d="M69.5965 14.1443C69.2295 13.8438 68.8115 13.5927 68.3275 13.4264C67.8268 13.2756 67.2913 13.1924 66.6913 13.1924H66.1064V8.09797H67.2585V7.66436H62.8327V8.09797H64.0014V20.0904H62.8327V20.5245H66.9248C67.2918 20.5245 67.7098 20.4912 68.1606 20.4246C68.5942 20.3576 69.0122 20.1902 69.3964 19.9235C69.7806 19.6729 70.0806 19.3053 70.3317 18.8374C70.5817 18.37 70.7159 17.7352 70.7159 16.9164C70.7159 16.3159 70.6155 15.7815 70.4143 15.3131C70.2147 14.8462 69.948 14.462 69.5965 14.1443ZM68.3113 17.6183C68.3113 18.1028 68.2775 18.5036 68.211 18.8213C68.1439 19.1384 68.0436 19.3885 67.8938 19.5725C67.7597 19.7727 67.5757 19.9063 67.3589 19.9729C67.1416 20.0566 66.891 20.0899 66.6066 20.0899H66.1064V13.626H66.6913C67.0246 13.626 67.2913 13.6769 67.5091 13.7929C67.7093 13.8937 67.8762 14.0601 67.9932 14.2613C68.1101 14.4786 68.1938 14.7287 68.2443 15.0463C68.2942 15.3469 68.3113 15.6978 68.3113 16.0981V17.6183Z" fill="#1A1A1A"/>
</svg>
