<svg width="121" height="14" viewBox="0 0 121 14" fill="none" xmlns="http://www.w3.org/2000/svg">
<path d="M7.13632 4.24862L7.75684 5.32349L12.1853 12.9927H14.2734L7.13632 0.63208L0 12.9927H2.08803L7.13632 4.24862Z" fill="white"/>
<path d="M5.2198 11.1846L4.17578 12.9928H10.097L9.05299 11.1846H5.2198Z" fill="#38A3A5"/>
<path d="M59.5298 5.88065L60.0345 6.75487L63.6363 12.9924H65.3345L59.5298 2.93921L53.7256 12.9924H55.4238L59.5298 5.88065Z" fill="white"/>
<path d="M57.9712 11.5217L57.1221 12.9924H61.938L61.0888 11.5217H57.9712Z" fill="#38A3A5"/>
<path d="M67.9514 5.8505V12.9993H66.3564V2.88843H67.6666L73.3914 10.1939V2.90267H75.0006V12.9993H73.605L67.9514 5.8505Z" fill="white"/>
<path d="M51.4219 12.9993V2.88843H53.0168V12.9993H51.4219Z" fill="white"/>
<path d="M42.4346 12.9993V2.88843H46.835C47.2907 2.88843 47.7084 2.98337 48.0881 3.17324C48.4679 3.36312 48.7954 3.6147 49.0707 3.928C49.3556 4.2413 49.5739 4.59257 49.7258 4.98181C49.8872 5.37106 49.9679 5.7698 49.9679 6.17804C49.9679 6.62425 49.8872 7.05147 49.7258 7.4597C49.5644 7.86794 49.3318 8.21921 49.028 8.51351C48.7337 8.80782 48.3872 9.02143 47.9885 9.15435L50.3667 12.9993H48.5723L46.3793 9.48188H44.0295V12.9993H42.4346ZM44.0295 8.07205H46.8207C47.115 8.07205 47.3761 7.98661 47.604 7.81572C47.8318 7.64483 48.0122 7.41698 48.1451 7.13216C48.278 6.83786 48.3445 6.51981 48.3445 6.17804C48.3445 5.82676 48.2685 5.51347 48.1166 5.23815C47.9647 4.95333 47.7653 4.72548 47.5185 4.55459C47.2812 4.3837 47.0201 4.29826 46.7353 4.29826H44.0295V8.07205Z" fill="white"/>
<path d="M36.1708 2.88843H37.6804L41.6108 12.9993H39.9304L38.8623 10.2509H34.9604L33.9066 12.9993H32.2119L36.1708 2.88843ZM38.549 9.0689L36.9256 4.64004L35.2452 9.0689H38.549Z" fill="white"/>
<path d="M24.2646 12.9993V2.88843H28.665C29.1207 2.88843 29.5385 2.98337 29.9182 3.17324C30.298 3.36312 30.6255 3.6147 30.9008 3.928C31.1856 4.2413 31.404 4.59257 31.5559 4.98181C31.7173 5.37106 31.798 5.7698 31.798 6.17804C31.798 6.62425 31.7173 7.05147 31.5559 7.4597C31.3945 7.86794 31.1619 8.21921 30.8581 8.51351C30.5638 8.80782 30.2173 9.02143 29.8185 9.15435L32.1967 12.9993H30.4024L28.2093 9.48188H25.8596V12.9993H24.2646ZM25.8596 8.07205H28.6508C28.9451 8.07205 29.2062 7.98661 29.434 7.81572C29.6619 7.64483 29.8423 7.41698 29.9752 7.13216C30.1081 6.83786 30.1745 6.51981 30.1745 6.17804C30.1745 5.82676 30.0986 5.51347 29.9467 5.23815C29.7948 4.95333 29.5954 4.72548 29.3486 4.55459C29.1112 4.3837 28.8502 4.29826 28.5653 4.29826H25.8596V8.07205Z" fill="white"/>
<path d="M18.5855 13.0707C17.9209 13.0707 17.2991 12.933 16.72 12.6577C16.1408 12.3824 15.6329 12.0027 15.1962 11.5185C14.769 11.0343 14.432 10.4836 14.1851 9.86654C13.9478 9.24944 13.8291 8.59437 13.8291 7.90132C13.8291 7.20827 13.9478 6.55795 14.1851 5.95034C14.432 5.34274 14.769 4.80159 15.1962 4.3269C15.6329 3.85221 16.1408 3.48195 16.72 3.21612C17.3086 2.9503 17.9494 2.81738 18.6425 2.81738C19.6013 2.81738 20.4083 3.0215 21.0634 3.42973C21.728 3.82847 22.2264 4.36013 22.5587 5.0247L21.334 5.90762C21.0681 5.35698 20.6884 4.944 20.1947 4.66868C19.7105 4.39336 19.1789 4.2557 18.5997 4.2557C18.1251 4.2557 17.6931 4.35538 17.3038 4.55475C16.9146 4.75412 16.5776 5.02944 16.2927 5.38071C16.0174 5.72249 15.8086 6.11648 15.6662 6.56269C15.5237 6.99941 15.4525 7.45986 15.4525 7.94404C15.4525 8.45671 15.5332 8.93615 15.6946 9.38236C15.856 9.82857 16.0839 10.2226 16.3782 10.5643C16.6725 10.8966 17.019 11.1577 17.4178 11.3476C17.8165 11.5375 18.2485 11.6324 18.7137 11.6324C19.2643 11.6324 19.7865 11.4947 20.2802 11.2194C20.7833 10.9346 21.2533 10.5121 21.69 9.95199V11.5754C20.8071 12.5723 19.7722 13.0707 18.5855 13.0707ZM21.5333 9.06906H19.4115V7.88708H22.872V12.9995H21.5333V9.06906Z" fill="white"/>
<path d="M81 6.78093C81 6.27259 81.0899 5.77598 81.2698 5.2911C81.4497 4.7984 81.7117 4.35262 82.0558 3.95377C82.4077 3.5471 82.8339 3.22645 83.3345 2.99183C83.835 2.74939 84.402 2.62817 85.0354 2.62817C85.7862 2.62817 86.4353 2.80023 86.9828 3.14434C87.5302 3.48062 87.9369 3.91467 88.2028 4.44647L87.1705 5.1386C87.0141 4.80231 86.8146 4.53641 86.5722 4.34089C86.3376 4.14538 86.0795 4.00851 85.798 3.93031C85.5242 3.8521 85.2544 3.813 84.9885 3.813C84.5506 3.813 84.1674 3.90294 83.8389 4.08281C83.5104 4.25486 83.2328 4.48557 83.006 4.77494C82.787 5.0643 82.6189 5.38886 82.5016 5.7486C82.3921 6.10835 82.3373 6.4681 82.3373 6.82785C82.3373 7.2267 82.4038 7.61382 82.5368 7.98921C82.6697 8.35678 82.8535 8.68525 83.0881 8.97461C83.3305 9.25616 83.616 9.47904 83.9445 9.64328C84.2729 9.80751 84.6327 9.88963 85.0237 9.88963C85.2896 9.88963 85.5672 9.8427 85.8566 9.74886C86.146 9.65501 86.4119 9.51033 86.6543 9.31481C86.9046 9.11147 87.1001 8.84557 87.2409 8.51711L88.3318 9.13885C88.1598 9.55334 87.89 9.90527 87.5224 10.1946C87.1627 10.484 86.756 10.703 86.3024 10.8516C85.8566 11.0002 85.4147 11.0745 84.9768 11.0745C84.3902 11.0745 83.8545 10.9532 83.3696 10.7108C82.8848 10.4605 82.4664 10.1321 82.1144 9.72539C81.7625 9.3109 81.4888 8.84948 81.2933 8.34114C81.0978 7.82498 81 7.30491 81 6.78093Z" fill="white"/>
<path d="M92.7139 11.0157V2.68677H94.0277V9.85437H98.4972V11.0157H92.7139Z" fill="white"/>
<path d="M106.471 11.0451C105.806 11.0451 105.243 10.9317 104.781 10.7049C104.328 10.4781 103.96 10.1692 103.679 9.77815C103.405 9.38712 103.202 8.94135 103.069 8.44083C102.943 7.94031 102.881 7.42023 102.881 6.88061V2.65747H104.195V6.88061C104.195 7.26382 104.234 7.6353 104.312 7.99505C104.39 8.34698 104.515 8.66371 104.687 8.94526C104.859 9.2268 105.09 9.44969 105.38 9.61392C105.677 9.77815 106.04 9.86027 106.471 9.86027C106.908 9.86027 107.272 9.77815 107.562 9.61392C107.859 9.44187 108.089 9.21507 108.254 8.93352C108.426 8.64416 108.551 8.32352 108.629 7.97159C108.707 7.61966 108.746 7.256 108.746 6.88061V2.65747H110.072V6.88061C110.072 7.45152 110.002 7.99114 109.861 8.49948C109.728 9 109.517 9.44186 109.227 9.82508C108.946 10.2005 108.578 10.4977 108.125 10.7166C107.671 10.9356 107.12 11.0451 106.471 11.0451Z" fill="white"/>
<path d="M121 8.86897C121 9.31475 120.883 9.69796 120.648 10.0186C120.421 10.3393 120.112 10.5856 119.721 10.7577C119.33 10.9297 118.9 11.0157 118.431 11.0157H114.454V2.68677H118.748C119.139 2.68677 119.475 2.79235 119.756 3.0035C120.046 3.20684 120.265 3.47274 120.413 3.80121C120.57 4.12185 120.648 4.45814 120.648 4.81007C120.648 5.21674 120.542 5.59995 120.331 5.9597C120.128 6.31163 119.835 6.57362 119.451 6.74567C119.929 6.88645 120.304 7.14453 120.578 7.51992C120.859 7.88749 121 8.33717 121 8.86897ZM119.651 8.62262C119.651 8.38801 119.6 8.17685 119.498 7.98915C119.405 7.79364 119.272 7.63723 119.1 7.51992C118.935 7.39479 118.74 7.33222 118.513 7.33222H115.768V9.87784H118.431C118.666 9.87784 118.873 9.82309 119.053 9.7136C119.24 9.59629 119.385 9.44379 119.487 9.2561C119.596 9.06058 119.651 8.84942 119.651 8.62262ZM115.768 3.82467V6.27644H118.185C118.404 6.27644 118.599 6.2256 118.771 6.12393C118.943 6.01444 119.08 5.86976 119.182 5.68989C119.283 5.50219 119.334 5.29104 119.334 5.05642C119.334 4.81398 119.287 4.60282 119.193 4.42295C119.1 4.23525 118.971 4.09057 118.806 3.9889C118.65 3.87941 118.466 3.82467 118.255 3.82467H115.768Z" fill="white"/>
</svg>
