<svg width="19" height="19" viewBox="0 0 19 19" fill="none" xmlns="http://www.w3.org/2000/svg">
<path d="M18.5 9.1875C18.5 9.38641 18.421 9.57718 18.2803 9.71783C18.1397 9.85848 17.9489 9.9375 17.75 9.9375H10.25V17.4375C10.25 17.6364 10.171 17.8272 10.0303 17.9678C9.88968 18.1085 9.69891 18.1875 9.5 18.1875C9.30109 18.1875 9.11032 18.1085 8.96967 17.9678C8.82902 17.8272 8.75 17.6364 8.75 17.4375V9.9375H1.25C1.05109 9.9375 0.860322 9.85848 0.71967 9.71783C0.579018 9.57718 0.5 9.38641 0.5 9.1875C0.5 8.98859 0.579018 8.79782 0.71967 8.65717C0.860322 8.51652 1.05109 8.4375 1.25 8.4375H8.75V0.9375C8.75 0.738588 8.82902 0.547822 8.96967 0.40717C9.11032 0.266518 9.30109 0.1875 9.5 0.1875C9.69891 0.1875 9.88968 0.266518 10.0303 0.40717C10.171 0.547822 10.25 0.738588 10.25 0.9375V8.4375H17.75C17.9489 8.4375 18.1397 8.51652 18.2803 8.65717C18.421 8.79782 18.5 8.98859 18.5 9.1875Z" fill="#2C3333"/>
</svg>
