<svg width="16" height="16" viewBox="0 0 16 16" fill="none" xmlns="http://www.w3.org/2000/svg">
<path fill-rule="evenodd" clip-rule="evenodd" d="M7.3335 1.3335C4.01979 1.3335 1.3335 4.01979 1.3335 7.3335C1.3335 10.6472 4.01979 13.3335 7.3335 13.3335C8.75017 13.3335 10.0522 12.8425 11.0786 12.0214L13.5288 14.4716C13.7891 14.7319 14.2112 14.7319 14.4716 14.4716C14.7319 14.2112 14.7319 13.7891 14.4716 13.5288L12.0214 11.0786C12.8425 10.0522 13.3335 8.75017 13.3335 7.3335C13.3335 4.01979 10.6472 1.3335 7.3335 1.3335ZM2.66683 7.3335C2.66683 4.75617 4.75617 2.66683 7.3335 2.66683C9.91083 2.66683 12.0002 4.75617 12.0002 7.3335C12.0002 9.91083 9.91083 12.0002 7.3335 12.0002C4.75617 12.0002 2.66683 9.91083 2.66683 7.3335Z" fill="#959D9D"/>
</svg>
